Rosalind Serif-Light Italic.ufo
<glyph name="exclam" format="1">
  <advance width="589"/>
  <unicode hex="0021"/>
  <note>
	exclam
  </note>
  <outline>
    <contour>
      <point x="522" y="1529" type="line"/>
      <point x="325" y="420" type="line"/>
      <point x="234" y="420" type="line"/>
      <point x="362" y="1529" type="line"/>
    </contour>
    <contour>
      <point x="301" y="181"/>
      <point x="327" y="152"/>
      <point x="327" y="108" type="curve" smooth="yes"/>
      <point x="327" y="100"/>
      <point x="327" y="94"/>
      <point x="326" y="90" type="curve"/>
      <point x="317" y="26"/>
      <point x="268" y="-15"/>
      <point x="215" y="-15" type="curve" smooth="yes"/>
      <point x="171" y="-15"/>
      <point x="143" y="12"/>
      <point x="143" y="60" type="curve" smooth="yes"/>
      <point x="143" y="67"/>
      <point x="143" y="73"/>
      <point x="144" y="76" type="curve"/>
      <point x="152" y="136"/>
      <point x="198" y="181"/>
      <point x="249" y="181" type="curve" smooth="yes"/>
    </contour>
  </outline>
</glyph>
<glyph name="quotedbl" format="1">
  <advance width="862"/>
  <unicode hex="0022"/>
  <note>
	quotedbl
  </note>
  <outline>
    <contour>
      <point x="455" y="1451" type="line"/>
      <point x="324" y="831" type="line"/>
      <point x="232" y="831" type="line"/>
      <point x="307" y="1451" type="line"/>
    </contour>
    <contour>
      <point x="867" y="1451" type="line"/>
      <point x="736" y="831" type="line"/>
      <point x="644" y="831" type="line"/>
      <point x="719" y="1451" type="line"/>
    </contour>
  </outline>
</glyph>
<glyph name="numbersign" format="1">
  <advance width="1208"/>
  <unicode hex="0023"/>
  <note>
	numbersign
  </note>
  <outline>
    <contour>
      <point x="95" y="314" type="line"/>
      <point x="101" y="402" type="line"/>
      <point x="293" y="402" type="line"/>
      <point x="355" y="793" type="line"/>
      <point x="164" y="793" type="line"/>
      <point x="169" y="882" type="line"/>
      <point x="369" y="882" type="line"/>
      <point x="415" y="1167" type="line"/>
      <point x="523" y="1167" type="line"/>
      <point x="479" y="882" type="line"/>
      <point x="813" y="882" type="line"/>
      <point x="861" y="1167" type="line"/>
      <point x="970" y="1167" type="line"/>
      <point x="924" y="882" type="line"/>
      <point x="1123" y="882" type="line"/>
      <point x="1118" y="793" type="line"/>
      <point x="910" y="793" type="line"/>
      <point x="847" y="402" type="line"/>
      <point x="1044" y="402" type="line"/>
      <point x="1039" y="314" type="line"/>
      <point x="833" y="314" type="line"/>
      <point x="785" y="0" type="line"/>
      <point x="679" y="0" type="line"/>
      <point x="724" y="314" type="line"/>
      <point x="389" y="314" type="line"/>
      <point x="335" y="0" type="line"/>
      <point x="229" y="0" type="line"/>
      <point x="280" y="314" type="line"/>
    </contour>
    <contour>
      <point x="800" y="793" type="line"/>
      <point x="465" y="793" type="line"/>
      <point x="402" y="402" type="line"/>
      <point x="737" y="402" type="line"/>
    </contour>
  </outline>
</glyph>
<glyph name="dollar" format="1">
  <advance width="1036"/>
  <unicode hex="0024"/>
  <note>
	dollar
  </note>
  <outline>
    <contour>
      <point x="212" y="295" type="line"/>
      <point x="220" y="120" type="line"/>
      <point x="273" y="79"/>
      <point x="374" y="53"/>
      <point x="463" y="53" type="curve" smooth="yes"/>
      <point x="564" y="53"/>
      <point x="665" y="89"/>
      <point x="726" y="166" type="curve" smooth="yes"/>
      <point x="756" y="205"/>
      <point x="771" y="253"/>
      <point x="771" y="311" type="curve" smooth="yes"/>
      <point x="771" y="403"/>
      <point x="719" y="470"/>
      <point x="656" y="517" type="curve" smooth="yes"/>
      <point x="625" y="540"/>
      <point x="581" y="568"/>
      <point x="526" y="601" type="curve" smooth="yes"/>
      <point x="485" y="626" type="line" smooth="yes"/>
      <point x="368" y="695"/>
      <point x="303" y="738"/>
      <point x="252" y="819" type="curve" smooth="yes"/>
      <point x="227" y="859"/>
      <point x="214" y="906"/>
      <point x="214" y="961" type="curve" smooth="yes"/>
      <point x="214" y="1098"/>
      <point x="285" y="1208"/>
      <point x="400" y="1270" type="curve" smooth="yes"/>
      <point x="457" y="1301"/>
      <point x="521" y="1319"/>
      <point x="590" y="1324" type="curve"/>
      <point x="614" y="1480" type="line"/>
      <point x="733" y="1480" type="line"/>
      <point x="708" y="1323" type="line"/>
      <point x="820" y="1314"/>
      <point x="907" y="1284"/>
      <point x="951" y="1253" type="curve"/>
      <point x="915" y="1042" type="line"/>
      <point x="838" y="1042" type="line"/>
      <point x="819" y="1199" type="line"/>
      <point x="778" y="1228"/>
      <point x="693" y="1251"/>
      <point x="605" y="1251" type="curve" smooth="yes"/>
      <point x="528" y="1251"/>
      <point x="437" y="1222"/>
      <point x="378" y="1149" type="curve" smooth="yes"/>
      <point x="349" y="1112"/>
      <point x="334" y="1065"/>
      <point x="334" y="1006" type="curve" smooth="yes"/>
      <point x="334" y="921"/>
      <point x="384" y="855"/>
      <point x="448" y="810" type="curve" smooth="yes"/>
      <point x="479" y="787"/>
      <point x="521" y="761"/>
      <point x="574" y="730" type="curve" smooth="yes"/>
      <point x="599" y="716" type="line"/>
      <point x="616" y="707" type="line"/>
      <point x="736" y="636"/>
      <point x="803" y="591"/>
      <point x="855" y="510" type="curve" smooth="yes"/>
      <point x="881" y="469"/>
      <point x="894" y="422"/>
      <point x="894" y="367" type="curve" smooth="yes"/>
      <point x="894" y="219"/>
      <point x="817" y="105"/>
      <point x="695" y="41" type="curve" smooth="yes"/>
      <point x="634" y="8"/>
      <point x="565" y="-11"/>
      <point x="489" y="-17" type="curve"/>
      <point x="460" y="-198" type="line"/>
      <point x="342" y="-198" type="line"/>
      <point x="372" y="-17" type="line"/>
      <point x="245" y="-6"/>
      <point x="128" y="27"/>
      <point x="91" y="56" type="curve"/>
      <point x="128" y="295" type="line"/>
    </contour>
  </outline>
</glyph>
<glyph name="ampersand" format="1">
  <advance width="1333"/>
  <unicode hex="0026"/>
  <note>
	ampersand
  </note>
  <outline>
    <contour>
      <point x="754" y="660" type="line"/>
      <point x="770" y="677"/>
      <point x="816" y="697"/>
      <point x="872" y="697" type="curve" smooth="yes"/>
      <point x="900" y="697"/>
      <point x="937" y="693"/>
      <point x="983" y="685" type="curve"/>
      <point x="1022" y="680"/>
      <point x="1068" y="674"/>
      <point x="1105" y="674" type="curve" smooth="yes"/>
      <point x="1206" y="674"/>
      <point x="1251" y="714"/>
      <point x="1267" y="821" type="curve"/>
      <point x="1318" y="821" type="line"/>
      <point x="1314" y="656"/>
      <point x="1263" y="569"/>
      <point x="1132" y="569" type="curve" smooth="yes"/>
      <point x="1110" y="569"/>
      <point x="1088" y="571"/>
      <point x="1066" y="574" type="curve"/>
      <point x="1070" y="553"/>
      <point x="1072" y="530"/>
      <point x="1072" y="504" type="curve" smooth="yes"/>
      <point x="1072" y="352"/>
      <point x="1018" y="229"/>
      <point x="921" y="138" type="curve"/>
      <point x="960" y="109"/>
      <point x="998" y="90"/>
      <point x="1035" y="79" type="curve" smooth="yes"/>
      <point x="1080" y="66"/>
      <point x="1133" y="58"/>
      <point x="1176" y="59" type="curve"/>
      <point x="1169" y="-1" type="line"/>
      <point x="1110" y="-14"/>
      <point x="1073" y="-17"/>
      <point x="1028" y="-17" type="curve" smooth="yes"/>
      <point x="951" y="-17"/>
      <point x="876" y="9"/>
      <point x="815" y="62" type="curve"/>
      <point x="722" y="11"/>
      <point x="608" y="-15"/>
      <point x="484" y="-15" type="curve" smooth="yes"/>
      <point x="331" y="-15"/>
      <point x="193" y="31"/>
      <point x="113" y="130" type="curve" smooth="yes"/>
      <point x="72" y="179"/>
      <point x="52" y="241"/>
      <point x="52" y="315" type="curve" smooth="yes"/>
      <point x="52" y="423"/>
      <point x="110" y="506"/>
      <point x="197" y="569" type="curve" smooth="yes"/>
      <point x="240" y="600"/>
      <point x="294" y="633"/>
      <point x="357" y="666" type="curve"/>
      <point x="312" y="766"/>
      <point x="277" y="900"/>
      <point x="277" y="992" type="curve" smooth="yes"/>
      <point x="277" y="1127"/>
      <point x="347" y="1234"/>
      <point x="463" y="1290" type="curve" smooth="yes"/>
      <point x="520" y="1318"/>
      <point x="584" y="1332"/>
      <point x="655" y="1332" type="curve" smooth="yes"/>
      <point x="784" y="1332"/>
      <point x="866" y="1281"/>
      <point x="901" y="1209" type="curve" smooth="yes"/>
      <point x="918" y="1173"/>
      <point x="927" y="1134"/>
      <point x="927" y="1091" type="curve" smooth="yes"/>
      <point x="927" y="974"/>
      <point x="851" y="881"/>
      <point x="753" y="817" type="curve" smooth="yes"/>
      <point x="704" y="784"/>
      <point x="637" y="745"/>
      <point x="554" y="700" type="curve" smooth="yes"/>
      <point x="493" y="666" type="line"/>
      <point x="598" y="478"/>
      <point x="730" y="306"/>
      <point x="867" y="183" type="curve"/>
      <point x="927" y="251"/>
      <point x="954" y="346"/>
      <point x="954" y="474" type="curve" smooth="yes"/>
      <point x="954" y="515"/>
      <point x="947" y="555"/>
      <point x="934" y="593" type="curve"/>
      <point x="914" y="595"/>
      <point x="892" y="596"/>
      <point x="869" y="596" type="curve" smooth="yes"/>
      <point x="826" y="596"/>
      <point x="778" y="581"/>
      <point x="754" y="568" type="curve"/>
    </contour>
    <contour>
      <point x="608" y="793"/>
      <point x="695" y="847"/>
      <point x="755" y="931" type="curve" smooth="yes"/>
      <point x="784" y="973"/>
      <point x="799" y="1022"/>
      <point x="799" y="1078" type="curve" smooth="yes"/>
      <point x="799" y="1179"/>
      <point x="755" y="1261"/>
      <point x="638" y="1261" type="curve" smooth="yes"/>
      <point x="541" y="1261"/>
      <point x="465" y="1215"/>
      <point x="425" y="1139" type="curve" smooth="yes"/>
      <point x="405" y="1101"/>
      <point x="395" y="1058"/>
      <point x="395" y="1009" type="curve" smooth="yes"/>
      <point x="395" y="906"/>
      <point x="427" y="801"/>
      <point x="464" y="721" type="curve"/>
    </contour>
    <contour>
      <point x="647" y="219"/>
      <point x="561" y="325"/>
      <point x="497" y="425" type="curve" smooth="yes"/>
      <point x="465" y="474"/>
      <point x="429" y="534"/>
      <point x="388" y="604" type="curve"/>
      <point x="260" y="521"/>
      <point x="186" y="434"/>
      <point x="186" y="317" type="curve" smooth="yes"/>
      <point x="186" y="153"/>
      <point x="305" y="62"/>
      <point x="496" y="62" type="curve" smooth="yes"/>
      <point x="605" y="62"/>
      <point x="695" y="77"/>
      <point x="764" y="108" type="curve"/>
    </contour>
  </outline>
</glyph>
<glyph name="quotesingle" format="1">
  <advance width="450"/>
  <unicode hex="0027"/>
  <note>
	quotesingle
  </note>
  <outline>
    <contour>
      <point x="446" y="1451" type="line"/>
      <point x="315" y="831" type="line"/>
      <point x="223" y="831" type="line"/>
      <point x="298" y="1451" type="line"/>
    </contour>
  </outline>
</glyph>
<glyph name="parenleft" format="1">
  <advance width="734"/>
  <unicode hex="0028"/>
  <note>
	parenleft
  </note>
  <outline>
    <contour>
      <point x="228" y="916"/>
      <point x="387" y="1178"/>
      <point x="538" y="1339" type="curve" smooth="yes"/>
      <point x="613" y="1419"/>
      <point x="671" y="1470"/>
      <point x="711" y="1491" type="curve"/>
      <point x="769" y="1450" type="line"/>
      <point x="698" y="1405"/>
      <point x="562" y="1258"/>
      <point x="447" y="1030" type="curve" smooth="yes"/>
      <point x="390" y="916"/>
      <point x="350" y="789"/>
      <point x="327" y="650" type="curve" smooth="yes"/>
      <point x="316" y="575"/>
      <point x="310" y="503"/>
      <point x="310" y="433" type="curve" smooth="yes"/>
      <point x="310" y="198"/>
      <point x="375" y="7"/>
      <point x="449" y="-111" type="curve" smooth="yes"/>
      <point x="486" y="-170"/>
      <point x="519" y="-212"/>
      <point x="550" y="-236" type="curve"/>
      <point x="479" y="-280" type="line"/>
      <point x="467" y="-280" type="line"/>
      <point x="403" y="-237"/>
      <point x="302" y="-123"/>
      <point x="230" y="78" type="curve" smooth="yes"/>
      <point x="193" y="179"/>
      <point x="175" y="295"/>
      <point x="175" y="428" type="curve" smooth="yes"/>
      <point x="175" y="488"/>
      <point x="179" y="551"/>
      <point x="187" y="617" type="curve" smooth="yes"/>
    </contour>
  </outline>
</glyph>
<glyph name="parenright" format="1">
  <advance width="734"/>
  <unicode hex="0029"/>
  <note>
	parenright
  </note>
  <outline>
    <contour>
      <point x="525" y="312"/>
      <point x="366" y="50"/>
      <point x="215" y="-110" type="curve" smooth="yes"/>
      <point x="139" y="-190"/>
      <point x="81" y="-241"/>
      <point x="41" y="-263" type="curve"/>
      <point x="-16" y="-222" type="line"/>
      <point x="55" y="-177"/>
      <point x="190" y="-30"/>
      <point x="305" y="198" type="curve" smooth="yes"/>
      <point x="362" y="312"/>
      <point x="403" y="439"/>
      <point x="426" y="578" type="curve" smooth="yes"/>
      <point x="437" y="653"/>
      <point x="442" y="726"/>
      <point x="442" y="795" type="curve" smooth="yes"/>
      <point x="442" y="1030"/>
      <point x="377" y="1222"/>
      <point x="304" y="1340" type="curve" smooth="yes"/>
      <point x="267" y="1399"/>
      <point x="234" y="1440"/>
      <point x="203" y="1465" type="curve"/>
      <point x="273" y="1508" type="line"/>
      <point x="286" y="1508" type="line"/>
      <point x="350" y="1465"/>
      <point x="451" y="1351"/>
      <point x="524" y="1150" type="curve" smooth="yes"/>
      <point x="560" y="1049"/>
      <point x="578" y="933"/>
      <point x="578" y="800" type="curve" smooth="yes"/>
      <point x="578" y="741"/>
      <point x="574" y="678"/>
      <point x="565" y="611" type="curve" smooth="yes"/>
    </contour>
  </outline>
</glyph>
<glyph name="asterisk" format="1">
  <advance width="1174"/>
  <unicode hex="002A"/>
  <note>
	asterisk
  </note>
  <outline>
    <contour>
      <point x="519" y="945" type="line"/>
      <point x="627" y="986" type="line"/>
      <point x="529" y="1029" type="line"/>
      <point x="278" y="1152" type="line"/>
      <point x="353" y="1267" type="line"/>
      <point x="570" y="1094" type="line"/>
      <point x="652" y="1025" type="line"/>
      <point x="645" y="1134" type="line"/>
      <point x="643" y="1422" type="line"/>
      <point x="769" y="1421" type="line"/>
      <point x="717" y="1134" type="line"/>
      <point x="694" y="1025" type="line"/>
      <point x="789" y="1094" type="line"/>
      <point x="1042" y="1263" type="line"/>
      <point x="1093" y="1148" type="line"/>
      <point x="819" y="1029" type="line"/>
      <point x="711" y="986" type="line"/>
      <point x="806" y="944" type="line"/>
      <point x="1051" y="822" type="line"/>
      <point x="975" y="709" type="line"/>
      <point x="764" y="880" type="line"/>
      <point x="686" y="949" type="line"/>
      <point x="691" y="844" type="line"/>
      <point x="693" y="556" type="line"/>
      <point x="567" y="557" type="line"/>
      <point x="619" y="844" type="line"/>
      <point x="643" y="949" type="line"/>
      <point x="548" y="881" type="line"/>
      <point x="297" y="713" type="line"/>
      <point x="245" y="828" type="line"/>
    </contour>
  </outline>
</glyph>
<glyph name="plus" format="1">
  <advance width="1174"/>
  <unicode hex="002B"/>
  <note>
	plus
  </note>
  <outline>
    <contour>
      <point x="550" y="615" type="line"/>
      <point x="412" y="610" type="line"/>
      <point x="218" y="610" type="line"/>
      <point x="230" y="719" type="line"/>
      <point x="425" y="719" type="line"/>
      <point x="561" y="711" type="line"/>
      <point x="574" y="864" type="line"/>
      <point x="599" y="1062" type="line"/>
      <point x="716" y="1062" type="line"/>
      <point x="693" y="864" type="line"/>
      <point x="667" y="711" type="line"/>
      <point x="783" y="719" type="line"/>
      <point x="1002" y="719" type="line"/>
      <point x="991" y="610" type="line"/>
      <point x="771" y="610" type="line"/>
      <point x="658" y="615" type="line"/>
      <point x="657" y="603"/>
      <point x="655" y="577"/>
      <point x="652" y="538" type="curve" smooth="yes"/>
      <point x="649" y="507"/>
      <point x="646" y="482"/>
      <point x="645" y="461" type="curve"/>
      <point x="620" y="254" type="line"/>
      <point x="501" y="254" type="line"/>
      <point x="526" y="461" type="line"/>
    </contour>
  </outline>
</glyph>
<glyph name="comma" format="1">
  <advance width="490"/>
  <unicode hex="002C"/>
  <note>
	comma
  </note>
  <outline>
    <contour>
      <point x="195" y="228" type="line"/>
      <point x="291" y="191"/>
      <point x="338" y="86"/>
      <point x="338" y="-23" type="curve" smooth="yes"/>
      <point x="338" y="-147"/>
      <point x="279" y="-261"/>
      <point x="188" y="-341" type="curve" smooth="yes"/>
      <point x="142" y="-382"/>
      <point x="91" y="-412"/>
      <point x="36" y="-431" type="curve"/>
      <point x="-5" y="-377" type="line"/>
      <point x="-3" y="-361" type="line"/>
      <point x="104" y="-309"/>
      <point x="193" y="-202"/>
      <point x="193" y="-59" type="curve" smooth="yes"/>
      <point x="193" y="24"/>
      <point x="148" y="94"/>
      <point x="93" y="114" type="curve"/>
      <point x="93" y="144" type="line"/>
    </contour>
  </outline>
</glyph>
<glyph name="hyphen" format="1">
  <advance width="1093"/>
  <unicode hex="002D"/>
  <note>
	hyphen
  </note>
  <outline>
    <contour>
      <point x="933" y="719" type="line"/>
      <point x="922" y="610" type="line"/>
      <point x="206" y="610" type="line"/>
      <point x="218" y="719" type="line"/>
    </contour>
  </outline>
</glyph>
<glyph name="period" format="1">
  <advance width="452"/>
  <unicode hex="002E"/>
  <note>
	period
  </note>
  <outline>
    <contour>
      <point x="258" y="181"/>
      <point x="284" y="152"/>
      <point x="284" y="108" type="curve" smooth="yes"/>
      <point x="284" y="100"/>
      <point x="284" y="94"/>
      <point x="283" y="90" type="curve"/>
      <point x="274" y="26"/>
      <point x="225" y="-15"/>
      <point x="172" y="-15" type="curve" smooth="yes"/>
      <point x="128" y="-15"/>
      <point x="100" y="12"/>
      <point x="100" y="60" type="curve" smooth="yes"/>
      <point x="100" y="67"/>
      <point x="100" y="73"/>
      <point x="101" y="76" type="curve"/>
      <point x="109" y="136"/>
      <point x="155" y="181"/>
      <point x="206" y="181" type="curve" smooth="yes"/>
    </contour>
  </outline>
</glyph>
<glyph name="slash" format="1">
  <advance width="734"/>
  <unicode hex="002F"/>
  <note>
	slash
  </note>
  <outline>
    <contour>
      <point x="643" y="1373" type="line"/>
      <point x="758" y="1373" type="line"/>
      <point x="15" y="-311" type="line"/>
      <point x="-98" y="-311" type="line"/>
    </contour>
  </outline>
</glyph>
<glyph name="one" format="1">
  <advance width="791"/>
  <unicode hex="0031"/>
  <note>
	one
  </note>
  <outline>
    <contour>
      <point x="300" y="78" type="line"/>
      <point x="410" y="831" type="line"/>
      <point x="382" y="821" type="line" smooth="yes"/>
      <point x="295" y="793"/>
      <point x="230" y="774"/>
      <point x="158" y="759" type="curve"/>
      <point x="149" y="826" type="line"/>
      <point x="258" y="850"/>
      <point x="398" y="924"/>
      <point x="507" y="999" type="curve"/>
      <point x="564" y="983" type="line"/>
      <point x="433" y="79" type="line"/>
      <point x="636" y="60" type="line"/>
      <point x="630" y="0" type="line"/>
      <point x="102" y="0" type="line"/>
      <point x="108" y="60" type="line"/>
    </contour>
  </outline>
</glyph>
<glyph name="two" format="1">
  <advance width="1021"/>
  <unicode hex="0032"/>
  <note>
	two
  </note>
  <outline>
    <contour>
      <point x="43" y="58" type="line"/>
      <point x="423" y="245"/>
      <point x="706" y="475"/>
      <point x="706" y="690" type="curve" smooth="yes"/>
      <point x="706" y="833"/>
      <point x="633" y="905"/>
      <point x="488" y="905" type="curve" smooth="yes"/>
      <point x="365" y="905"/>
      <point x="274" y="847"/>
      <point x="178" y="767" type="curve"/>
      <point x="143" y="829" type="line"/>
      <point x="228" y="918"/>
      <point x="372" y="999"/>
      <point x="537" y="999" type="curve" smooth="yes"/>
      <point x="761" y="999"/>
      <point x="851" y="883"/>
      <point x="851" y="716" type="curve" smooth="yes"/>
      <point x="851" y="492"/>
      <point x="571" y="263"/>
      <point x="212" y="80" type="curve"/>
      <point x="759" y="113" type="line"/>
      <point x="838" y="262" type="line"/>
      <point x="906" y="237" type="line"/>
      <point x="838" y="0" type="line"/>
      <point x="54" y="0" type="line"/>
    </contour>
  </outline>
</glyph>
<glyph name="three" format="1">
  <advance width="931"/>
  <unicode hex="0033"/>
  <note>
	three
  </note>
  <outline>
    <contour>
      <point x="325" y="-201"/>
      <point x="482" y="-144"/>
      <point x="573" y="-40" type="curve" smooth="yes"/>
      <point x="618" y="11"/>
      <point x="641" y="71"/>
      <point x="641" y="139" type="curve" smooth="yes"/>
      <point x="641" y="278"/>
      <point x="559" y="359"/>
      <point x="379" y="360" type="curve"/>
      <point x="371" y="357"/>
      <point x="335" y="347"/>
      <point x="271" y="330" type="curve" smooth="yes"/>
      <point x="227" y="319" type="line"/>
      <point x="236" y="401" type="line"/>
      <point x="479" y="456"/>
      <point x="654" y="571"/>
      <point x="654" y="732" type="curve" smooth="yes"/>
      <point x="654" y="847"/>
      <point x="581" y="904"/>
      <point x="461" y="904" type="curve" smooth="yes"/>
      <point x="342" y="904"/>
      <point x="252" y="858"/>
      <point x="156" y="789" type="curve"/>
      <point x="127" y="858" type="line"/>
      <point x="171" y="901"/>
      <point x="250" y="948"/>
      <point x="354" y="977" type="curve" smooth="yes"/>
      <point x="406" y="992"/>
      <point x="461" y="999"/>
      <point x="518" y="999" type="curve" smooth="yes"/>
      <point x="619" y="999"/>
      <point x="709" y="965"/>
      <point x="761" y="893" type="curve" smooth="yes"/>
      <point x="786" y="856"/>
      <point x="799" y="811"/>
      <point x="799" y="758" type="curve" smooth="yes"/>
      <point x="799" y="658"/>
      <point x="734" y="565"/>
      <point x="638" y="496" type="curve" smooth="yes"/>
      <point x="590" y="461"/>
      <point x="538" y="434"/>
      <point x="482" y="415" type="curve"/>
      <point x="698" y="420"/>
      <point x="787" y="319"/>
      <point x="787" y="163" type="curve" smooth="yes"/>
      <point x="787" y="-6"/>
      <point x="656" y="-149"/>
      <point x="465" y="-224" type="curve" smooth="yes"/>
      <point x="370" y="-262"/>
      <point x="271" y="-281"/>
      <point x="170" y="-281" type="curve" smooth="yes"/>
      <point x="129" y="-281"/>
      <point x="82" y="-278"/>
      <point x="27" y="-271" type="curve"/>
      <point x="36" y="-192" type="line"/>
      <point x="89" y="-198"/>
      <point x="131" y="-201"/>
      <point x="160" y="-201" type="curve" smooth="yes"/>
    </contour>
  </outline>
</glyph>
<glyph name="four" format="1">
  <advance width="1078"/>
  <unicode hex="0034"/>
  <note>
	four
  </note>
  <outline>
    <contour>
      <point x="34" y="65" type="line"/>
      <point x="195" y="285"/>
      <point x="427" y="667"/>
      <point x="635" y="1080" type="curve"/>
      <point x="661" y="1080" type="line"/>
      <point x="759" y="1018" type="line"/>
      <point x="666" y="842"/>
      <point x="506" y="595"/>
      <point x="279" y="255" type="curve"/>
      <point x="267" y="235"/>
      <point x="257" y="221"/>
      <point x="249" y="210" type="curve"/>
      <point x="243" y="200"/>
      <point x="221" y="170"/>
      <point x="182" y="121" type="curve" smooth="yes"/>
      <point x="144" y="71" type="line"/>
      <point x="635" y="89" type="line"/>
      <point x="684" y="469" type="line"/>
      <point x="811" y="508" type="line"/>
      <point x="759" y="99" type="line"/>
      <point x="982" y="109" type="line"/>
      <point x="968" y="0" type="line"/>
      <point x="746" y="0" type="line"/>
      <point x="705" y="-322" type="line"/>
      <point x="580" y="-322" type="line"/>
      <point x="623" y="0" type="line"/>
      <point x="58" y="0" type="line"/>
    </contour>
  </outline>
</glyph>
<glyph name="five" format="1">
  <advance width="954"/>
  <unicode hex="0035"/>
  <note>
	five
  </note>
  <outline>
    <contour>
      <point x="301" y="-227"/>
      <point x="483" y="-153"/>
      <point x="588" y="-29" type="curve" smooth="yes"/>
      <point x="641" y="32"/>
      <point x="667" y="100"/>
      <point x="667" y="175" type="curve" smooth="yes"/>
      <point x="667" y="339"/>
      <point x="588" y="418"/>
      <point x="413" y="418" type="curve" smooth="yes"/>
      <point x="336" y="418"/>
      <point x="255" y="394"/>
      <point x="164" y="359" type="curve"/>
      <point x="131" y="386" type="line"/>
      <point x="273" y="986" type="line"/>
      <point x="791" y="986" type="line"/>
      <point x="808" y="999" type="line"/>
      <point x="899" y="999" type="line"/>
      <point x="859" y="869" type="line"/>
      <point x="362" y="869" type="line"/>
      <point x="254" y="457" type="line"/>
      <point x="313" y="480"/>
      <point x="406" y="499"/>
      <point x="478" y="499" type="curve" smooth="yes"/>
      <point x="609" y="499"/>
      <point x="714" y="455"/>
      <point x="774" y="362" type="curve" smooth="yes"/>
      <point x="803" y="315"/>
      <point x="818" y="258"/>
      <point x="818" y="189" type="curve" smooth="yes"/>
      <point x="818" y="-8"/>
      <point x="669" y="-160"/>
      <point x="461" y="-239" type="curve" smooth="yes"/>
      <point x="357" y="-278"/>
      <point x="252" y="-298"/>
      <point x="146" y="-298" type="curve" smooth="yes"/>
      <point x="100" y="-298"/>
      <point x="63" y="-293"/>
      <point x="34" y="-283" type="curve"/>
      <point x="43" y="-219" type="line"/>
      <point x="68" y="-224"/>
      <point x="95" y="-227"/>
      <point x="122" y="-227" type="curve" smooth="yes"/>
    </contour>
  </outline>
</glyph>
<glyph name="six" format="1">
  <advance width="1076"/>
  <unicode hex="0036"/>
  <note>
	six
  </note>
  <outline>
    <contour>
      <point x="117" y="677"/>
      <point x="252" y="954"/>
      <point x="476" y="1148" type="curve" smooth="yes"/>
      <point x="587" y="1245"/>
      <point x="712" y="1312"/>
      <point x="851" y="1350" type="curve"/>
      <point x="871" y="1291" type="line"/>
      <point x="694" y="1228"/>
      <point x="535" y="1100"/>
      <point x="421" y="944" type="curve" smooth="yes"/>
      <point x="364" y="865"/>
      <point x="321" y="784"/>
      <point x="292" y="700" type="curve"/>
      <point x="368" y="777"/>
      <point x="477" y="840"/>
      <point x="630" y="840" type="curve" smooth="yes"/>
      <point x="777" y="840"/>
      <point x="873" y="776"/>
      <point x="918" y="676" type="curve" smooth="yes"/>
      <point x="941" y="626"/>
      <point x="952" y="570"/>
      <point x="952" y="509" type="curve" smooth="yes"/>
      <point x="952" y="330"/>
      <point x="867" y="157"/>
      <point x="721" y="57" type="curve" smooth="yes"/>
      <point x="648" y="7"/>
      <point x="564" y="-18"/>
      <point x="471" y="-18" type="curve" smooth="yes"/>
      <point x="319" y="-18"/>
      <point x="212" y="60"/>
      <point x="158" y="188" type="curve" smooth="yes"/>
      <point x="131" y="251"/>
      <point x="117" y="323"/>
      <point x="117" y="402" type="curve" smooth="yes"/>
    </contour>
    <contour>
      <point x="814" y="649"/>
      <point x="736" y="755"/>
      <point x="599" y="755" type="curve" smooth="yes"/>
      <point x="483" y="755"/>
      <point x="395" y="712"/>
      <point x="347" y="669" type="curve" smooth="yes"/>
      <point x="323" y="648"/>
      <point x="300" y="624"/>
      <point x="278" y="598" type="curve"/>
      <point x="261" y="525"/>
      <point x="252" y="455"/>
      <point x="252" y="390" type="curve" smooth="yes"/>
      <point x="252" y="187"/>
      <point x="337" y="58"/>
      <point x="501" y="58" type="curve" smooth="yes"/>
      <point x="637" y="58"/>
      <point x="732" y="154"/>
      <point x="779" y="283" type="curve" smooth="yes"/>
      <point x="802" y="348"/>
      <point x="814" y="412"/>
      <point x="814" y="476" type="curve" smooth="yes"/>
    </contour>
  </outline>
</glyph>
<glyph name="seven" format="1">
  <advance width="942"/>
  <unicode hex="0037"/>
  <note>
	seven
  </note>
  <outline>
    <contour>
      <point x="240" y="881" type="line"/>
      <point x="169" y="699" type="line"/>
      <point x="84" y="703" type="line"/>
      <point x="138" y="986" type="line"/>
      <point x="906" y="986" type="line"/>
      <point x="929" y="954" type="line"/>
      <point x="403" y="-271" type="line"/>
      <point x="267" y="-225" type="line"/>
      <point x="826" y="881" type="line"/>
    </contour>
  </outline>
</glyph>
<glyph name="eight" format="1">
  <advance width="1034"/>
  <unicode hex="0038"/>
  <note>
	eight
  </note>
  <outline>
    <contour>
      <point x="337" y="787"/>
      <point x="252" y="886"/>
      <point x="252" y="1009" type="curve" smooth="yes"/>
      <point x="252" y="1137"/>
      <point x="324" y="1240"/>
      <point x="444" y="1295" type="curve" smooth="yes"/>
      <point x="503" y="1322"/>
      <point x="571" y="1336"/>
      <point x="646" y="1336" type="curve" smooth="yes"/>
      <point x="769" y="1336"/>
      <point x="869" y="1290"/>
      <point x="925" y="1206" type="curve" smooth="yes"/>
      <point x="952" y="1164"/>
      <point x="966" y="1115"/>
      <point x="966" y="1058" type="curve" smooth="yes"/>
      <point x="966" y="903"/>
      <point x="848" y="789"/>
      <point x="648" y="694" type="curve"/>
      <point x="820" y="573"/>
      <point x="906" y="453"/>
      <point x="906" y="335" type="curve" smooth="yes"/>
      <point x="906" y="190"/>
      <point x="817" y="81"/>
      <point x="682" y="25" type="curve" smooth="yes"/>
      <point x="615" y="-3"/>
      <point x="543" y="-17"/>
      <point x="467" y="-17" type="curve" smooth="yes"/>
      <point x="343" y="-17"/>
      <point x="224" y="26"/>
      <point x="153" y="118" type="curve" smooth="yes"/>
      <point x="118" y="164"/>
      <point x="100" y="220"/>
      <point x="100" y="287" type="curve" smooth="yes"/>
      <point x="100" y="466"/>
      <point x="245" y="601"/>
      <point x="457" y="692" type="curve"/>
    </contour>
    <contour>
      <point x="837" y="1142"/>
      <point x="799" y="1210"/>
      <point x="737" y="1243" type="curve" smooth="yes"/>
      <point x="706" y="1260"/>
      <point x="671" y="1268"/>
      <point x="632" y="1268" type="curve" smooth="yes"/>
      <point x="536" y="1268"/>
      <point x="454" y="1223"/>
      <point x="410" y="1148" type="curve" smooth="yes"/>
      <point x="387" y="1110"/>
      <point x="376" y="1067"/>
      <point x="376" y="1020" type="curve" smooth="yes"/>
      <point x="376" y="941"/>
      <point x="420" y="875"/>
      <point x="480" y="820" type="curve" smooth="yes"/>
      <point x="510" y="793"/>
      <point x="548" y="763"/>
      <point x="593" y="730" type="curve"/>
      <point x="742" y="794"/>
      <point x="837" y="910"/>
      <point x="837" y="1047" type="curve" smooth="yes"/>
    </contour>
    <contour>
      <point x="590" y="57"/>
      <point x="683" y="102"/>
      <point x="735" y="182" type="curve" smooth="yes"/>
      <point x="761" y="221"/>
      <point x="774" y="266"/>
      <point x="774" y="316" type="curve" smooth="yes"/>
      <point x="774" y="399"/>
      <point x="722" y="473"/>
      <point x="645" y="540" type="curve" smooth="yes"/>
      <point x="606" y="573"/>
      <point x="558" y="609"/>
      <point x="501" y="648" type="curve"/>
      <point x="410" y="608"/>
      <point x="327" y="541"/>
      <point x="277" y="452" type="curve" smooth="yes"/>
      <point x="227" y="363"/>
      <point x="228" y="255"/>
      <point x="268" y="179" type="curve" smooth="yes"/>
      <point x="308" y="102"/>
      <point x="383" y="57"/>
      <point x="487" y="57" type="curve" smooth="yes"/>
    </contour>
  </outline>
</glyph>
<glyph name="nine" format="1">
  <advance width="1071"/>
  <unicode hex="0039"/>
  <note>
	nine
  </note>
  <outline>
    <contour>
      <point x="949" y="302"/>
      <point x="814" y="24"/>
      <point x="590" y="-168" type="curve" smooth="yes"/>
      <point x="478" y="-265"/>
      <point x="353" y="-333"/>
      <point x="214" y="-372" type="curve"/>
      <point x="194" y="-311" type="line"/>
      <point x="370" y="-250"/>
      <point x="532" y="-121"/>
      <point x="648" y="38" type="curve" smooth="yes"/>
      <point x="705" y="117"/>
      <point x="748" y="199"/>
      <point x="777" y="282" type="curve"/>
      <point x="702" y="203"/>
      <point x="587" y="139"/>
      <point x="435" y="139" type="curve" smooth="yes"/>
      <point x="290" y="139"/>
      <point x="192" y="211"/>
      <point x="148" y="316" type="curve" smooth="yes"/>
      <point x="125" y="368"/>
      <point x="114" y="424"/>
      <point x="114" y="483" type="curve" smooth="yes"/>
      <point x="114" y="648"/>
      <point x="193" y="820"/>
      <point x="338" y="922" type="curve" smooth="yes"/>
      <point x="411" y="973"/>
      <point x="496" y="998"/>
      <point x="594" y="998" type="curve" smooth="yes"/>
      <point x="747" y="998"/>
      <point x="855" y="921"/>
      <point x="909" y="797" type="curve" smooth="yes"/>
      <point x="936" y="734"/>
      <point x="949" y="664"/>
      <point x="949" y="587" type="curve" smooth="yes"/>
    </contour>
    <contour>
      <point x="246" y="397"/>
      <point x="284" y="307"/>
      <point x="351" y="260" type="curve" smooth="yes"/>
      <point x="384" y="236"/>
      <point x="423" y="224"/>
      <point x="466" y="224" type="curve" smooth="yes"/>
      <point x="626" y="224"/>
      <point x="717" y="300"/>
      <point x="788" y="383" type="curve"/>
      <point x="804" y="443"/>
      <point x="814" y="526"/>
      <point x="814" y="599" type="curve" smooth="yes"/>
      <point x="814" y="723"/>
      <point x="777" y="824"/>
      <point x="702" y="881" type="curve" smooth="yes"/>
      <point x="665" y="909"/>
      <point x="619" y="923"/>
      <point x="564" y="923" type="curve" smooth="yes"/>
      <point x="431" y="923"/>
      <point x="331" y="828"/>
      <point x="283" y="701" type="curve" smooth="yes"/>
      <point x="258" y="637"/>
      <point x="246" y="574"/>
      <point x="246" y="513" type="curve" smooth="yes"/>
    </contour>
  </outline>
</glyph>
<glyph name="colon" format="1">
  <advance width="452"/>
  <unicode hex="003A"/>
  <note>
	colon
  </note>
  <outline>
    <contour>
      <point x="321" y="877"/>
      <point x="347" y="848"/>
      <point x="347" y="804" type="curve" smooth="yes"/>
      <point x="347" y="796"/>
      <point x="347" y="790"/>
      <point x="346" y="786" type="curve"/>
      <point x="337" y="722"/>
      <point x="288" y="681"/>
      <point x="235" y="681" type="curve" smooth="yes"/>
      <point x="191" y="681"/>
      <point x="163" y="708"/>
      <point x="163" y="756" type="curve" smooth="yes"/>
      <point x="163" y="763"/>
      <point x="163" y="769"/>
      <point x="164" y="772" type="curve"/>
      <point x="172" y="832"/>
      <point x="218" y="877"/>
      <point x="269" y="877" type="curve" smooth="yes"/>
    </contour>
    <contour>
      <point x="241" y="181"/>
      <point x="267" y="152"/>
      <point x="267" y="108" type="curve" smooth="yes"/>
      <point x="267" y="100"/>
      <point x="267" y="94"/>
      <point x="266" y="90" type="curve"/>
      <point x="257" y="26"/>
      <point x="208" y="-15"/>
      <point x="155" y="-15" type="curve" smooth="yes"/>
      <point x="111" y="-15"/>
      <point x="83" y="12"/>
      <point x="83" y="60" type="curve" smooth="yes"/>
      <point x="83" y="67"/>
      <point x="83" y="73"/>
      <point x="84" y="76" type="curve"/>
      <point x="92" y="136"/>
      <point x="138" y="181"/>
      <point x="189" y="181" type="curve" smooth="yes"/>
    </contour>
  </outline>
</glyph>
<glyph name="semicolon" format="1">
  <advance width="452"/>
  <unicode hex="003B"/>
  <note>
	semicolon
  </note>
  <outline>
    <contour>
      <point x="183" y="228" type="line"/>
      <point x="279" y="191"/>
      <point x="326" y="86"/>
      <point x="326" y="-23" type="curve" smooth="yes"/>
      <point x="326" y="-147"/>
      <point x="267" y="-261"/>
      <point x="176" y="-341" type="curve" smooth="yes"/>
      <point x="130" y="-382"/>
      <point x="79" y="-412"/>
      <point x="24" y="-431" type="curve"/>
      <point x="-17" y="-377" type="line"/>
      <point x="-15" y="-361" type="line"/>
      <point x="92" y="-309"/>
      <point x="181" y="-202"/>
      <point x="181" y="-59" type="curve" smooth="yes"/>
      <point x="181" y="24"/>
      <point x="136" y="94"/>
      <point x="81" y="114" type="curve"/>
      <point x="81" y="144" type="line"/>
    </contour>
    <contour>
      <point x="322" y="877"/>
      <point x="348" y="848"/>
      <point x="348" y="804" type="curve" smooth="yes"/>
      <point x="348" y="796"/>
      <point x="348" y="790"/>
      <point x="347" y="786" type="curve"/>
      <point x="338" y="722"/>
      <point x="289" y="681"/>
      <point x="236" y="681" type="curve" smooth="yes"/>
      <point x="192" y="681"/>
      <point x="164" y="708"/>
      <point x="164" y="756" type="curve" smooth="yes"/>
      <point x="164" y="763"/>
      <point x="164" y="769"/>
      <point x="165" y="772" type="curve"/>
      <point x="173" y="832"/>
      <point x="219" y="877"/>
      <point x="270" y="877" type="curve" smooth="yes"/>
    </contour>
  </outline>
</glyph>
<glyph name="less" format="1">
  <advance width="1176"/>
  <unicode hex="003C"/>
  <note>
	less
  </note>
  <outline>
    <contour>
      <point x="1049" y="1139" type="line"/>
      <point x="1034" y="1004" type="line"/>
      <point x="304" y="646" type="line"/>
      <point x="949" y="286" type="line"/>
      <point x="933" y="151" type="line"/>
      <point x="170" y="601" type="line"/>
      <point x="181" y="690" type="line"/>
    </contour>
  </outline>
</glyph>
<glyph name="equal" format="1">
  <advance width="914"/>
  <unicode hex="003D"/>
  <note>
	equal
  </note>
  <outline>
    <contour>
      <point x="844" y="851" type="line"/>
      <point x="832" y="744" type="line"/>
      <point x="132" y="744" type="line"/>
      <point x="143" y="851" type="line"/>
    </contour>
    <contour>
      <point x="783" y="413" type="line"/>
      <point x="771" y="305" type="line"/>
      <point x="71" y="305" type="line"/>
      <point x="83" y="413" type="line"/>
    </contour>
  </outline>
</glyph>
<glyph name="greater" format="1">
  <advance width="1176"/>
  <unicode hex="003E"/>
  <note>
	greater
  </note>
  <outline>
    <contour>
      <point x="186" y="154" type="line"/>
      <point x="201" y="288" type="line"/>
      <point x="931" y="647" type="line"/>
      <point x="286" y="1006" type="line"/>
      <point x="302" y="1141" type="line"/>
      <point x="1065" y="691" type="line"/>
      <point x="1054" y="603" type="line"/>
    </contour>
  </outline>
</glyph>
<glyph name="question" format="1">
  <advance width="877"/>
  <unicode hex="003F"/>
  <note>
	question
  </note>
  <outline>
    <contour>
      <point x="286" y="216"/>
      <point x="312" y="187"/>
      <point x="312" y="143" type="curve" smooth="yes"/>
      <point x="312" y="135"/>
      <point x="312" y="129"/>
      <point x="311" y="125" type="curve"/>
      <point x="302" y="61"/>
      <point x="253" y="20"/>
      <point x="200" y="20" type="curve" smooth="yes"/>
      <point x="156" y="20"/>
      <point x="128" y="47"/>
      <point x="128" y="95" type="curve" smooth="yes"/>
      <point x="128" y="102"/>
      <point x="128" y="108"/>
      <point x="129" y="111" type="curve"/>
      <point x="137" y="171"/>
      <point x="183" y="216"/>
      <point x="234" y="216" type="curve" smooth="yes"/>
    </contour>
    <contour>
      <point x="301" y="924"/>
      <point x="669" y="948"/>
      <point x="726" y="1218" type="curve" smooth="yes"/>
      <point x="756" y="1362"/>
      <point x="685" y="1455"/>
      <point x="502" y="1455" type="curve" smooth="yes"/>
      <point x="422" y="1455"/>
      <point x="322" y="1431"/>
      <point x="238" y="1382" type="curve"/>
      <point x="228" y="1458" type="line"/>
      <point x="297" y="1509"/>
      <point x="404" y="1562"/>
      <point x="558" y="1562" type="curve" smooth="yes"/>
      <point x="819" y="1562"/>
      <point x="918" y="1439"/>
      <point x="872" y="1221" type="curve" smooth="yes"/>
      <point x="804" y="900"/>
      <point x="358" y="838"/>
      <point x="297" y="548" type="curve" smooth="yes"/>
      <point x="290" y="514"/>
      <point x="293" y="501"/>
      <point x="289" y="462" type="curve"/>
      <point x="221" y="462" type="line"/>
      <point x="220" y="506"/>
      <point x="222" y="545"/>
      <point x="230" y="584" type="curve" smooth="yes"/>
    </contour>
  </outline>
</glyph>
<glyph name="at" format="1">
  <advance width="1693"/>
  <unicode hex="0040"/>
  <note>
	at
  </note>
  <outline>
    <contour>
      <point x="1263" y="1329"/>
      <point x="1442" y="1239"/>
      <point x="1536" y="1075" type="curve" smooth="yes"/>
      <point x="1583" y="992"/>
      <point x="1606" y="895"/>
      <point x="1606" y="782" type="curve" smooth="yes"/>
      <point x="1606" y="478"/>
      <point x="1489" y="237"/>
      <point x="1330" y="112" type="curve" smooth="yes"/>
      <point x="1251" y="49"/>
      <point x="1172" y="18"/>
      <point x="1094" y="18" type="curve" smooth="yes"/>
      <point x="1043" y="18"/>
      <point x="1021" y="48"/>
      <point x="1014" y="93" type="curve" smooth="yes"/>
      <point x="1011" y="115"/>
      <point x="1009" y="144"/>
      <point x="1009" y="180" type="curve" smooth="yes"/>
      <point x="1009" y="223"/>
      <point x="1024" y="326"/>
      <point x="1049" y="427" type="curve"/>
      <point x="958" y="203"/>
      <point x="829" y="6"/>
      <point x="708" y="6" type="curve" smooth="yes"/>
      <point x="627" y="6"/>
      <point x="550" y="58"/>
      <point x="504" y="167" type="curve" smooth="yes"/>
      <point x="481" y="222"/>
      <point x="469" y="289"/>
      <point x="469" y="368" type="curve" smooth="yes"/>
      <point x="469" y="547"/>
      <point x="537" y="736"/>
      <point x="677" y="852" type="curve" smooth="yes"/>
      <point x="747" y="910"/>
      <point x="832" y="939"/>
      <point x="933" y="939" type="curve" smooth="yes"/>
      <point x="993" y="939"/>
      <point x="1084" y="922"/>
      <point x="1129" y="893" type="curve"/>
      <point x="1239" y="914" type="line"/>
      <point x="1204" y="781"/>
      <point x="1162" y="550"/>
      <point x="1142" y="378" type="curve" smooth="yes"/>
      <point x="1132" y="286"/>
      <point x="1127" y="222"/>
      <point x="1127" y="185" type="curve" smooth="yes"/>
      <point x="1127" y="175"/>
      <point x="1127" y="168"/>
      <point x="1127" y="165" type="curve"/>
      <point x="1130" y="137"/>
      <point x="1137" y="118"/>
      <point x="1162" y="118" type="curve" smooth="yes"/>
      <point x="1265" y="118"/>
      <point x="1384" y="245"/>
      <point x="1454" y="436" type="curve" smooth="yes"/>
      <point x="1489" y="531"/>
      <point x="1506" y="631"/>
      <point x="1506" y="734" type="curve" smooth="yes"/>
      <point x="1506" y="969"/>
      <point x="1404" y="1119"/>
      <point x="1245" y="1187" type="curve" smooth="yes"/>
      <point x="1165" y="1221"/>
      <point x="1075" y="1238"/>
      <point x="975" y="1238" type="curve" smooth="yes"/>
      <point x="668" y="1238"/>
      <point x="425" y="1058"/>
      <point x="298" y="782" type="curve" smooth="yes"/>
      <point x="235" y="644"/>
      <point x="203" y="496"/>
      <point x="203" y="337" type="curve" smooth="yes"/>
      <point x="203" y="-83"/>
      <point x="414" y="-273"/>
      <point x="775" y="-273" type="curve" smooth="yes"/>
      <point x="895" y="-273"/>
      <point x="1036" y="-240"/>
      <point x="1096" y="-208" type="curve"/>
      <point x="1117" y="-268" type="line"/>
      <point x="1037" y="-329"/>
      <point x="904" y="-368"/>
      <point x="759" y="-368" type="curve" smooth="yes"/>
      <point x="488" y="-368"/>
      <point x="290" y="-273"/>
      <point x="183" y="-77" type="curve" smooth="yes"/>
      <point x="130" y="21"/>
      <point x="103" y="142"/>
      <point x="103" y="287" type="curve" smooth="yes"/>
      <point x="103" y="692"/>
      <point x="282" y="1022"/>
      <point x="565" y="1198" type="curve" smooth="yes"/>
      <point x="706" y="1285"/>
      <point x="862" y="1329"/>
      <point x="1031" y="1329" type="curve" smooth="yes"/>
    </contour>
    <contour>
      <point x="768" y="118"/>
      <point x="811" y="152"/>
      <point x="859" y="220" type="curve" smooth="yes"/>
      <point x="955" y="356"/>
      <point x="1048" y="584"/>
      <point x="1096" y="783" type="curve"/>
      <point x="1063" y="827"/>
      <point x="982" y="853"/>
      <point x="923" y="853" type="curve" smooth="yes"/>
      <point x="763" y="853"/>
      <point x="663" y="748"/>
      <point x="619" y="606" type="curve" smooth="yes"/>
      <point x="597" y="535"/>
      <point x="586" y="460"/>
      <point x="586" y="382" type="curve" smooth="yes"/>
      <point x="586" y="273"/>
      <point x="611" y="192"/>
      <point x="655" y="150" type="curve" smooth="yes"/>
      <point x="676" y="129"/>
      <point x="702" y="118"/>
      <point x="731" y="118" type="curve" smooth="yes"/>
    </contour>
  </outline>
</glyph>
<glyph name="A" format="1">
  <advance width="1154"/>
  <unicode hex="0041"/>
  <note>
	A
  </note>
  <outline>
    <contour>
      <point x="764" y="1309" type="line"/>
      <point x="989" y="83" type="line"/>
      <point x="1134" y="59" type="line"/>
      <point x="1130" y="0" type="line"/>
      <point x="697" y="0" type="line"/>
      <point x="701" y="59" type="line"/>
      <point x="860" y="80" type="line"/>
      <point x="807" y="396" type="line"/>
      <point x="298" y="396" type="line"/>
      <point x="149" y="81" type="line"/>
      <point x="306" y="59" type="line"/>
      <point x="302" y="0" type="line"/>
      <point x="-103" y="0" type="line"/>
      <point x="-96" y="59" type="line"/>
      <point x="23" y="80" type="line"/>
      <point x="632" y="1309" type="line"/>
    </contour>
    <contour>
      <point x="793" y="479" type="line"/>
      <point x="690" y="1095" type="line"/>
      <point x="679" y="1196" type="line"/>
      <point x="338" y="479" type="line"/>
    </contour>
  </outline>
</glyph>
<glyph name="D" format="1">
  <advance width="1222"/>
  <unicode hex="0044"/>
  <note>
	D
  </note>
  <outline>
    <contour>
      <point x="157" y="81" type="line"/>
      <point x="302" y="1223" type="line"/>
      <point x="185" y="1239" type="line"/>
      <point x="193" y="1309" type="line"/>
      <point x="420" y="1309" type="line" smooth="yes"/>
      <point x="445" y="1309"/>
      <point x="484" y="1311"/>
      <point x="535" y="1316" type="curve" smooth="yes"/>
      <point x="592" y="1321"/>
      <point x="637" y="1323"/>
      <point x="668" y="1323" type="curve" smooth="yes"/>
      <point x="1009" y="1323"/>
      <point x="1163" y="1121"/>
      <point x="1163" y="778" type="curve" smooth="yes"/>
      <point x="1163" y="481"/>
      <point x="1044" y="224"/>
      <point x="841" y="85" type="curve" smooth="yes"/>
      <point x="739" y="16"/>
      <point x="623" y="-17"/>
      <point x="493" y="-14" type="curve" smooth="yes"/>
      <point x="456" y="-13"/>
      <point x="424" y="-11"/>
      <point x="396" y="-8" type="curve" smooth="yes"/>
      <point x="356" y="-4"/>
      <point x="262" y="0"/>
      <point x="215" y="0" type="curve" smooth="yes"/>
      <point x="22" y="0" type="line"/>
      <point x="28" y="59" type="line"/>
    </contour>
    <contour>
      <point x="288" y="91" type="line"/>
      <point x="357" y="79"/>
      <point x="469" y="68"/>
      <point x="529" y="68" type="curve"/>
      <point x="748" y="80"/>
      <point x="903" y="228"/>
      <point x="977" y="441" type="curve" smooth="yes"/>
      <point x="1051" y="654"/>
      <point x="1042" y="913"/>
      <point x="987" y="1047" type="curve" smooth="yes"/>
      <point x="932" y="1181"/>
      <point x="821" y="1242"/>
      <point x="630" y="1242" type="curve" smooth="yes"/>
      <point x="574" y="1242"/>
      <point x="494" y="1234"/>
      <point x="431" y="1226" type="curve"/>
    </contour>
  </outline>
</glyph>
<glyph name="G" format="1">
  <advance width="1154"/>
  <unicode hex="0047"/>
  <note>
	G
  </note>
  <outline>
    <contour>
      <point x="873" y="1323"/>
      <point x="970" y="1302"/>
      <point x="1065" y="1275" type="curve" smooth="yes"/>
      <point x="1097" y="1265" type="line"/>
      <point x="1048" y="1010" type="line"/>
      <point x="965" y="1010" type="line"/>
      <point x="961" y="1183" type="line"/>
      <point x="908" y="1220"/>
      <point x="841" y="1241"/>
      <point x="705" y="1241" type="curve" smooth="yes"/>
      <point x="501" y="1241"/>
      <point x="353" y="1089"/>
      <point x="279" y="881" type="curve" smooth="yes"/>
      <point x="242" y="776"/>
      <point x="223" y="671"/>
      <point x="223" y="564" type="curve" smooth="yes"/>
      <point x="223" y="393"/>
      <point x="269" y="234"/>
      <point x="370" y="138" type="curve" smooth="yes"/>
      <point x="420" y="90"/>
      <point x="484" y="66"/>
      <point x="561" y="66" type="curve" smooth="yes"/>
      <point x="669" y="66"/>
      <point x="797" y="98"/>
      <point x="857" y="153" type="curve"/>
      <point x="911" y="530" type="line"/>
      <point x="669" y="542" type="line"/>
      <point x="678" y="622" type="line"/>
      <point x="1056" y="622" type="line"/>
      <point x="980" y="81" type="line"/>
      <point x="961" y="79"/>
      <point x="935" y="73"/>
      <point x="900" y="62" type="curve"/>
      <point x="898" y="61"/>
      <point x="888" y="57"/>
      <point x="870" y="52" type="curve" smooth="yes"/>
      <point x="775" y="24"/>
      <point x="730" y="10"/>
      <point x="647" y="-4" type="curve" smooth="yes"/>
      <point x="606" y="-11"/>
      <point x="564" y="-15"/>
      <point x="523" y="-15" type="curve" smooth="yes"/>
      <point x="324" y="-15"/>
      <point x="193" y="107"/>
      <point x="133" y="279" type="curve" smooth="yes"/>
      <point x="102" y="365"/>
      <point x="87" y="456"/>
      <point x="87" y="553" type="curve" smooth="yes"/>
      <point x="87" y="856"/>
      <point x="213" y="1099"/>
      <point x="406" y="1227" type="curve" smooth="yes"/>
      <point x="503" y="1291"/>
      <point x="607" y="1323"/>
      <point x="720" y="1323" type="curve" smooth="yes"/>
    </contour>
  </outline>
</glyph>
<glyph name="H" format="1">
  <advance width="1302"/>
  <unicode hex="0048"/>
  <note>
	H
  </note>
  <outline>
    <contour>
      <point x="912" y="82" type="line"/>
      <point x="979" y="624" type="line"/>
      <point x="355" y="624" type="line"/>
      <point x="287" y="81" type="line"/>
      <point x="421" y="60" type="line"/>
      <point x="416" y="0" type="line"/>
      <point x="23" y="0" type="line"/>
      <point x="29" y="59" type="line"/>
      <point x="158" y="81" type="line"/>
      <point x="302" y="1223" type="line"/>
      <point x="185" y="1239" type="line"/>
      <point x="193" y="1309" type="line"/>
      <point x="568" y="1309" type="line"/>
      <point x="560" y="1239" type="line"/>
      <point x="431" y="1223" type="line"/>
      <point x="366" y="714" type="line"/>
      <point x="990" y="714" type="line"/>
      <point x="1054" y="1223" type="line"/>
      <point x="927" y="1239" type="line"/>
      <point x="933" y="1309" type="line"/>
      <point x="1312" y="1309" type="line"/>
      <point x="1304" y="1239" type="line"/>
      <point x="1182" y="1223" type="line"/>
      <point x="1040" y="82" type="line"/>
      <point x="1173" y="59" type="line"/>
      <point x="1167" y="0" type="line"/>
      <point x="769" y="0" type="line"/>
      <point x="774" y="60" type="line"/>
    </contour>
  </outline>
</glyph>
<glyph name="K" format="1">
  <advance width="1158"/>
  <unicode hex="004B"/>
  <note>
	K
  </note>
  <outline>
    <contour>
      <point x="676" y="347"/>
      <point x="643" y="402"/>
      <point x="602" y="474" type="curve" smooth="yes"/>
      <point x="592" y="492"/>
      <point x="578" y="516"/>
      <point x="560" y="547" type="curve" smooth="yes"/>
      <point x="542" y="578"/>
      <point x="528" y="602"/>
      <point x="518" y="619" type="curve"/>
      <point x="329" y="416" type="line"/>
      <point x="287" y="81" type="line"/>
      <point x="421" y="60" type="line"/>
      <point x="416" y="0" type="line"/>
      <point x="23" y="0" type="line"/>
      <point x="29" y="59" type="line"/>
      <point x="158" y="81" type="line"/>
      <point x="302" y="1223" type="line"/>
      <point x="185" y="1239" type="line"/>
      <point x="193" y="1309" type="line"/>
      <point x="568" y="1309" type="line"/>
      <point x="560" y="1239" type="line"/>
      <point x="431" y="1223" type="line"/>
      <point x="346" y="547" type="line"/>
      <point x="951" y="1223" type="line"/>
      <point x="831" y="1239" type="line"/>
      <point x="839" y="1309" type="line"/>
      <point x="1192" y="1309" type="line"/>
      <point x="1182" y="1239" type="line"/>
      <point x="1079" y="1224" type="line"/>
      <point x="598" y="705" type="line"/>
      <point x="606" y="692"/>
      <point x="616" y="676"/>
      <point x="627" y="657" type="curve" smooth="yes"/>
      <point x="638" y="638"/>
      <point x="652" y="615"/>
      <point x="667" y="590" type="curve" smooth="yes"/>
      <point x="736" y="475"/>
      <point x="784" y="396"/>
      <point x="813" y="352" type="curve" smooth="yes"/>
      <point x="871" y="259"/>
      <point x="912" y="195"/>
      <point x="936" y="162" type="curve" smooth="yes"/>
      <point x="959" y="128"/>
      <point x="980" y="106"/>
      <point x="997" y="95" type="curve"/>
      <point x="1113" y="64" type="line"/>
      <point x="1104" y="0" type="line"/>
      <point x="898" y="0" type="line"/>
      <point x="885" y="2"/>
      <point x="867" y="20"/>
      <point x="846" y="54" type="curve" smooth="yes"/>
      <point x="824" y="87"/>
      <point x="795" y="137"/>
      <point x="759" y="202" type="curve" smooth="yes"/>
      <point x="743" y="231"/>
      <point x="723" y="266"/>
      <point x="699" y="308" type="curve" smooth="yes"/>
    </contour>
  </outline>
</glyph>
<glyph name="L" format="1">
  <advance width="1004"/>
  <unicode hex="004C"/>
  <note>
	L
  </note>
  <outline>
    <contour>
      <point x="158" y="81" type="line"/>
      <point x="302" y="1223" type="line"/>
      <point x="185" y="1239" type="line"/>
      <point x="193" y="1309" type="line"/>
      <point x="589" y="1309" type="line"/>
      <point x="582" y="1239" type="line"/>
      <point x="431" y="1223" type="line"/>
      <point x="287" y="81" type="line"/>
      <point x="756" y="89" type="line"/>
      <point x="863" y="386" type="line"/>
      <point x="941" y="371" type="line"/>
      <point x="858" y="0" type="line"/>
      <point x="24" y="0" type="line"/>
      <point x="29" y="60" type="line"/>
    </contour>
  </outline>
</glyph>
<glyph name="M" format="1">
  <advance width="1611"/>
  <unicode hex="004D"/>
  <note>
	M
  </note>
  <outline>
    <contour>
      <point x="113" y="81" type="line"/>
      <point x="397" y="1223" type="line"/>
      <point x="238" y="1239" type="line"/>
      <point x="246" y="1309" type="line"/>
      <point x="587" y="1309" type="line"/>
      <point x="740" y="398" type="line"/>
      <point x="766" y="206" type="line"/>
      <point x="854" y="395" type="line"/>
      <point x="895" y="500"/>
      <point x="955" y="628"/>
      <point x="1066" y="857" type="curve"/>
      <point x="1074" y="876"/>
      <point x="1095" y="920"/>
      <point x="1129" y="991" type="curve" smooth="yes"/>
      <point x="1197" y="1132"/>
      <point x="1243" y="1238"/>
      <point x="1272" y="1309" type="curve"/>
      <point x="1594" y="1309" type="line"/>
      <point x="1587" y="1239" type="line"/>
      <point x="1430" y="1223" type="line"/>
      <point x="1397" y="82" type="line"/>
      <point x="1543" y="60" type="line"/>
      <point x="1537" y="0" type="line"/>
      <point x="1101" y="0" type="line"/>
      <point x="1108" y="60" type="line"/>
      <point x="1268" y="80" type="line"/>
      <point x="1303" y="875" type="line"/>
      <point x="1328" y="1238" type="line"/>
      <point x="1192" y="917" type="line"/>
      <point x="770" y="-3" type="line"/>
      <point x="696" y="-15" type="line"/>
      <point x="541" y="896" type="line"/>
      <point x="482" y="1237" type="line"/>
      <point x="411" y="889" type="line"/>
      <point x="219" y="81" type="line"/>
      <point x="391" y="60" type="line"/>
      <point x="386" y="0" type="line"/>
      <point x="-42" y="0" type="line"/>
      <point x="-35" y="60" type="line"/>
    </contour>
  </outline>
</glyph>
<glyph name="N" format="1">
  <advance width="1298"/>
  <unicode hex="004E"/>
  <note>
	N
  </note>
  <outline>
    <contour>
      <point x="152" y="79" type="line"/>
      <point x="301" y="1223" type="line"/>
      <point x="175" y="1239" type="line"/>
      <point x="187" y="1309" type="line"/>
      <point x="440" y="1309" type="line"/>
      <point x="885" y="322" type="line"/>
      <point x="953" y="126" type="line"/>
      <point x="1083" y="1224" type="line"/>
      <point x="944" y="1239" type="line"/>
      <point x="953" y="1309" type="line"/>
      <point x="1325" y="1309" type="line"/>
      <point x="1318" y="1239" type="line"/>
      <point x="1186" y="1223" type="line"/>
      <point x="1018" y="0" type="line"/>
      <point x="894" y="0" type="line"/>
      <point x="452" y="979" type="line"/>
      <point x="384" y="1176" type="line"/>
      <point x="262" y="81" type="line"/>
      <point x="409" y="60" type="line"/>
      <point x="403" y="0" type="line"/>
      <point x="26" y="0" type="line"/>
      <point x="31" y="59" type="line"/>
    </contour>
  </outline>
</glyph>
<glyph name="P" format="1">
  <advance width="1051"/>
  <unicode hex="0050"/>
  <note>
	P
  </note>
  <outline>
    <contour>
      <point x="158" y="81" type="line"/>
      <point x="301" y="1223" type="line"/>
      <point x="185" y="1239" type="line"/>
      <point x="193" y="1309" type="line"/>
      <point x="388" y="1309" type="line" smooth="yes"/>
      <point x="425" y="1309"/>
      <point x="469" y="1312"/>
      <point x="519" y="1317" type="curve" smooth="yes"/>
      <point x="576" y="1322"/>
      <point x="619" y="1324"/>
      <point x="648" y="1324" type="curve" smooth="yes"/>
      <point x="904" y="1324"/>
      <point x="1041" y="1210"/>
      <point x="1041" y="978" type="curve" smooth="yes"/>
      <point x="1041" y="766"/>
      <point x="938" y="607"/>
      <point x="778" y="528" type="curve" smooth="yes"/>
      <point x="697" y="488"/>
      <point x="609" y="468"/>
      <point x="513" y="468" type="curve" smooth="yes"/>
      <point x="456" y="468"/>
      <point x="397" y="471"/>
      <point x="335" y="476" type="curve"/>
      <point x="288" y="81" type="line"/>
      <point x="446" y="60" type="line"/>
      <point x="440" y="0" type="line"/>
      <point x="23" y="0" type="line"/>
      <point x="29" y="59" type="line"/>
    </contour>
    <contour>
      <point x="776" y="553"/>
      <point x="904" y="697"/>
      <point x="904" y="983" type="curve" smooth="yes"/>
      <point x="904" y="1155"/>
      <point x="830" y="1241"/>
      <point x="642" y="1241" type="curve" smooth="yes"/>
      <point x="590" y="1241"/>
      <point x="496" y="1233"/>
      <point x="432" y="1224" type="curve"/>
      <point x="345" y="565" type="line"/>
      <point x="397" y="556"/>
      <point x="467" y="550"/>
      <point x="519" y="550" type="curve" smooth="yes"/>
    </contour>
  </outline>
</glyph>
<glyph name="Q" format="1">
  <advance width="1191"/>
  <unicode hex="0051"/>
  <note>
	Q
  </note>
  <outline>
    <contour>
      <point x="880" y="1327"/>
      <point x="1010" y="1219"/>
      <point x="1074" y="1048" type="curve" smooth="yes"/>
      <point x="1105" y="963"/>
      <point x="1121" y="868"/>
      <point x="1121" y="763" type="curve" smooth="yes"/>
      <point x="1121" y="486"/>
      <point x="1023" y="247"/>
      <point x="860" y="108" type="curve" smooth="yes"/>
      <point x="779" y="38"/>
      <point x="687" y="-2"/>
      <point x="584" y="-13" type="curve"/>
      <point x="587" y="-148"/>
      <point x="685" y="-187"/>
      <point x="840" y="-187" type="curve" smooth="yes"/>
      <point x="900" y="-187"/>
      <point x="984" y="-168"/>
      <point x="1033" y="-143" type="curve"/>
      <point x="1035" y="-236" type="line"/>
      <point x="988" y="-273"/>
      <point x="885" y="-308"/>
      <point x="796" y="-308" type="curve" smooth="yes"/>
      <point x="688" y="-308"/>
      <point x="592" y="-271"/>
      <point x="536" y="-198" type="curve" smooth="yes"/>
      <point x="508" y="-162"/>
      <point x="494" y="-117"/>
      <point x="494" y="-64" type="curve" smooth="yes"/>
      <point x="494" y="-51"/>
      <point x="496" y="-34"/>
      <point x="499" y="-15" type="curve"/>
      <point x="327" y="-4"/>
      <point x="204" y="103"/>
      <point x="143" y="270" type="curve" smooth="yes"/>
      <point x="112" y="353"/>
      <point x="97" y="446"/>
      <point x="97" y="549" type="curve" smooth="yes"/>
      <point x="97" y="844"/>
      <point x="209" y="1093"/>
      <point x="390" y="1227" type="curve" smooth="yes"/>
      <point x="481" y="1294"/>
      <point x="582" y="1327"/>
      <point x="693" y="1327" type="curve" smooth="yes"/>
    </contour>
    <contour>
      <point x="986" y="937"/>
      <point x="939" y="1093"/>
      <point x="845" y="1177" type="curve" smooth="yes"/>
      <point x="798" y="1219"/>
      <point x="740" y="1240"/>
      <point x="672" y="1240" type="curve" smooth="yes"/>
      <point x="507" y="1240"/>
      <point x="366" y="1119"/>
      <point x="288" y="915" type="curve" smooth="yes"/>
      <point x="249" y="813"/>
      <point x="229" y="697"/>
      <point x="229" y="568" type="curve" smooth="yes"/>
      <point x="229" y="367"/>
      <point x="280" y="212"/>
      <point x="376" y="129" type="curve" smooth="yes"/>
      <point x="424" y="87"/>
      <point x="481" y="66"/>
      <point x="548" y="66" type="curve" smooth="yes"/>
      <point x="712" y="66"/>
      <point x="851" y="188"/>
      <point x="928" y="392" type="curve" smooth="yes"/>
      <point x="967" y="494"/>
      <point x="986" y="609"/>
      <point x="986" y="736" type="curve" smooth="yes"/>
    </contour>
  </outline>
</glyph>
<glyph name="R" format="1">
  <advance width="1143"/>
  <unicode hex="0052"/>
  <note>
	R
  </note>
  <outline>
    <contour>
      <point x="158" y="81" type="line"/>
      <point x="302" y="1223" type="line"/>
      <point x="185" y="1239" type="line"/>
      <point x="193" y="1309" type="line"/>
      <point x="398" y="1309" type="line" smooth="yes"/>
      <point x="421" y="1309"/>
      <point x="458" y="1311"/>
      <point x="509" y="1316" type="curve" smooth="yes"/>
      <point x="558" y="1321"/>
      <point x="595" y="1323"/>
      <point x="619" y="1323" type="curve" smooth="yes"/>
      <point x="812" y="1323"/>
      <point x="930" y="1281"/>
      <point x="987" y="1193" type="curve" smooth="yes"/>
      <point x="1016" y="1148"/>
      <point x="1030" y="1091"/>
      <point x="1030" y="1020" type="curve" smooth="yes"/>
      <point x="1030" y="881"/>
      <point x="972" y="762"/>
      <point x="868" y="681" type="curve" smooth="yes"/>
      <point x="816" y="640"/>
      <point x="755" y="611"/>
      <point x="686" y="593" type="curve"/>
      <point x="733" y="560"/>
      <point x="798" y="459"/>
      <point x="881" y="290" type="curve" smooth="yes"/>
      <point x="910" y="227" type="line" smooth="yes"/>
      <point x="935" y="173"/>
      <point x="953" y="137"/>
      <point x="965" y="118" type="curve" smooth="yes"/>
      <point x="988" y="80"/>
      <point x="1014" y="69"/>
      <point x="1089" y="68" type="curve"/>
      <point x="1086" y="0" type="line"/>
      <point x="923" y="0" type="line" smooth="yes"/>
      <point x="908" y="0"/>
      <point x="895" y="6"/>
      <point x="882" y="17" type="curve" smooth="yes"/>
      <point x="869" y="28"/>
      <point x="855" y="50"/>
      <point x="839" y="81" type="curve" smooth="yes"/>
      <point x="822" y="112"/>
      <point x="802" y="156"/>
      <point x="778" y="215" type="curve" smooth="yes"/>
      <point x="714" y="366"/>
      <point x="674" y="455"/>
      <point x="622" y="525" type="curve" smooth="yes"/>
      <point x="595" y="560"/>
      <point x="570" y="577"/>
      <point x="545" y="577" type="curve" smooth="yes"/>
      <point x="424" y="577" type="line"/>
      <point x="341" y="577" type="line"/>
      <point x="283" y="81" type="line"/>
      <point x="445" y="60" type="line"/>
      <point x="440" y="0" type="line"/>
      <point x="36" y="0" type="line"/>
      <point x="42" y="59" type="line"/>
    </contour>
    <contour>
      <point x="704" y="665"/>
      <point x="807" y="733"/>
      <point x="860" y="837" type="curve" smooth="yes"/>
      <point x="887" y="889"/>
      <point x="900" y="947"/>
      <point x="900" y="1010" type="curve" smooth="yes"/>
      <point x="900" y="1117"/>
      <point x="867" y="1183"/>
      <point x="779" y="1216" type="curve" smooth="yes"/>
      <point x="734" y="1233"/>
      <point x="674" y="1241"/>
      <point x="598" y="1241" type="curve" smooth="yes"/>
      <point x="567" y="1241"/>
      <point x="470" y="1234"/>
      <point x="427" y="1227" type="curve"/>
      <point x="351" y="659" type="line"/>
      <point x="380" y="657"/>
      <point x="431" y="656"/>
      <point x="505" y="656" type="curve" smooth="yes"/>
      <point x="542" y="656"/>
      <point x="564" y="656"/>
      <point x="572" y="657" type="curve"/>
    </contour>
  </outline>
</glyph>
<glyph name="T" format="1">
  <advance width="1053"/>
  <unicode hex="0054"/>
  <note>
	T
  </note>
  <outline>
    <contour>
      <point x="396" y="81" type="line"/>
      <point x="544" y="1234" type="line"/>
      <point x="219" y="1220" type="line"/>
      <point x="148" y="926" type="line"/>
      <point x="72" y="924" type="line"/>
      <point x="134" y="1309" type="line"/>
      <point x="1112" y="1309" type="line"/>
      <point x="1060" y="924" type="line"/>
      <point x="987" y="924" type="line"/>
      <point x="1002" y="1220" type="line"/>
      <point x="674" y="1234" type="line"/>
      <point x="525" y="81" type="line"/>
      <point x="740" y="64" type="line"/>
      <point x="734" y="0" type="line"/>
      <point x="181" y="0" type="line"/>
      <point x="186" y="64" type="line"/>
    </contour>
  </outline>
</glyph>
<glyph name="V" format="1">
  <advance width="1039"/>
  <unicode hex="0056"/>
  <note>
	V
  </note>
  <outline>
    <contour>
      <point x="53" y="1239" type="line"/>
      <point x="59" y="1309" type="line"/>
      <point x="473" y="1309" type="line"/>
      <point x="466" y="1239" type="line"/>
      <point x="310" y="1223" type="line"/>
      <point x="436" y="386" type="line"/>
      <point x="470" y="114" type="line"/>
      <point x="575" y="386" type="line"/>
      <point x="944" y="1223" type="line"/>
      <point x="816" y="1240" type="line"/>
      <point x="822" y="1309" type="line"/>
      <point x="1162" y="1309" type="line"/>
      <point x="1155" y="1240" type="line"/>
      <point x="1057" y="1224" type="line"/>
      <point x="497" y="-9" type="line"/>
      <point x="382" y="-18" type="line"/>
      <point x="174" y="1223" type="line"/>
    </contour>
  </outline>
</glyph>
<glyph name="Z" format="1">
  <advance width="1029"/>
  <unicode hex="005A"/>
  <note>
	Z
  </note>
  <outline>
    <contour>
      <point x="731" y="1047" type="line"/>
      <point x="884" y="1230" type="line"/>
      <point x="314" y="1225" type="line"/>
      <point x="241" y="997" type="line"/>
      <point x="163" y="1013" type="line"/>
      <point x="211" y="1309" type="line"/>
      <point x="1017" y="1309" type="line"/>
      <point x="1035" y="1250" type="line"/>
      <point x="289" y="236" type="line"/>
      <point x="164" y="74" type="line"/>
      <point x="790" y="91" type="line"/>
      <point x="891" y="325" type="line"/>
      <point x="971" y="304" type="line"/>
      <point x="891" y="0" type="line"/>
      <point x="23" y="0" type="line"/>
      <point x="5" y="63" type="line"/>
    </contour>
  </outline>
</glyph>
<glyph name="bracketleft" format="1">
  <advance width="734"/>
  <unicode hex="005B"/>
  <note>
	bracketleft
  </note>
  <outline>
    <contour>
      <point x="369" y="1403"/>
      <point x="387" y="1448"/>
      <point x="427" y="1469" type="curve" smooth="yes"/>
      <point x="447" y="1479"/>
      <point x="474" y="1484"/>
      <point x="509" y="1484" type="curve" smooth="yes"/>
      <point x="552" y="1484"/>
      <point x="618" y="1476"/>
      <point x="706" y="1459" type="curve"/>
      <point x="714" y="1458"/>
      <point x="722" y="1456"/>
      <point x="730" y="1455" type="curve" smooth="yes"/>
      <point x="737" y="1454"/>
      <point x="744" y="1453"/>
      <point x="749" y="1452" type="curve"/>
      <point x="740" y="1391" type="line"/>
      <point x="490" y="1391" type="line"/>
      <point x="289" y="-62" type="line"/>
      <point x="544" y="-64" type="line"/>
      <point x="541" y="-89"/>
      <point x="539" y="-108"/>
      <point x="538" y="-123" type="curve"/>
      <point x="462" y="-143"/>
      <point x="363" y="-156"/>
      <point x="284" y="-156" type="curve" smooth="yes"/>
      <point x="201" y="-156"/>
      <point x="172" y="-133"/>
      <point x="172" y="-58" type="curve" smooth="yes"/>
      <point x="172" y="-35"/>
      <point x="173" y="-10"/>
      <point x="175" y="19" type="curve" smooth="yes"/>
      <point x="183" y="154"/>
      <point x="220" y="402"/>
      <point x="284" y="817" type="curve" smooth="yes"/>
      <point x="322" y="1056"/>
      <point x="347" y="1221"/>
      <point x="358" y="1312" type="curve" smooth="yes"/>
    </contour>
  </outline>
</glyph>
<glyph name="backslash" format="1">
  <advance width="734"/>
  <unicode hex="005C"/>
  <note>
	backslash
  </note>
  <outline>
    <contour>
      <point x="115" y="1373" type="line"/>
      <point x="229" y="1373" type="line"/>
      <point x="725" y="-311" type="line"/>
      <point x="611" y="-311" type="line"/>
    </contour>
  </outline>
</glyph>
<glyph name="bracketright" format="1">
  <advance width="734"/>
  <unicode hex="005D"/>
  <note>
	bracketright
  </note>
  <outline>
    <contour>
      <point x="409" y="-65"/>
      <point x="391" y="-110"/>
      <point x="352" y="-130" type="curve" smooth="yes"/>
      <point x="332" y="-141"/>
      <point x="304" y="-146"/>
      <point x="269" y="-146" type="curve" smooth="yes"/>
      <point x="225" y="-146"/>
      <point x="159" y="-137"/>
      <point x="72" y="-120" type="curve"/>
      <point x="64" y="-119"/>
      <point x="56" y="-118"/>
      <point x="49" y="-116" type="curve"/>
      <point x="41" y="-115"/>
      <point x="34" y="-114"/>
      <point x="29" y="-114" type="curve"/>
      <point x="38" y="-53" type="line"/>
      <point x="288" y="-53" type="line"/>
      <point x="489" y="1400" type="line"/>
      <point x="234" y="1402" type="line"/>
      <point x="237" y="1427"/>
      <point x="240" y="1447"/>
      <point x="241" y="1461" type="curve"/>
      <point x="317" y="1481"/>
      <point x="415" y="1494"/>
      <point x="494" y="1494" type="curve" smooth="yes"/>
      <point x="577" y="1494"/>
      <point x="606" y="1471"/>
      <point x="606" y="1396" type="curve" smooth="yes"/>
      <point x="606" y="1373"/>
      <point x="605" y="1348"/>
      <point x="604" y="1319" type="curve" smooth="yes"/>
      <point x="596" y="1186"/>
      <point x="559" y="936"/>
      <point x="494" y="521" type="curve" smooth="yes"/>
      <point x="457" y="282"/>
      <point x="432" y="118"/>
      <point x="421" y="27" type="curve" smooth="yes"/>
    </contour>
  </outline>
</glyph>
<glyph name="asciicircum" format="1">
  <advance width="1172"/>
  <unicode hex="005E"/>
  <note>
	asciicircum
  </note>
  <outline>
    <contour>
      <point x="652" y="1317" type="line"/>
      <point x="1013" y="355" type="line"/>
      <point x="909" y="355" type="line"/>
      <point x="585" y="1177" type="line"/>
      <point x="261" y="355" type="line"/>
      <point x="159" y="355" type="line"/>
      <point x="516" y="1317" type="line"/>
    </contour>
  </outline>
</glyph>
<glyph name="underscore" format="1">
  <advance width="1148"/>
  <unicode hex="005F"/>
  <note>
	underscore
  </note>
  <outline>
    <contour>
      <point x="1090" y="-291" type="line"/>
      <point x="-95" y="-291" type="line"/>
      <point x="-82" y="-187" type="line"/>
      <point x="1103" y="-187" type="line"/>
    </contour>
  </outline>
</glyph>
<glyph name="grave" format="1">
  <advance width="465"/>
  <unicode hex="0060"/>
  <note>
	grave
  </note>
  <outline>
    <contour>
      <point x="150" y="1487" type="line"/>
      <point x="410" y="1121" type="line"/>
      <point x="367" y="1079" type="line"/>
      <point x="312" y="1114"/>
      <point x="211" y="1203"/>
      <point x="132" y="1286" type="curve" smooth="yes"/>
      <point x="92" y="1327"/>
      <point x="65" y="1361"/>
      <point x="52" y="1386" type="curve"/>
    </contour>
  </outline>
</glyph>
<glyph name="b" format="1">
  <advance width="1011"/>
  <unicode hex="0062"/>
  <note>
	b
  </note>
  <outline>
    <contour>
      <point x="205" y="1333" type="line"/>
      <point x="218" y="1391" type="line"/>
      <point x="394" y="1419" type="line"/>
      <point x="429" y="1399" type="line"/>
      <point x="353" y="837" type="line"/>
      <point x="418" y="926"/>
      <point x="525" y="1000"/>
      <point x="642" y="1000" type="curve" smooth="yes"/>
      <point x="771" y="1000"/>
      <point x="859" y="934"/>
      <point x="903" y="822" type="curve" smooth="yes"/>
      <point x="924" y="766"/>
      <point x="935" y="701"/>
      <point x="935" y="628" type="curve" smooth="yes"/>
      <point x="935" y="441"/>
      <point x="843" y="220"/>
      <point x="678" y="85" type="curve" smooth="yes"/>
      <point x="595" y="17"/>
      <point x="499" y="-17"/>
      <point x="390" y="-17" type="curve" smooth="yes"/>
      <point x="321" y="-17"/>
      <point x="231" y="3"/>
      <point x="179" y="28" type="curve"/>
      <point x="113" y="-4" type="line"/>
      <point x="287" y="1304" type="line"/>
    </contour>
    <contour>
      <point x="255" y="112" type="line"/>
      <point x="292" y="82"/>
      <point x="344" y="67"/>
      <point x="411" y="67" type="curve" smooth="yes"/>
      <point x="576" y="67"/>
      <point x="696" y="199"/>
      <point x="756" y="371" type="curve" smooth="yes"/>
      <point x="786" y="456"/>
      <point x="801" y="539"/>
      <point x="801" y="618" type="curve" smooth="yes"/>
      <point x="801" y="797"/>
      <point x="735" y="901"/>
      <point x="622" y="901" type="curve" smooth="yes"/>
      <point x="542" y="901"/>
      <point x="462" y="857"/>
      <point x="405" y="801" type="curve" smooth="yes"/>
      <point x="376" y="772"/>
      <point x="354" y="744"/>
      <point x="337" y="716" type="curve"/>
    </contour>
  </outline>
</glyph>
<glyph name="i" format="1">
  <advance width="544"/>
  <unicode hex="0069"/>
  <note>
	i
  </note>
  <outline>
    <contour>
      <point x="144" y="905" type="line"/>
      <point x="156" y="961" type="line"/>
      <point x="371" y="997" type="line"/>
      <point x="405" y="979" type="line"/>
      <point x="284" y="136" type="line" smooth="yes"/>
      <point x="283" y="127"/>
      <point x="282" y="120"/>
      <point x="282" y="117" type="curve" smooth="yes"/>
      <point x="282" y="88"/>
      <point x="294" y="73"/>
      <point x="309" y="73" type="curve" smooth="yes"/>
      <point x="336" y="73"/>
      <point x="361" y="90"/>
      <point x="402" y="134" type="curve"/>
      <point x="424" y="96" type="line"/>
      <point x="408" y="72"/>
      <point x="373" y="33"/>
      <point x="322" y="5" type="curve"/>
      <point x="297" y="-10"/>
      <point x="270" y="-17"/>
      <point x="241" y="-17" type="curve" smooth="yes"/>
      <point x="185" y="-17"/>
      <point x="148" y="10"/>
      <point x="148" y="71" type="curve" smooth="yes"/>
      <point x="148" y="92"/>
      <point x="153" y="137"/>
      <point x="163" y="207" type="curve" smooth="yes"/>
      <point x="172" y="276"/>
      <point x="187" y="374"/>
      <point x="206" y="499" type="curve" smooth="yes"/>
      <point x="227" y="640"/>
      <point x="245" y="763"/>
      <point x="260" y="870" type="curve"/>
    </contour>
    <contour>
      <point x="292" y="1327"/>
      <point x="314" y="1361"/>
      <point x="344" y="1381" type="curve"/>
      <point x="359" y="1390"/>
      <point x="373" y="1395"/>
      <point x="388" y="1395" type="curve" smooth="yes"/>
      <point x="436" y="1395"/>
      <point x="467" y="1362"/>
      <point x="467" y="1317" type="curve" smooth="yes"/>
      <point x="467" y="1277"/>
      <point x="447" y="1240"/>
      <point x="417" y="1220" type="curve" smooth="yes"/>
      <point x="402" y="1210"/>
      <point x="385" y="1205"/>
      <point x="367" y="1205" type="curve" smooth="yes"/>
      <point x="326" y="1205"/>
      <point x="292" y="1240"/>
      <point x="292" y="1287" type="curve" smooth="yes"/>
    </contour>
  </outline>
</glyph>
<glyph name="j" format="1">
  <advance width="556"/>
  <unicode hex="006A"/>
  <note>
	j
  </note>
  <outline>
    <contour>
      <point x="-158" y="-357" type="line"/>
      <point x="-143" y="-365"/>
      <point x="-107" y="-372"/>
      <point x="-83" y="-372" type="curve" smooth="yes"/>
      <point x="77" y="-372"/>
      <point x="149" y="-209"/>
      <point x="180" y="50" type="curve" smooth="yes"/>
      <point x="273" y="870" type="line"/>
      <point x="153" y="905" type="line"/>
      <point x="164" y="961" type="line"/>
      <point x="384" y="997" type="line"/>
      <point x="418" y="979" type="line"/>
      <point x="303" y="2" type="line" smooth="yes"/>
      <point x="268" y="-291"/>
      <point x="138" y="-445"/>
      <point x="-62" y="-445" type="curve" smooth="yes"/>
      <point x="-118" y="-445"/>
      <point x="-165" y="-434"/>
      <point x="-182" y="-414" type="curve"/>
    </contour>
    <contour>
      <point x="302" y="1327"/>
      <point x="324" y="1361"/>
      <point x="354" y="1381" type="curve"/>
      <point x="369" y="1390"/>
      <point x="383" y="1395"/>
      <point x="398" y="1395" type="curve" smooth="yes"/>
      <point x="446" y="1395"/>
      <point x="477" y="1362"/>
      <point x="477" y="1317" type="curve" smooth="yes"/>
      <point x="477" y="1277"/>
      <point x="457" y="1240"/>
      <point x="427" y="1220" type="curve" smooth="yes"/>
      <point x="412" y="1210"/>
      <point x="395" y="1205"/>
      <point x="377" y="1205" type="curve" smooth="yes"/>
      <point x="336" y="1205"/>
      <point x="302" y="1240"/>
      <point x="302" y="1287" type="curve" smooth="yes"/>
    </contour>
  </outline>
</glyph>
<glyph name="k" format="1">
  <advance width="914"/>
  <unicode hex="006B"/>
  <note>
	k
  </note>
  <outline>
    <contour>
      <point x="170" y="1331" type="line"/>
      <point x="181" y="1389" type="line"/>
      <point x="375" y="1419" type="line"/>
      <point x="411" y="1399" type="line"/>
      <point x="223" y="0" type="line"/>
      <point x="96" y="0" type="line"/>
      <point x="269" y="1303" type="line"/>
    </contour>
    <contour>
      <point x="687" y="832"/>
      <point x="697" y="870"/>
      <point x="704" y="922" type="curve" smooth="yes"/>
      <point x="712" y="971"/>
      <point x="751" y="1000"/>
      <point x="792" y="1000" type="curve" smooth="yes"/>
      <point x="831" y="1000"/>
      <point x="862" y="970"/>
      <point x="862" y="927" type="curve" smooth="yes"/>
      <point x="862" y="856"/>
      <point x="809" y="778"/>
      <point x="689" y="694" type="curve" smooth="yes"/>
      <point x="629" y="651"/>
      <point x="558" y="606"/>
      <point x="476" y="558" type="curve" smooth="yes"/>
      <point x="432" y="531" type="line"/>
      <point x="686" y="163" type="line" smooth="yes"/>
      <point x="719" y="114"/>
      <point x="760" y="80"/>
      <point x="789" y="80" type="curve" smooth="yes"/>
      <point x="814" y="80"/>
      <point x="848" y="97"/>
      <point x="880" y="130" type="curve"/>
      <point x="903" y="87" type="line"/>
      <point x="884" y="55"/>
      <point x="845" y="20"/>
      <point x="795" y="-1" type="curve" smooth="yes"/>
      <point x="770" y="-12"/>
      <point x="744" y="-17"/>
      <point x="719" y="-17" type="curve" smooth="yes"/>
      <point x="671" y="-17"/>
      <point x="626" y="12"/>
      <point x="587" y="76" type="curve" smooth="yes"/>
      <point x="316" y="525" type="line"/>
      <point x="317" y="525" type="line"/>
      <point x="316" y="525" type="line"/>
      <point x="345" y="546"/>
      <point x="381" y="571"/>
      <point x="425" y="599" type="curve" smooth="yes"/>
      <point x="542" y="674"/>
      <point x="604" y="718"/>
      <point x="655" y="789" type="curve" smooth="yes"/>
    </contour>
  </outline>
</glyph>
<glyph name="l" format="1">
  <advance width="521"/>
  <unicode hex="006C"/>
  <note>
	l
  </note>
  <outline>
    <contour>
      <point x="299" y="1303" type="line"/>
      <point x="198" y="1331" type="line"/>
      <point x="212" y="1389" type="line"/>
      <point x="402" y="1419" type="line"/>
      <point x="436" y="1399" type="line"/>
      <point x="259" y="136" type="line" smooth="yes"/>
      <point x="258" y="127"/>
      <point x="257" y="120"/>
      <point x="257" y="116" type="curve" smooth="yes"/>
      <point x="257" y="88"/>
      <point x="267" y="73"/>
      <point x="282" y="73" type="curve" smooth="yes"/>
      <point x="309" y="73"/>
      <point x="337" y="90"/>
      <point x="378" y="133" type="curve"/>
      <point x="399" y="96" type="line"/>
      <point x="387" y="75"/>
      <point x="349" y="33"/>
      <point x="298" y="5" type="curve" smooth="yes"/>
      <point x="272" y="-10"/>
      <point x="245" y="-17"/>
      <point x="216" y="-17" type="curve" smooth="yes"/>
      <point x="157" y="-17"/>
      <point x="130" y="15"/>
      <point x="131" y="88" type="curve" smooth="yes"/>
      <point x="131" y="104"/>
      <point x="133" y="123"/>
      <point x="136" y="146" type="curve" smooth="yes"/>
    </contour>
  </outline>
</glyph>
<glyph name="q" format="1">
  <advance width="989"/>
  <unicode hex="0071"/>
  <note>
	q
  </note>
  <outline>
    <contour>
      <point x="72" y="541"/>
      <point x="164" y="762"/>
      <point x="332" y="898" type="curve" smooth="yes"/>
      <point x="416" y="966"/>
      <point x="513" y="1000"/>
      <point x="623" y="1000" type="curve" smooth="yes"/>
      <point x="679" y="1000"/>
      <point x="750" y="985"/>
      <point x="802" y="964" type="curve"/>
      <point x="808" y="971" type="line"/>
      <point x="882" y="980" type="line"/>
      <point x="712" y="-292" type="line"/>
      <point x="711" y="-295"/>
      <point x="711" y="-300"/>
      <point x="711" y="-306" type="curve" smooth="yes"/>
      <point x="711" y="-333"/>
      <point x="721" y="-356"/>
      <point x="733" y="-356" type="curve" smooth="yes"/>
      <point x="760" y="-356"/>
      <point x="792" y="-335"/>
      <point x="830" y="-294" type="curve"/>
      <point x="852" y="-333" type="line"/>
      <point x="837" y="-354"/>
      <point x="798" y="-395"/>
      <point x="746" y="-423" type="curve" smooth="yes"/>
      <point x="719" y="-438"/>
      <point x="692" y="-445"/>
      <point x="663" y="-445" type="curve" smooth="yes"/>
      <point x="606" y="-445"/>
      <point x="577" y="-414"/>
      <point x="580" y="-341" type="curve"/>
      <point x="643" y="132" type="line"/>
      <point x="576" y="49"/>
      <point x="473" y="-17"/>
      <point x="358" y="-17" type="curve" smooth="yes"/>
      <point x="233" y="-17"/>
      <point x="147" y="49"/>
      <point x="104" y="161" type="curve" smooth="yes"/>
      <point x="83" y="216"/>
      <point x="72" y="281"/>
      <point x="72" y="354" type="curve" smooth="yes"/>
    </contour>
    <contour>
      <point x="740" y="877" type="line"/>
      <point x="705" y="902"/>
      <point x="659" y="915"/>
      <point x="602" y="915" type="curve" smooth="yes"/>
      <point x="439" y="915"/>
      <point x="316" y="787"/>
      <point x="253" y="616" type="curve" smooth="yes"/>
      <point x="222" y="530"/>
      <point x="206" y="446"/>
      <point x="206" y="364" type="curve" smooth="yes"/>
      <point x="206" y="183"/>
      <point x="272" y="81"/>
      <point x="379" y="81" type="curve" smooth="yes"/>
      <point x="455" y="81"/>
      <point x="530" y="119"/>
      <point x="587" y="170" type="curve" smooth="yes"/>
      <point x="616" y="195"/>
      <point x="639" y="221"/>
      <point x="658" y="248" type="curve"/>
      <point x="691" y="501" type="line"/>
    </contour>
  </outline>
</glyph>
<glyph name="r" format="1">
  <advance width="718"/>
  <unicode hex="0072"/>
  <note>
	r
  </note>
  <outline>
    <contour>
      <point x="141" y="898" type="line"/>
      <point x="153" y="960" type="line"/>
      <point x="331" y="997" type="line"/>
      <point x="362" y="980" type="line"/>
      <point x="351" y="826" type="line"/>
      <point x="341" y="752" type="line"/>
      <point x="370" y="820"/>
      <point x="439" y="905"/>
      <point x="531" y="959" type="curve" smooth="yes"/>
      <point x="577" y="986"/>
      <point x="625" y="999"/>
      <point x="676" y="999" type="curve" smooth="yes"/>
      <point x="705" y="999"/>
      <point x="723" y="995"/>
      <point x="732" y="988" type="curve"/>
      <point x="703" y="845" type="line"/>
      <point x="688" y="853"/>
      <point x="660" y="857"/>
      <point x="621" y="857" type="curve" smooth="yes"/>
      <point x="550" y="857"/>
      <point x="471" y="821"/>
      <point x="404" y="747" type="curve" smooth="yes"/>
      <point x="370" y="710"/>
      <point x="343" y="664"/>
      <point x="322" y="611" type="curve"/>
      <point x="246" y="0" type="line"/>
      <point x="119" y="0" type="line"/>
      <point x="229" y="858" type="line"/>
    </contour>
  </outline>
</glyph>
<glyph name="v" format="1">
  <advance width="909"/>
  <unicode hex="0076"/>
  <note>
	v
  </note>
  <outline>
    <contour>
      <point x="155" y="839" type="line" smooth="yes"/>
      <point x="149" y="880"/>
      <point x="135" y="900"/>
      <point x="114" y="900" type="curve" smooth="yes"/>
      <point x="90" y="900"/>
      <point x="72" y="888"/>
      <point x="48" y="865" type="curve"/>
      <point x="28" y="908" type="line"/>
      <point x="39" y="927"/>
      <point x="69" y="958"/>
      <point x="112" y="981" type="curve" smooth="yes"/>
      <point x="133" y="992"/>
      <point x="156" y="998"/>
      <point x="181" y="998" type="curve" smooth="yes"/>
      <point x="254" y="998"/>
      <point x="276" y="960"/>
      <point x="285" y="881" type="curve" smooth="yes"/>
      <point x="352" y="303" type="line"/>
      <point x="372" y="114" type="line"/>
      <point x="503" y="281" type="line"/>
      <point x="624" y="454"/>
      <point x="700" y="608"/>
      <point x="727" y="793" type="curve"/>
      <point x="728" y="797"/>
      <point x="728" y="802"/>
      <point x="728" y="809" type="curve" smooth="yes"/>
      <point x="728" y="836"/>
      <point x="722" y="856"/>
      <point x="711" y="883" type="curve"/>
      <point x="710" y="886"/>
      <point x="709" y="891"/>
      <point x="706" y="900" type="curve" smooth="yes"/>
      <point x="703" y="909"/>
      <point x="701" y="917"/>
      <point x="701" y="924" type="curve" smooth="yes"/>
      <point x="701" y="973"/>
      <point x="724" y="998"/>
      <point x="763" y="998" type="curve" smooth="yes"/>
      <point x="820" y="998"/>
      <point x="854" y="936"/>
      <point x="854" y="837" type="curve" smooth="yes"/>
      <point x="854" y="685"/>
      <point x="739" y="464"/>
      <point x="600" y="269" type="curve" smooth="yes"/>
      <point x="392" y="-8" type="line"/>
      <point x="292" y="-17" type="line"/>
      <point x="241" y="303" type="line"/>
    </contour>
  </outline>
</glyph>
<glyph name="braceleft" format="1">
  <advance width="877"/>
  <unicode hex="007B"/>
  <note>
	braceleft
  </note>
  <outline>
    <contour>
      <point x="359" y="522"/>
      <point x="342" y="544"/>
      <point x="305" y="563" type="curve"/>
      <point x="267" y="588"/>
      <point x="218" y="608"/>
      <point x="157" y="624" type="curve"/>
      <point x="169" y="711" type="line"/>
      <point x="244" y="730"/>
      <point x="301" y="748"/>
      <point x="340" y="766" type="curve"/>
      <point x="381" y="783"/>
      <point x="403" y="805"/>
      <point x="408" y="832" type="curve" smooth="yes"/>
      <point x="481" y="1312" type="line" smooth="yes"/>
      <point x="494" y="1404"/>
      <point x="514" y="1449"/>
      <point x="553" y="1469" type="curve" smooth="yes"/>
      <point x="572" y="1479"/>
      <point x="599" y="1484"/>
      <point x="634" y="1484" type="curve" smooth="yes"/>
      <point x="679" y="1484"/>
      <point x="756" y="1473"/>
      <point x="810" y="1462" type="curve" smooth="yes"/>
      <point x="837" y="1457"/>
      <point x="854" y="1453"/>
      <point x="861" y="1452" type="curve"/>
      <point x="858" y="1441"/>
      <point x="852" y="1402"/>
      <point x="852" y="1391" type="curve"/>
      <point x="615" y="1391" type="line"/>
      <point x="530" y="834" type="line" smooth="yes"/>
      <point x="523" y="787"/>
      <point x="495" y="753"/>
      <point x="439" y="726" type="curve" smooth="yes"/>
      <point x="396" y="706"/>
      <point x="314" y="672"/>
      <point x="298" y="667" type="curve"/>
      <point x="430" y="603"/>
      <point x="479" y="570"/>
      <point x="479" y="509" type="curve" smooth="yes"/>
      <point x="479" y="503"/>
      <point x="479" y="498"/>
      <point x="478" y="495" type="curve"/>
      <point x="394" y="-62" type="line"/>
      <point x="630" y="-62" type="line"/>
      <point x="623" y="-123" type="line"/>
      <point x="526" y="-146"/>
      <point x="472" y="-156"/>
      <point x="387" y="-156" type="curve" smooth="yes"/>
      <point x="330" y="-156"/>
      <point x="301" y="-145"/>
      <point x="286" y="-116" type="curve" smooth="yes"/>
      <point x="279" y="-102"/>
      <point x="275" y="-82"/>
      <point x="276" y="-56" type="curve" smooth="yes"/>
      <point x="277" y="-40"/>
      <point x="341" y="387"/>
      <point x="358" y="498" type="curve"/>
    </contour>
  </outline>
</glyph>
<glyph name="bar" format="1">
  <advance width="734"/>
  <unicode hex="007C"/>
  <note>
	bar
  </note>
  <outline>
    <contour>
      <point x="443" y="1531" type="line"/>
      <point x="443" y="-160" type="line"/>
      <point x="329" y="-160" type="line"/>
      <point x="329" y="1531" type="line"/>
    </contour>
  </outline>
</glyph>
<glyph name="braceright" format="1">
  <advance width="877"/>
  <unicode hex="007D"/>
  <note>
	braceright
  </note>
  <outline>
    <contour>
      <point x="551" y="808"/>
      <point x="568" y="786"/>
      <point x="605" y="766" type="curve"/>
      <point x="643" y="741"/>
      <point x="692" y="721"/>
      <point x="753" y="705" type="curve"/>
      <point x="740" y="618" type="line"/>
      <point x="666" y="600"/>
      <point x="609" y="582"/>
      <point x="570" y="563" type="curve"/>
      <point x="529" y="546"/>
      <point x="507" y="525"/>
      <point x="502" y="498" type="curve" smooth="yes"/>
      <point x="429" y="18" type="line" smooth="yes"/>
      <point x="416" y="-75"/>
      <point x="396" y="-120"/>
      <point x="357" y="-139" type="curve" smooth="yes"/>
      <point x="338" y="-149"/>
      <point x="311" y="-154"/>
      <point x="276" y="-154" type="curve" smooth="yes"/>
      <point x="231" y="-154"/>
      <point x="155" y="-142"/>
      <point x="101" y="-132" type="curve" smooth="yes"/>
      <point x="74" y="-127"/>
      <point x="56" y="-124"/>
      <point x="49" y="-122" type="curve"/>
      <point x="52" y="-111"/>
      <point x="58" y="-73"/>
      <point x="58" y="-62" type="curve"/>
      <point x="295" y="-62" type="line"/>
      <point x="380" y="495" type="line" smooth="yes"/>
      <point x="387" y="543"/>
      <point x="415" y="576"/>
      <point x="471" y="604" type="curve"/>
      <point x="514" y="623"/>
      <point x="595" y="658"/>
      <point x="612" y="662" type="curve"/>
      <point x="480" y="726"/>
      <point x="431" y="760"/>
      <point x="431" y="820" type="curve" smooth="yes"/>
      <point x="431" y="827"/>
      <point x="431" y="831"/>
      <point x="432" y="834" type="curve"/>
      <point x="516" y="1391" type="line"/>
      <point x="280" y="1391" type="line"/>
      <point x="287" y="1453" type="line"/>
      <point x="384" y="1476"/>
      <point x="438" y="1485"/>
      <point x="523" y="1485" type="curve" smooth="yes"/>
      <point x="580" y="1485"/>
      <point x="609" y="1474"/>
      <point x="624" y="1446" type="curve"/>
      <point x="631" y="1431"/>
      <point x="635" y="1411"/>
      <point x="634" y="1385" type="curve" smooth="yes"/>
      <point x="633" y="1369"/>
      <point x="569" y="943"/>
      <point x="552" y="832" type="curve"/>
    </contour>
  </outline>
</glyph>
<glyph name="asciitilde" format="1">
  <advance width="977"/>
  <unicode hex="007E"/>
  <note>
	asciitilde
  </note>
  <outline>
    <contour>
      <point x="134" y="727" type="line"/>
      <point x="151" y="776"/>
      <point x="206" y="836"/>
      <point x="280" y="873" type="curve" smooth="yes"/>
      <point x="317" y="891"/>
      <point x="355" y="900"/>
      <point x="396" y="900" type="curve" smooth="yes"/>
      <point x="457" y="900"/>
      <point x="497" y="871"/>
      <point x="560" y="818" type="curve" smooth="yes"/>
      <point x="615" y="771"/>
      <point x="645" y="749"/>
      <point x="690" y="749" type="curve" smooth="yes"/>
      <point x="770" y="749"/>
      <point x="830" y="795"/>
      <point x="870" y="859" type="curve"/>
      <point x="918" y="808" type="line"/>
      <point x="902" y="751"/>
      <point x="852" y="693"/>
      <point x="781" y="660" type="curve" smooth="yes"/>
      <point x="745" y="643"/>
      <point x="706" y="635"/>
      <point x="665" y="635" type="curve" smooth="yes"/>
      <point x="602" y="635"/>
      <point x="563" y="663"/>
      <point x="500" y="716" type="curve" smooth="yes"/>
      <point x="444" y="764"/>
      <point x="413" y="785"/>
      <point x="372" y="785" type="curve" smooth="yes"/>
      <point x="296" y="785"/>
      <point x="229" y="744"/>
      <point x="181" y="675" type="curve"/>
    </contour>
  </outline>
</glyph>
<glyph name="exclamdown" format="1">
  <advance width="589"/>
  <unicode hex="00A1"/>
  <note>
	exclamdown
  </note>
  <outline>
    <contour>
      <point x="317" y="975"/>
      <point x="292" y="1004"/>
      <point x="292" y="1048" type="curve" smooth="yes"/>
      <point x="292" y="1056"/>
      <point x="292" y="1062"/>
      <point x="292" y="1066" type="curve"/>
      <point x="301" y="1130"/>
      <point x="350" y="1171"/>
      <point x="403" y="1171" type="curve" smooth="yes"/>
      <point x="448" y="1171"/>
      <point x="476" y="1145"/>
      <point x="476" y="1096" type="curve" smooth="yes"/>
      <point x="476" y="1089"/>
      <point x="476" y="1083"/>
      <point x="475" y="1080" type="curve"/>
      <point x="467" y="1020"/>
      <point x="421" y="975"/>
      <point x="370" y="975" type="curve" smooth="yes"/>
    </contour>
    <contour>
      <point x="96" y="-373" type="line"/>
      <point x="293" y="736" type="line"/>
      <point x="384" y="736" type="line"/>
      <point x="256" y="-373" type="line"/>
    </contour>
  </outline>
</glyph>
<glyph name="cent" format="1">
  <advance width="908"/>
  <unicode hex="00A2"/>
  <note>
	cent
  </note>
  <outline>
    <contour>
      <point x="362" y="-11" type="line"/>
      <point x="206" y="17"/>
      <point x="116" y="158"/>
      <point x="116" y="370" type="curve" smooth="yes"/>
      <point x="116" y="539"/>
      <point x="184" y="733"/>
      <point x="312" y="866" type="curve" smooth="yes"/>
      <point x="375" y="933"/>
      <point x="450" y="975"/>
      <point x="537" y="992" type="curve"/>
      <point x="578" y="1168" type="line"/>
      <point x="678" y="1168" type="line"/>
      <point x="637" y="999" type="line"/>
      <point x="696" y="998"/>
      <point x="764" y="980"/>
      <point x="808" y="959" type="curve"/>
      <point x="770" y="826" type="line"/>
      <point x="766" y="829"/>
      <point x="760" y="834"/>
      <point x="752" y="839" type="curve"/>
      <point x="701" y="875"/>
      <point x="641" y="899"/>
      <point x="588" y="899" type="curve" smooth="yes"/>
      <point x="453" y="899"/>
      <point x="349" y="810"/>
      <point x="294" y="655" type="curve" smooth="yes"/>
      <point x="267" y="578"/>
      <point x="253" y="489"/>
      <point x="253" y="390" type="curve" smooth="yes"/>
      <point x="253" y="186"/>
      <point x="330" y="79"/>
      <point x="462" y="79" type="curve" smooth="yes"/>
      <point x="527" y="79"/>
      <point x="582" y="98"/>
      <point x="628" y="127" type="curve" smooth="yes"/>
      <point x="651" y="142"/>
      <point x="678" y="162"/>
      <point x="711" y="187" type="curve"/>
      <point x="738" y="130" type="line"/>
      <point x="677" y="62"/>
      <point x="587" y="-4"/>
      <point x="460" y="-15" type="curve"/>
      <point x="429" y="-185" type="line"/>
      <point x="330" y="-185" type="line"/>
    </contour>
  </outline>
</glyph>
<glyph name="sterling" format="1">
  <advance width="1176"/>
  <unicode hex="00A3"/>
  <note>
	sterling
  </note>
  <outline>
    <contour>
      <point x="359" y="734" type="line"/>
      <point x="364" y="755"/>
      <point x="367" y="774"/>
      <point x="369" y="789" type="curve" smooth="yes"/>
      <point x="371" y="804"/>
      <point x="373" y="817"/>
      <point x="374" y="826" type="curve"/>
      <point x="378" y="852" type="line" smooth="yes"/>
      <point x="407" y="1021"/>
      <point x="494" y="1175"/>
      <point x="623" y="1264" type="curve" smooth="yes"/>
      <point x="687" y="1308"/>
      <point x="758" y="1330"/>
      <point x="835" y="1330" type="curve" smooth="yes"/>
      <point x="943" y="1330"/>
      <point x="1006" y="1315"/>
      <point x="1058" y="1260" type="curve"/>
      <point x="984" y="1144" type="line"/>
      <point x="968" y="1165"/>
      <point x="926" y="1197"/>
      <point x="867" y="1218" type="curve" smooth="yes"/>
      <point x="837" y="1228"/>
      <point x="805" y="1233"/>
      <point x="772" y="1233" type="curve" smooth="yes"/>
      <point x="648" y="1233"/>
      <point x="544" y="1119"/>
      <point x="505" y="854" type="curve" smooth="yes"/>
      <point x="501" y="825"/>
      <point x="494" y="785"/>
      <point x="484" y="734" type="curve"/>
      <point x="774" y="734" type="line"/>
      <point x="763" y="644" type="line"/>
      <point x="467" y="644" type="line"/>
      <point x="460" y="609"/>
      <point x="455" y="579"/>
      <point x="452" y="556" type="curve" smooth="yes"/>
      <point x="425" y="363"/>
      <point x="388" y="259"/>
      <point x="311" y="147" type="curve"/>
      <point x="329" y="142"/>
      <point x="361" y="132"/>
      <point x="408" y="116" type="curve" smooth="yes"/>
      <point x="521" y="77"/>
      <point x="593" y="56"/>
      <point x="686" y="56" type="curve" smooth="yes"/>
      <point x="869" y="56"/>
      <point x="961" y="127"/>
      <point x="961" y="269" type="curve" smooth="yes"/>
      <point x="961" y="330"/>
      <point x="924" y="397"/>
      <point x="887" y="428" type="curve"/>
      <point x="976" y="517" type="line"/>
      <point x="1047" y="458"/>
      <point x="1093" y="372"/>
      <point x="1093" y="277" type="curve" smooth="yes"/>
      <point x="1092" y="178"/>
      <point x="1053" y="84"/>
      <point x="935" y="24" type="curve" smooth="yes"/>
      <point x="876" y="-6"/>
      <point x="796" y="-21"/>
      <point x="697" y="-21" type="curve" smooth="yes"/>
      <point x="566" y="-21"/>
      <point x="462" y="10"/>
      <point x="317" y="59" type="curve" smooth="yes"/>
      <point x="253" y="81" type="line"/>
      <point x="213" y="30"/>
      <point x="134" y="-14"/>
      <point x="77" y="-14" type="curve" smooth="yes"/>
      <point x="42" y="-14"/>
      <point x="24" y="3"/>
      <point x="24" y="36" type="curve" smooth="yes"/>
      <point x="24" y="43"/>
      <point x="24" y="48"/>
      <point x="25" y="52" type="curve"/>
      <point x="29" y="85"/>
      <point x="74" y="127"/>
      <point x="135" y="152" type="curve" smooth="yes"/>
      <point x="165" y="165"/>
      <point x="195" y="171"/>
      <point x="225" y="171" type="curve"/>
      <point x="260" y="212"/>
      <point x="288" y="320"/>
      <point x="307" y="421" type="curve" smooth="yes"/>
      <point x="316" y="478" type="line"/>
      <point x="345" y="644" type="line"/>
      <point x="184" y="644" type="line"/>
      <point x="196" y="734" type="line"/>
    </contour>
  </outline>
</glyph>
<glyph name="currency" format="1">
  <advance width="1324"/>
  <unicode hex="00A4"/>
  <note>
	currency
  </note>
  <outline>
    <contour>
      <point x="369" y="362" type="line"/>
      <point x="318" y="426"/>
      <point x="290" y="508"/>
      <point x="290" y="593" type="curve" smooth="yes"/>
      <point x="290" y="678"/>
      <point x="318" y="759"/>
      <point x="367" y="822" type="curve"/>
      <point x="205" y="986" type="line"/>
      <point x="279" y="1065" type="line"/>
      <point x="444" y="897" type="line"/>
      <point x="508" y="944"/>
      <point x="585" y="970"/>
      <point x="668" y="970" type="curve" smooth="yes"/>
      <point x="753" y="970"/>
      <point x="835" y="942"/>
      <point x="900" y="891" type="curve"/>
      <point x="1063" y="1054" type="line"/>
      <point x="1137" y="975" type="line"/>
      <point x="975" y="813" type="line"/>
      <point x="1022" y="749"/>
      <point x="1047" y="674"/>
      <point x="1047" y="593" type="curve" smooth="yes"/>
      <point x="1047" y="510"/>
      <point x="1020" y="432"/>
      <point x="972" y="368" type="curve"/>
      <point x="1135" y="204" type="line"/>
      <point x="1060" y="126" type="line"/>
      <point x="895" y="292" type="line"/>
      <point x="832" y="243"/>
      <point x="752" y="217"/>
      <point x="668" y="217" type="curve" smooth="yes"/>
      <point x="587" y="217"/>
      <point x="510" y="242"/>
      <point x="447" y="287" type="curve"/>
      <point x="282" y="121" type="line"/>
      <point x="207" y="199" type="line"/>
    </contour>
    <contour>
      <point x="771" y="309"/>
      <point x="862" y="363"/>
      <point x="912" y="451" type="curve" smooth="yes"/>
      <point x="937" y="494"/>
      <point x="949" y="542"/>
      <point x="949" y="593" type="curve" smooth="yes"/>
      <point x="949" y="697"/>
      <point x="896" y="789"/>
      <point x="810" y="840" type="curve" smooth="yes"/>
      <point x="767" y="865"/>
      <point x="719" y="878"/>
      <point x="668" y="878" type="curve" smooth="yes"/>
      <point x="567" y="878"/>
      <point x="476" y="824"/>
      <point x="426" y="737" type="curve" smooth="yes"/>
      <point x="401" y="693"/>
      <point x="388" y="645"/>
      <point x="388" y="593" type="curve" smooth="yes"/>
      <point x="388" y="490"/>
      <point x="442" y="398"/>
      <point x="528" y="347" type="curve" smooth="yes"/>
      <point x="571" y="322"/>
      <point x="617" y="309"/>
      <point x="668" y="309" type="curve" smooth="yes"/>
    </contour>
  </outline>
</glyph>
<glyph name="yen" format="1">
  <advance width="1275"/>
  <unicode hex="00A5"/>
  <note>
	yen
  </note>
  <outline>
    <contour>
      <point x="569" y="723" type="line"/>
      <point x="286" y="1226" type="line"/>
      <point x="174" y="1240" type="line"/>
      <point x="181" y="1309" type="line"/>
      <point x="601" y="1309" type="line"/>
      <point x="593" y="1240" type="line"/>
      <point x="420" y="1227" type="line"/>
      <point x="645" y="825" type="line"/>
      <point x="689" y="725" type="line"/>
      <point x="753" y="830" type="line"/>
      <point x="1047" y="1227" type="line"/>
      <point x="902" y="1240" type="line"/>
      <point x="910" y="1309" type="line"/>
      <point x="1289" y="1309" type="line"/>
      <point x="1281" y="1241" type="line"/>
      <point x="1172" y="1220" type="line"/>
      <point x="780" y="723" type="line"/>
      <point x="1099" y="723" type="line"/>
      <point x="1090" y="632" type="line"/>
      <point x="720" y="632" type="line"/>
      <point x="696" y="418" type="line"/>
      <point x="1064" y="418" type="line"/>
      <point x="1054" y="328" type="line"/>
      <point x="685" y="328" type="line"/>
      <point x="657" y="82" type="line"/>
      <point x="863" y="60" type="line"/>
      <point x="857" y="0" type="line"/>
      <point x="329" y="0" type="line"/>
      <point x="335" y="60" type="line"/>
      <point x="541" y="82" type="line"/>
      <point x="569" y="328" type="line"/>
      <point x="201" y="328" type="line"/>
      <point x="212" y="418" type="line"/>
      <point x="580" y="418" type="line"/>
      <point x="605" y="632" type="line"/>
      <point x="236" y="632" type="line"/>
      <point x="246" y="723" type="line"/>
    </contour>
  </outline>
</glyph>
<glyph name="brokenbar" format="1">
  <advance width="734"/>
  <unicode hex="00A6"/>
  <note>
	brokenbar
  </note>
  <outline>
    <contour>
      <point x="443" y="1531" type="line"/>
      <point x="443" y="762" type="line"/>
      <point x="330" y="762" type="line"/>
      <point x="330" y="1531" type="line"/>
    </contour>
    <contour>
      <point x="443" y="609" type="line"/>
      <point x="443" y="-160" type="line"/>
      <point x="330" y="-160" type="line"/>
      <point x="330" y="609" type="line"/>
    </contour>
  </outline>
</glyph>
<glyph name="section" format="1">
  <advance width="1026"/>
  <unicode hex="00A7"/>
  <note>
	section
  </note>
  <outline>
    <contour>
      <point x="152" y="198" type="line"/>
      <point x="167" y="-2" type="line"/>
      <point x="222" y="-61"/>
      <point x="335" y="-81"/>
      <point x="450" y="-81" type="curve" smooth="yes"/>
      <point x="537" y="-81"/>
      <point x="635" y="-47"/>
      <point x="702" y="22" type="curve" smooth="yes"/>
      <point x="735" y="56"/>
      <point x="755" y="97"/>
      <point x="762" y="146" type="curve"/>
      <point x="763" y="150"/>
      <point x="763" y="156"/>
      <point x="763" y="165" type="curve" smooth="yes"/>
      <point x="763" y="232"/>
      <point x="709" y="280"/>
      <point x="638" y="315" type="curve" smooth="yes"/>
      <point x="602" y="332"/>
      <point x="553" y="353"/>
      <point x="491" y="377" type="curve" smooth="yes"/>
      <point x="346" y="433"/>
      <point x="265" y="469"/>
      <point x="203" y="540" type="curve" smooth="yes"/>
      <point x="172" y="575"/>
      <point x="156" y="618"/>
      <point x="156" y="669" type="curve" smooth="yes"/>
      <point x="156" y="675"/>
      <point x="156" y="684"/>
      <point x="157" y="697" type="curve"/>
      <point x="168" y="778"/>
      <point x="216" y="876"/>
      <point x="280" y="943" type="curve"/>
      <point x="236" y="986"/>
      <point x="214" y="1037"/>
      <point x="214" y="1094" type="curve" smooth="yes"/>
      <point x="214" y="1101"/>
      <point x="215" y="1111"/>
      <point x="216" y="1125" type="curve"/>
      <point x="235" y="1273"/>
      <point x="346" y="1367"/>
      <point x="473" y="1408" type="curve" smooth="yes"/>
      <point x="536" y="1429"/>
      <point x="594" y="1439"/>
      <point x="646" y="1439" type="curve" smooth="yes"/>
      <point x="791" y="1439"/>
      <point x="923" y="1406"/>
      <point x="975" y="1373" type="curve"/>
      <point x="943" y="1115" type="line"/>
      <point x="881" y="1115" type="line"/>
      <point x="852" y="1309" type="line"/>
      <point x="821" y="1345"/>
      <point x="725" y="1365"/>
      <point x="634" y="1365" type="curve" smooth="yes"/>
      <point x="557" y="1365"/>
      <point x="465" y="1344"/>
      <point x="398" y="1282" type="curve" smooth="yes"/>
      <point x="365" y="1251"/>
      <point x="345" y="1209"/>
      <point x="339" y="1158" type="curve"/>
      <point x="338" y="1154"/>
      <point x="338" y="1148"/>
      <point x="338" y="1140" type="curve" smooth="yes"/>
      <point x="338" y="1071"/>
      <point x="391" y="1019"/>
      <point x="462" y="983" type="curve" smooth="yes"/>
      <point x="497" y="964"/>
      <point x="546" y="942"/>
      <point x="608" y="916" type="curve" smooth="yes"/>
      <point x="749" y="857"/>
      <point x="829" y="820"/>
      <point x="889" y="748" type="curve" smooth="yes"/>
      <point x="919" y="712"/>
      <point x="934" y="669"/>
      <point x="934" y="618" type="curve" smooth="yes"/>
      <point x="934" y="607"/>
      <point x="933" y="596"/>
      <point x="931" y="584" type="curve"/>
      <point x="920" y="499"/>
      <point x="880" y="408"/>
      <point x="824" y="340" type="curve"/>
      <point x="863" y="299"/>
      <point x="883" y="251"/>
      <point x="883" y="196" type="curve" smooth="yes"/>
      <point x="883" y="190"/>
      <point x="883" y="180"/>
      <point x="882" y="167" type="curve"/>
      <point x="865" y="30"/>
      <point x="756" y="-71"/>
      <point x="621" y="-122" type="curve" smooth="yes"/>
      <point x="554" y="-147"/>
      <point x="490" y="-160"/>
      <point x="430" y="-160" type="curve" smooth="yes"/>
      <point x="339" y="-160"/>
      <point x="222" y="-142"/>
      <point x="136" y="-118" type="curve" smooth="yes"/>
      <point x="93" y="-107"/>
      <point x="63" y="-96"/>
      <point x="48" y="-86" type="curve"/>
      <point x="83" y="198" type="line"/>
    </contour>
    <contour>
      <point x="296" y="844"/>
      <point x="268" y="781"/>
      <point x="268" y="726" type="curve" smooth="yes"/>
      <point x="268" y="647"/>
      <point x="327" y="593"/>
      <point x="403" y="554" type="curve" smooth="yes"/>
      <point x="440" y="535"/>
      <point x="491" y="512"/>
      <point x="556" y="487" type="curve" smooth="yes"/>
      <point x="663" y="444"/>
      <point x="713" y="424"/>
      <point x="765" y="389" type="curve"/>
      <point x="797" y="441"/>
      <point x="821" y="502"/>
      <point x="821" y="553" type="curve" smooth="yes"/>
      <point x="821" y="632"/>
      <point x="763" y="690"/>
      <point x="687" y="730" type="curve" smooth="yes"/>
      <point x="649" y="750"/>
      <point x="598" y="774"/>
      <point x="534" y="801" type="curve" smooth="yes"/>
      <point x="439" y="841"/>
      <point x="387" y="864"/>
      <point x="336" y="897" type="curve"/>
    </contour>
  </outline>
</glyph>
<glyph name="dieresis" format="1">
  <advance width="695"/>
  <unicode hex="00A8"/>
  <note>
	dieresis
  </note>
  <outline>
    <contour>
      <point x="78" y="1327"/>
      <point x="98" y="1362"/>
      <point x="128" y="1382" type="curve"/>
      <point x="143" y="1391"/>
      <point x="158" y="1396"/>
      <point x="175" y="1396" type="curve" smooth="yes"/>
      <point x="222" y="1396"/>
      <point x="253" y="1362"/>
      <point x="253" y="1317" type="curve" smooth="yes"/>
      <point x="253" y="1277"/>
      <point x="233" y="1241"/>
      <point x="202" y="1221" type="curve" smooth="yes"/>
      <point x="187" y="1211"/>
      <point x="170" y="1206"/>
      <point x="152" y="1206" type="curve" smooth="yes"/>
      <point x="111" y="1206"/>
      <point x="78" y="1240"/>
      <point x="78" y="1287" type="curve" smooth="yes"/>
    </contour>
    <contour>
      <point x="441" y="1326"/>
      <point x="461" y="1362"/>
      <point x="490" y="1382" type="curve"/>
      <point x="505" y="1391"/>
      <point x="520" y="1396"/>
      <point x="537" y="1396" type="curve" smooth="yes"/>
      <point x="585" y="1396"/>
      <point x="616" y="1362"/>
      <point x="616" y="1317" type="curve" smooth="yes"/>
      <point x="616" y="1277"/>
      <point x="596" y="1241"/>
      <point x="565" y="1221" type="curve" smooth="yes"/>
      <point x="550" y="1211"/>
      <point x="533" y="1206"/>
      <point x="515" y="1206" type="curve" smooth="yes"/>
      <point x="474" y="1206"/>
      <point x="441" y="1239"/>
      <point x="441" y="1286" type="curve" smooth="yes"/>
    </contour>
  </outline>
</glyph>
<glyph name="copyright" format="1">
  <advance width="1520"/>
  <unicode hex="00A9"/>
  <note>
	copyright
  </note>
  <outline>
    <contour>
      <point x="1038" y="1340"/>
      <point x="1248" y="1216"/>
      <point x="1365" y="1018" type="curve" smooth="yes"/>
      <point x="1424" y="919"/>
      <point x="1453" y="810"/>
      <point x="1453" y="692" type="curve" smooth="yes"/>
      <point x="1453" y="456"/>
      <point x="1327" y="247"/>
      <point x="1128" y="131" type="curve" smooth="yes"/>
      <point x="1029" y="73"/>
      <point x="920" y="44"/>
      <point x="802" y="44" type="curve" smooth="yes"/>
      <point x="567" y="44"/>
      <point x="357" y="169"/>
      <point x="241" y="367" type="curve" smooth="yes"/>
      <point x="182" y="466"/>
      <point x="153" y="574"/>
      <point x="153" y="692" type="curve" smooth="yes"/>
      <point x="153" y="928"/>
      <point x="278" y="1137"/>
      <point x="477" y="1253" type="curve" smooth="yes"/>
      <point x="576" y="1311"/>
      <point x="685" y="1340"/>
      <point x="802" y="1340" type="curve" smooth="yes"/>
    </contour>
    <contour>
      <point x="1011" y="118"/>
      <point x="1195" y="229"/>
      <point x="1297" y="405" type="curve" smooth="yes"/>
      <point x="1348" y="493"/>
      <point x="1373" y="589"/>
      <point x="1373" y="692" type="curve" smooth="yes"/>
      <point x="1373" y="900"/>
      <point x="1265" y="1086"/>
      <point x="1090" y="1190" type="curve" smooth="yes"/>
      <point x="1003" y="1241"/>
      <point x="907" y="1267"/>
      <point x="802" y="1267" type="curve" smooth="yes"/>
      <point x="595" y="1267"/>
      <point x="409" y="1156"/>
      <point x="308" y="980" type="curve" smooth="yes"/>
      <point x="257" y="892"/>
      <point x="232" y="796"/>
      <point x="232" y="692" type="curve" smooth="yes"/>
      <point x="232" y="484"/>
      <point x="340" y="299"/>
      <point x="516" y="196" type="curve" smooth="yes"/>
      <point x="603" y="144"/>
      <point x="699" y="118"/>
      <point x="802" y="118" type="curve" smooth="yes"/>
    </contour>
    <contour>
      <point x="912" y="1072"/>
      <point x="1000" y="1058"/>
      <point x="1035" y="1039" type="curve"/>
      <point x="1035" y="863" type="line"/>
      <point x="984" y="863" type="line"/>
      <point x="949" y="980" type="line"/>
      <point x="925" y="1000"/>
      <point x="871" y="1012"/>
      <point x="808" y="1012" type="curve" smooth="yes"/>
      <point x="717" y="1012"/>
      <point x="640" y="966"/>
      <point x="599" y="879" type="curve" smooth="yes"/>
      <point x="578" y="836"/>
      <point x="568" y="784"/>
      <point x="568" y="725" type="curve" smooth="yes"/>
      <point x="568" y="574"/>
      <point x="622" y="470"/>
      <point x="699" y="421" type="curve" smooth="yes"/>
      <point x="737" y="396"/>
      <point x="777" y="384"/>
      <point x="820" y="384" type="curve" smooth="yes"/>
      <point x="895" y="384"/>
      <point x="970" y="409"/>
      <point x="1023" y="440" type="curve"/>
      <point x="1043" y="393" type="line"/>
      <point x="991" y="349"/>
      <point x="888" y="314"/>
      <point x="791" y="314" type="curve" smooth="yes"/>
      <point x="658" y="314"/>
      <point x="557" y="386"/>
      <point x="505" y="501" type="curve" smooth="yes"/>
      <point x="479" y="558"/>
      <point x="466" y="622"/>
      <point x="466" y="692" type="curve" smooth="yes"/>
      <point x="466" y="831"/>
      <point x="528" y="952"/>
      <point x="639" y="1021" type="curve" smooth="yes"/>
      <point x="694" y="1055"/>
      <point x="759" y="1072"/>
      <point x="833" y="1072" type="curve" smooth="yes"/>
    </contour>
  </outline>
</glyph>
<glyph name="ordfeminine" format="1">
  <advance width="734"/>
  <unicode hex="00AA"/>
  <note>
	ordfeminine
  </note>
  <outline>
    <contour>
      <point x="82" y="1041"/>
      <point x="165" y="1196"/>
      <point x="300" y="1288" type="curve" smooth="yes"/>
      <point x="367" y="1333"/>
      <point x="441" y="1356"/>
      <point x="521" y="1356" type="curve" smooth="yes"/>
      <point x="570" y="1356"/>
      <point x="630" y="1346"/>
      <point x="671" y="1331" type="curve"/>
      <point x="740" y="1358" type="line"/>
      <point x="633" y="776" type="line" smooth="yes"/>
      <point x="631" y="763"/>
      <point x="630" y="752"/>
      <point x="630" y="742" type="curve" smooth="yes"/>
      <point x="630" y="717"/>
      <point x="637" y="705"/>
      <point x="650" y="705" type="curve" smooth="yes"/>
      <point x="665" y="705"/>
      <point x="685" y="714"/>
      <point x="710" y="732" type="curve"/>
      <point x="727" y="703" type="line"/>
      <point x="720" y="694"/>
      <point x="686" y="668"/>
      <point x="646" y="652" type="curve" smooth="yes"/>
      <point x="625" y="643"/>
      <point x="606" y="639"/>
      <point x="588" y="639" type="curve" smooth="yes"/>
      <point x="545" y="639"/>
      <point x="517" y="672"/>
      <point x="517" y="723" type="curve" smooth="yes"/>
      <point x="517" y="737"/>
      <point x="518" y="749"/>
      <point x="521" y="760" type="curve"/>
      <point x="464" y="691"/>
      <point x="396" y="639"/>
      <point x="293" y="639" type="curve" smooth="yes"/>
      <point x="160" y="639"/>
      <point x="82" y="735"/>
      <point x="82" y="894" type="curve" smooth="yes"/>
    </contour>
    <contour>
      <point x="602" y="1239" type="line"/>
      <point x="579" y="1267"/>
      <point x="537" y="1286"/>
      <point x="506" y="1286" type="curve" smooth="yes"/>
      <point x="383" y="1286"/>
      <point x="288" y="1203"/>
      <point x="239" y="1086" type="curve" smooth="yes"/>
      <point x="214" y="1027"/>
      <point x="202" y="967"/>
      <point x="202" y="905" type="curve" smooth="yes"/>
      <point x="202" y="788"/>
      <point x="248" y="721"/>
      <point x="345" y="721" type="curve" smooth="yes"/>
      <point x="405" y="721"/>
      <point x="469" y="763"/>
      <point x="525" y="818" type="curve"/>
    </contour>
  </outline>
</glyph>
<glyph name="guillemotleft" format="1">
  <advance width="1607"/>
  <unicode hex="00AB"/>
  <note>
	guillemotleft
  </note>
  <outline>
    <contour>
      <point x="819" y="934" type="line"/>
      <point x="844" y="854" type="line"/>
      <point x="366" y="528" type="line"/>
      <point x="755" y="208" type="line"/>
      <point x="709" y="131" type="line"/>
      <point x="208" y="470" type="line"/>
      <point x="221" y="580" type="line"/>
    </contour>
    <contour>
      <point x="1399" y="934" type="line"/>
      <point x="1424" y="854" type="line"/>
      <point x="946" y="528" type="line"/>
      <point x="1335" y="208" type="line"/>
      <point x="1289" y="131" type="line"/>
      <point x="788" y="470" type="line"/>
      <point x="801" y="580" type="line"/>
    </contour>
  </outline>
</glyph>
<glyph name="logicalnot" format="1">
  <advance width="1178"/>
  <unicode hex="00AC"/>
  <note>
	logicalnot
  </note>
  <outline>
    <contour>
      <point x="1022" y="720" type="line"/>
      <point x="971" y="277" type="line"/>
      <point x="855" y="277" type="line"/>
      <point x="896" y="629" type="line"/>
      <point x="184" y="629" type="line"/>
      <point x="194" y="720" type="line"/>
    </contour>
  </outline>
</glyph>
<glyph name="uni00AD" format="1">
  <advance width="1093"/>
  <unicode hex="00AD"/>
  <note>
	uni00AD
  </note>
  <outline>
    <contour>
      <point x="933" y="719" type="line"/>
      <point x="922" y="610" type="line"/>
      <point x="206" y="610" type="line"/>
      <point x="218" y="719" type="line"/>
    </contour>
  </outline>
</glyph>
<glyph name="registered" format="1">
  <advance width="1520"/>
  <unicode hex="00AE"/>
  <note>
	registered
  </note>
  <outline>
    <contour>
      <point x="1038" y="1341"/>
      <point x="1248" y="1217"/>
      <point x="1365" y="1018" type="curve" smooth="yes"/>
      <point x="1424" y="919"/>
      <point x="1453" y="810"/>
      <point x="1453" y="693" type="curve" smooth="yes"/>
      <point x="1453" y="457"/>
      <point x="1327" y="247"/>
      <point x="1128" y="132" type="curve" smooth="yes"/>
      <point x="1029" y="74"/>
      <point x="920" y="45"/>
      <point x="802" y="45" type="curve" smooth="yes"/>
      <point x="567" y="45"/>
      <point x="357" y="168"/>
      <point x="241" y="367" type="curve" smooth="yes"/>
      <point x="182" y="466"/>
      <point x="153" y="575"/>
      <point x="153" y="693" type="curve" smooth="yes"/>
      <point x="153" y="928"/>
      <point x="278" y="1138"/>
      <point x="477" y="1254" type="curve" smooth="yes"/>
      <point x="576" y="1312"/>
      <point x="685" y="1341"/>
      <point x="802" y="1341" type="curve" smooth="yes"/>
    </contour>
    <contour>
      <point x="1011" y="119"/>
      <point x="1196" y="229"/>
      <point x="1297" y="406" type="curve" smooth="yes"/>
      <point x="1348" y="494"/>
      <point x="1373" y="590"/>
      <point x="1373" y="693" type="curve" smooth="yes"/>
      <point x="1373" y="901"/>
      <point x="1265" y="1087"/>
      <point x="1090" y="1191" type="curve" smooth="yes"/>
      <point x="1003" y="1242"/>
      <point x="907" y="1268"/>
      <point x="802" y="1268" type="curve" smooth="yes"/>
      <point x="595" y="1268"/>
      <point x="409" y="1157"/>
      <point x="308" y="981" type="curve" smooth="yes"/>
      <point x="257" y="893"/>
      <point x="232" y="797"/>
      <point x="232" y="693" type="curve" smooth="yes"/>
      <point x="232" y="485"/>
      <point x="340" y="299"/>
      <point x="516" y="196" type="curve" smooth="yes"/>
      <point x="603" y="145"/>
      <point x="699" y="119"/>
      <point x="802" y="119" type="curve" smooth="yes"/>
    </contour>
    <contour>
      <point x="574" y="389" type="line"/>
      <point x="574" y="992" type="line"/>
      <point x="492" y="1009" type="line"/>
      <point x="492" y="1066" type="line"/>
      <point x="614" y="1066" type="line"/>
      <point x="641" y="1066" type="line" smooth="yes"/>
      <point x="650" y="1066"/>
      <point x="670" y="1067"/>
      <point x="703" y="1068" type="curve" smooth="yes"/>
      <point x="820" y="1071" type="line" smooth="yes"/>
      <point x="992" y="1071"/>
      <point x="1089" y="993"/>
      <point x="1092" y="872" type="curve" smooth="yes"/>
      <point x="1092" y="750"/>
      <point x="1022" y="679"/>
      <point x="883" y="658" type="curve"/>
      <point x="946" y="623"/>
      <point x="976" y="574"/>
      <point x="1023" y="487" type="curve" smooth="yes"/>
      <point x="1055" y="428"/>
      <point x="1070" y="402"/>
      <point x="1095" y="386" type="curve"/>
      <point x="1110" y="380"/>
      <point x="1128" y="377"/>
      <point x="1151" y="377" type="curve"/>
      <point x="1151" y="322" type="line"/>
      <point x="1035" y="322" type="line" smooth="yes"/>
      <point x="1022" y="322"/>
      <point x="1010" y="330"/>
      <point x="999" y="347" type="curve" smooth="yes"/>
      <point x="988" y="364"/>
      <point x="973" y="391"/>
      <point x="955" y="428" type="curve" smooth="yes"/>
      <point x="922" y="500"/>
      <point x="897" y="548"/>
      <point x="854" y="594" type="curve" smooth="yes"/>
      <point x="833" y="617"/>
      <point x="809" y="634"/>
      <point x="782" y="646" type="curve"/>
      <point x="666" y="646" type="line"/>
      <point x="666" y="389" type="line"/>
      <point x="772" y="375" type="line"/>
      <point x="772" y="322" type="line"/>
      <point x="492" y="322" type="line"/>
      <point x="492" y="375" type="line"/>
    </contour>
    <contour>
      <point x="890" y="703"/>
      <point x="943" y="734"/>
      <point x="969" y="781" type="curve" smooth="yes"/>
      <point x="982" y="804"/>
      <point x="988" y="830"/>
      <point x="988" y="857" type="curve" smooth="yes"/>
      <point x="988" y="956"/>
      <point x="923" y="1008"/>
      <point x="803" y="1008" type="curve" smooth="yes"/>
      <point x="739" y="1008"/>
      <point x="705" y="1007"/>
      <point x="666" y="999" type="curve"/>
      <point x="666" y="708" type="line"/>
      <point x="687" y="705"/>
      <point x="739" y="703"/>
      <point x="821" y="703" type="curve" smooth="yes"/>
    </contour>
  </outline>
</glyph>
<glyph name="macron" format="1">
  <advance width="528"/>
  <unicode hex="00AF"/>
  <note>
	macron
  </note>
  <outline>
    <contour>
      <point x="493" y="1334" type="line"/>
      <point x="479" y="1232" type="line"/>
      <point x="41" y="1232" type="line"/>
      <point x="54" y="1334" type="line"/>
    </contour>
  </outline>
</glyph>
<glyph name="degree" format="1">
  <advance width="773"/>
  <unicode hex="00B0"/>
  <note>
	degree
  </note>
  <outline>
    <contour>
      <point x="176" y="1199"/>
      <point x="230" y="1290"/>
      <point x="318" y="1339" type="curve" smooth="yes"/>
      <point x="362" y="1364"/>
      <point x="411" y="1376"/>
      <point x="466" y="1376" type="curve" smooth="yes"/>
      <point x="570" y="1376"/>
      <point x="658" y="1324"/>
      <point x="706" y="1241" type="curve" smooth="yes"/>
      <point x="730" y="1199"/>
      <point x="742" y="1153"/>
      <point x="742" y="1104" type="curve" smooth="yes"/>
      <point x="742" y="997"/>
      <point x="687" y="907"/>
      <point x="598" y="858" type="curve" smooth="yes"/>
      <point x="553" y="833"/>
      <point x="504" y="821"/>
      <point x="450" y="821" type="curve" smooth="yes"/>
      <point x="349" y="821"/>
      <point x="261" y="873"/>
      <point x="213" y="957" type="curve" smooth="yes"/>
      <point x="188" y="999"/>
      <point x="176" y="1045"/>
      <point x="176" y="1094" type="curve" smooth="yes"/>
    </contour>
    <contour>
      <point x="650" y="1175"/>
      <point x="614" y="1235"/>
      <point x="557" y="1268" type="curve" smooth="yes"/>
      <point x="528" y="1284"/>
      <point x="497" y="1292"/>
      <point x="463" y="1292" type="curve" smooth="yes"/>
      <point x="390" y="1292"/>
      <point x="328" y="1256"/>
      <point x="294" y="1197" type="curve" smooth="yes"/>
      <point x="277" y="1167"/>
      <point x="268" y="1133"/>
      <point x="268" y="1096" type="curve" smooth="yes"/>
      <point x="268" y="1025"/>
      <point x="303" y="965"/>
      <point x="360" y="931" type="curve" smooth="yes"/>
      <point x="389" y="914"/>
      <point x="420" y="905"/>
      <point x="454" y="905" type="curve" smooth="yes"/>
      <point x="529" y="905"/>
      <point x="591" y="941"/>
      <point x="625" y="1002" type="curve" smooth="yes"/>
      <point x="642" y="1032"/>
      <point x="650" y="1066"/>
      <point x="650" y="1104" type="curve" smooth="yes"/>
    </contour>
  </outline>
</glyph>
<glyph name="plusminus" format="1">
  <advance width="1178"/>
  <unicode hex="00B1"/>
  <note>
	plusminus
  </note>
  <outline>
    <contour>
      <point x="549" y="615" type="line"/>
      <point x="410" y="610" type="line"/>
      <point x="217" y="610" type="line"/>
      <point x="228" y="719" type="line"/>
      <point x="422" y="719" type="line"/>
      <point x="559" y="711" type="line"/>
      <point x="562" y="749"/>
      <point x="565" y="775"/>
      <point x="567" y="788" type="curve"/>
      <point x="568" y="799"/>
      <point x="569" y="811"/>
      <point x="571" y="825" type="curve"/>
      <point x="572" y="838"/>
      <point x="573" y="851"/>
      <point x="574" y="864" type="curve" smooth="yes"/>
      <point x="596" y="1062" type="line"/>
      <point x="714" y="1062" type="line"/>
      <point x="691" y="864" type="line"/>
      <point x="666" y="711" type="line"/>
      <point x="781" y="719" type="line"/>
      <point x="1000" y="719" type="line"/>
      <point x="989" y="610" type="line"/>
      <point x="769" y="610" type="line"/>
      <point x="656" y="615" type="line"/>
      <point x="655" y="606"/>
      <point x="653" y="584"/>
      <point x="650" y="550" type="curve" smooth="yes"/>
      <point x="645" y="506"/>
      <point x="643" y="476"/>
      <point x="642" y="461" type="curve"/>
      <point x="617" y="254" type="line"/>
      <point x="500" y="254" type="line"/>
      <point x="525" y="461" type="line"/>
    </contour>
    <contour>
      <point x="913" y="129" type="line"/>
      <point x="902" y="26" type="line"/>
      <point x="155" y="26" type="line"/>
      <point x="166" y="129" type="line"/>
    </contour>
  </outline>
</glyph>
<glyph name="uni00B2" format="1">
  <advance width="877"/>
  <unicode hex="00B2"/>
  <note>
	uni00B2
  </note>
  <outline>
    <contour>
      <point x="114" y="673" type="line"/>
      <point x="381" y="829"/>
      <point x="678" y="1045"/>
      <point x="678" y="1244" type="curve" smooth="yes"/>
      <point x="678" y="1321"/>
      <point x="618" y="1379"/>
      <point x="514" y="1379" type="curve" smooth="yes"/>
      <point x="413" y="1379"/>
      <point x="305" y="1328"/>
      <point x="250" y="1271" type="curve"/>
      <point x="210" y="1320" type="line"/>
      <point x="245" y="1364"/>
      <point x="316" y="1416"/>
      <point x="405" y="1448" type="curve" smooth="yes"/>
      <point x="449" y="1464"/>
      <point x="494" y="1472"/>
      <point x="540" y="1472" type="curve" smooth="yes"/>
      <point x="649" y="1472"/>
      <point x="727" y="1432"/>
      <point x="767" y="1372" type="curve"/>
      <point x="786" y="1341"/>
      <point x="796" y="1308"/>
      <point x="796" y="1272" type="curve" smooth="yes"/>
      <point x="796" y="1145"/>
      <point x="670" y="989"/>
      <point x="502" y="856" type="curve" smooth="yes"/>
      <point x="417" y="789"/>
      <point x="332" y="733"/>
      <point x="246" y="686" type="curve"/>
      <point x="696" y="706" type="line"/>
      <point x="762" y="841" type="line"/>
      <point x="828" y="828" type="line"/>
      <point x="772" y="605" type="line"/>
      <point x="133" y="605" type="line"/>
    </contour>
  </outline>
</glyph>
<glyph name="uni00B3" format="1">
  <advance width="877"/>
  <unicode hex="00B3"/>
  <note>
	uni00B3
  </note>
  <outline>
    <contour>
      <point x="176" y="717" type="line"/>
      <point x="240" y="688"/>
      <point x="319" y="669"/>
      <point x="386" y="669" type="curve" smooth="yes"/>
      <point x="571" y="669"/>
      <point x="694" y="734"/>
      <point x="705" y="862" type="curve" smooth="yes"/>
      <point x="706" y="875" type="line"/>
      <point x="706" y="926"/>
      <point x="678" y="970"/>
      <point x="626" y="998" type="curve"/>
      <point x="599" y="1011"/>
      <point x="568" y="1018"/>
      <point x="532" y="1018" type="curve" smooth="yes"/>
      <point x="523" y="1018"/>
      <point x="517" y="1018"/>
      <point x="512" y="1017" type="curve"/>
      <point x="501" y="1014"/>
      <point x="484" y="1009"/>
      <point x="460" y="1000" type="curve" smooth="yes"/>
      <point x="449" y="996"/>
      <point x="391" y="976"/>
      <point x="376" y="973" type="curve"/>
      <point x="366" y="1047" type="line"/>
      <point x="466" y="1068"/>
      <point x="568" y="1112"/>
      <point x="627" y="1169" type="curve" smooth="yes"/>
      <point x="656" y="1197"/>
      <point x="673" y="1229"/>
      <point x="677" y="1265" type="curve" smooth="yes"/>
      <point x="678" y="1275"/>
      <point x="679" y="1282"/>
      <point x="679" y="1286" type="curve" smooth="yes"/>
      <point x="679" y="1350"/>
      <point x="639" y="1388"/>
      <point x="523" y="1388" type="curve" smooth="yes"/>
      <point x="434" y="1388"/>
      <point x="343" y="1348"/>
      <point x="279" y="1295" type="curve"/>
      <point x="246" y="1355" type="line"/>
      <point x="326" y="1423"/>
      <point x="441" y="1474"/>
      <point x="564" y="1474" type="curve" smooth="yes"/>
      <point x="661" y="1474"/>
      <point x="734" y="1445"/>
      <point x="771" y="1397" type="curve" smooth="yes"/>
      <point x="790" y="1372"/>
      <point x="799" y="1344"/>
      <point x="799" y="1313" type="curve" smooth="yes"/>
      <point x="799" y="1306"/>
      <point x="799" y="1300"/>
      <point x="798" y="1296" type="curve"/>
      <point x="789" y="1191"/>
      <point x="717" y="1112"/>
      <point x="580" y="1059" type="curve"/>
      <point x="586" y="1060"/>
      <point x="595" y="1060"/>
      <point x="606" y="1060" type="curve" smooth="yes"/>
      <point x="713" y="1060"/>
      <point x="777" y="1020"/>
      <point x="806" y="965" type="curve" smooth="yes"/>
      <point x="820" y="938"/>
      <point x="827" y="909"/>
      <point x="827" y="880" type="curve" smooth="yes"/>
      <point x="827" y="872"/>
      <point x="827" y="866"/>
      <point x="826" y="863" type="curve"/>
      <point x="815" y="760"/>
      <point x="736" y="674"/>
      <point x="612" y="627" type="curve" smooth="yes"/>
      <point x="549" y="604"/>
      <point x="480" y="592"/>
      <point x="403" y="592" type="curve" smooth="yes"/>
      <point x="330" y="592"/>
      <point x="236" y="609"/>
      <point x="168" y="644" type="curve"/>
    </contour>
  </outline>
</glyph>
<glyph name="acute" format="1">
  <advance width="480"/>
  <unicode hex="00B4"/>
  <note>
	acute
  </note>
  <outline>
    <contour>
      <point x="328" y="1487" type="line"/>
      <point x="421" y="1393" type="line"/>
      <point x="397" y="1354"/>
      <point x="306" y="1253"/>
      <point x="212" y="1170" type="curve" smooth="yes"/>
      <point x="165" y="1128"/>
      <point x="125" y="1098"/>
      <point x="92" y="1079" type="curve"/>
      <point x="50" y="1121" type="line"/>
    </contour>
  </outline>
</glyph>
<glyph name="uni00B5" format="1">
  <advance width="1173"/>
  <unicode hex="00B5"/>
  <note>
	uni00B5
  </note>
  <outline>
    <contour>
      <point x="108" y="-320" type="line"/>
      <point x="201" y="308" type="line" smooth="yes"/>
      <point x="204" y="327"/>
      <point x="213" y="381"/>
      <point x="226" y="470" type="curve" smooth="yes"/>
      <point x="251" y="621"/>
      <point x="268" y="740"/>
      <point x="277" y="826" type="curve"/>
      <point x="278" y="833"/>
      <point x="278" y="843"/>
      <point x="278" y="855" type="curve" smooth="yes"/>
      <point x="278" y="884"/>
      <point x="271" y="899"/>
      <point x="254" y="899" type="curve" smooth="yes"/>
      <point x="237" y="899"/>
      <point x="219" y="887"/>
      <point x="192" y="862" type="curve"/>
      <point x="169" y="899" type="line"/>
      <point x="178" y="916"/>
      <point x="212" y="951"/>
      <point x="256" y="973" type="curve" smooth="yes"/>
      <point x="277" y="984"/>
      <point x="300" y="989"/>
      <point x="323" y="989" type="curve" smooth="yes"/>
      <point x="382" y="989"/>
      <point x="411" y="965"/>
      <point x="411" y="901" type="curve" smooth="yes"/>
      <point x="411" y="892"/>
      <point x="411" y="884"/>
      <point x="410" y="878" type="curve"/>
      <point x="405" y="826"/>
      <point x="395" y="741"/>
      <point x="378" y="622" type="curve" smooth="yes"/>
      <point x="372" y="586" type="line"/>
      <point x="361" y="519" type="line" smooth="yes"/>
      <point x="342" y="404"/>
      <point x="330" y="338"/>
      <point x="329" y="262" type="curve" smooth="yes"/>
      <point x="328" y="139"/>
      <point x="378" y="77"/>
      <point x="480" y="77" type="curve" smooth="yes"/>
      <point x="572" y="77"/>
      <point x="686" y="151"/>
      <point x="754" y="224" type="curve"/>
      <point x="857" y="980" type="line"/>
      <point x="985" y="980" type="line"/>
      <point x="875" y="163" type="line" smooth="yes"/>
      <point x="872" y="142"/>
      <point x="870" y="125"/>
      <point x="870" y="113" type="curve" smooth="yes"/>
      <point x="870" y="88"/>
      <point x="877" y="75"/>
      <point x="894" y="75" type="curve" smooth="yes"/>
      <point x="913" y="75"/>
      <point x="936" y="88"/>
      <point x="964" y="114" type="curve"/>
      <point x="987" y="75" type="line"/>
      <point x="975" y="58"/>
      <point x="940" y="25"/>
      <point x="895" y="2" type="curve" smooth="yes"/>
      <point x="872" y="-9"/>
      <point x="849" y="-15"/>
      <point x="826" y="-15" type="curve" smooth="yes"/>
      <point x="766" y="-15"/>
      <point x="737" y="5"/>
      <point x="737" y="69" type="curve" smooth="yes"/>
      <point x="737" y="84"/>
      <point x="738" y="98"/>
      <point x="740" y="113" type="curve"/>
      <point x="667" y="38"/>
      <point x="557" y="-17"/>
      <point x="432" y="-17" type="curve" smooth="yes"/>
      <point x="365" y="-16"/>
      <point x="311" y="9"/>
      <point x="286" y="50" type="curve"/>
      <point x="230" y="-320" type="line"/>
    </contour>
  </outline>
</glyph>
<glyph name="paragraph" format="1">
  <advance width="1173"/>
  <unicode hex="00B6"/>
  <note>
	paragraph
  </note>
  <outline>
    <contour>
      <point x="384" y="81" type="line"/>
      <point x="454" y="645" type="line"/>
      <point x="326" y="649"/>
      <point x="227" y="696"/>
      <point x="175" y="787" type="curve" smooth="yes"/>
      <point x="148" y="832"/>
      <point x="135" y="887"/>
      <point x="135" y="950" type="curve" smooth="yes"/>
      <point x="135" y="1189"/>
      <point x="285" y="1330"/>
      <point x="609" y="1330" type="curve" smooth="yes"/>
      <point x="678" y="1330"/>
      <point x="751" y="1325"/>
      <point x="808" y="1321" type="curve" smooth="yes"/>
      <point x="873" y="1316"/>
      <point x="918" y="1314"/>
      <point x="945" y="1314" type="curve" smooth="yes"/>
      <point x="1157" y="1314" type="line"/>
      <point x="1150" y="1243" type="line"/>
      <point x="1002" y="1220" type="line"/>
      <point x="999" y="1203"/>
      <point x="969" y="955"/>
      <point x="912" y="478" type="curve" smooth="yes"/>
      <point x="864" y="81" type="line"/>
      <point x="1001" y="59" type="line"/>
      <point x="995" y="0" type="line"/>
      <point x="726" y="0" type="line"/>
      <point x="872" y="1219" type="line"/>
      <point x="863" y="1219"/>
      <point x="829" y="1220"/>
      <point x="768" y="1221" type="curve" smooth="yes"/>
      <point x="707" y="1222"/>
      <point x="670" y="1223"/>
      <point x="655" y="1222" type="curve"/>
      <point x="500" y="0" type="line"/>
      <point x="220" y="0" type="line"/>
      <point x="225" y="60" type="line"/>
    </contour>
  </outline>
</glyph>
<glyph name="periodcentered" format="1">
  <advance width="589"/>
  <unicode hex="00B7"/>
  <note>
	periodcentered
  </note>
  <outline>
    <contour>
      <point x="361" y="717"/>
      <point x="387" y="688"/>
      <point x="387" y="644" type="curve" smooth="yes"/>
      <point x="387" y="636"/>
      <point x="387" y="630"/>
      <point x="386" y="626" type="curve"/>
      <point x="377" y="562"/>
      <point x="328" y="521"/>
      <point x="275" y="521" type="curve" smooth="yes"/>
      <point x="231" y="521"/>
      <point x="203" y="548"/>
      <point x="203" y="596" type="curve" smooth="yes"/>
      <point x="203" y="603"/>
      <point x="203" y="609"/>
      <point x="204" y="612" type="curve"/>
      <point x="212" y="672"/>
      <point x="258" y="717"/>
      <point x="309" y="717" type="curve" smooth="yes"/>
    </contour>
  </outline>
</glyph>
<glyph name="cedilla" format="1">
  <advance width="411"/>
  <unicode hex="00B8"/>
  <note>
	cedilla
  </note>
  <outline>
    <contour>
      <point x="322" y="18" type="line"/>
      <point x="342" y="-15"/>
      <point x="352" y="-60"/>
      <point x="352" y="-117" type="curve" smooth="yes"/>
      <point x="352" y="-244"/>
      <point x="309" y="-328"/>
      <point x="240" y="-368" type="curve" smooth="yes"/>
      <point x="205" y="-389"/>
      <point x="166" y="-399"/>
      <point x="122" y="-399" type="curve" smooth="yes"/>
      <point x="77" y="-399"/>
      <point x="30" y="-388"/>
      <point x="10" y="-375" type="curve"/>
      <point x="21" y="-272" type="line"/>
      <point x="36" y="-280"/>
      <point x="73" y="-286"/>
      <point x="108" y="-286" type="curve" smooth="yes"/>
      <point x="213" y="-286"/>
      <point x="271" y="-203"/>
      <point x="271" y="-74" type="curve" smooth="yes"/>
      <point x="271" y="-40"/>
      <point x="266" y="-9"/>
      <point x="255" y="18" type="curve"/>
      <point x="287" y="22" type="line"/>
    </contour>
  </outline>
</glyph>
<glyph name="uni00B9" format="1">
  <advance width="877"/>
  <unicode hex="00B9"/>
  <note>
	uni00B9
  </note>
  <outline>
    <contour>
      <point x="444" y="688" type="line"/>
      <point x="525" y="1324" type="line"/>
      <point x="465" y="1297"/>
      <point x="363" y="1272"/>
      <point x="267" y="1255" type="curve"/>
      <point x="262" y="1326" type="line"/>
      <point x="395" y="1365"/>
      <point x="514" y="1408"/>
      <point x="598" y="1468" type="curve"/>
      <point x="600" y="1468" type="line"/>
      <point x="652" y="1456" type="line"/>
      <point x="557" y="688" type="line"/>
      <point x="780" y="671" type="line"/>
      <point x="772" y="604" type="line"/>
      <point x="209" y="604" type="line"/>
      <point x="217" y="672" type="line"/>
    </contour>
  </outline>
</glyph>
<glyph name="ordmasculine" format="1">
  <advance width="734"/>
  <unicode hex="00BA"/>
  <note>
	ordmasculine
  </note>
  <outline>
    <contour>
      <point x="78" y="1108"/>
      <point x="167" y="1245"/>
      <point x="288" y="1315" type="curve" smooth="yes"/>
      <point x="349" y="1350"/>
      <point x="409" y="1367"/>
      <point x="470" y="1367" type="curve" smooth="yes"/>
      <point x="591" y="1367"/>
      <point x="677" y="1312"/>
      <point x="721" y="1221" type="curve" smooth="yes"/>
      <point x="742" y="1175"/>
      <point x="753" y="1122"/>
      <point x="753" y="1061" type="curve" smooth="yes"/>
      <point x="753" y="886"/>
      <point x="670" y="751"/>
      <point x="550" y="682" type="curve" smooth="yes"/>
      <point x="490" y="647"/>
      <point x="428" y="630"/>
      <point x="364" y="630" type="curve" smooth="yes"/>
      <point x="252" y="630"/>
      <point x="162" y="681"/>
      <point x="114" y="773" type="curve" smooth="yes"/>
      <point x="90" y="818"/>
      <point x="78" y="872"/>
      <point x="78" y="933" type="curve" smooth="yes"/>
    </contour>
    <contour>
      <point x="626" y="1145"/>
      <point x="600" y="1224"/>
      <point x="549" y="1267" type="curve" smooth="yes"/>
      <point x="524" y="1288"/>
      <point x="493" y="1299"/>
      <point x="458" y="1299" type="curve" smooth="yes"/>
      <point x="355" y="1299"/>
      <point x="276" y="1222"/>
      <point x="236" y="1114" type="curve" smooth="yes"/>
      <point x="215" y="1059"/>
      <point x="205" y="1003"/>
      <point x="205" y="945" type="curve" smooth="yes"/>
      <point x="205" y="849"/>
      <point x="236" y="773"/>
      <point x="285" y="733" type="curve" smooth="yes"/>
      <point x="310" y="713"/>
      <point x="337" y="703"/>
      <point x="367" y="703" type="curve" smooth="yes"/>
      <point x="478" y="703"/>
      <point x="557" y="774"/>
      <point x="597" y="879" type="curve" smooth="yes"/>
      <point x="616" y="931"/>
      <point x="626" y="988"/>
      <point x="626" y="1049" type="curve" smooth="yes"/>
    </contour>
  </outline>
</glyph>
<glyph name="guillemotright" format="1">
  <advance width="1607"/>
  <unicode hex="00BB"/>
  <note>
	guillemotright
  </note>
  <outline>
    <contour>
      <point x="143" y="131" type="line"/>
      <point x="118" y="211" type="line"/>
      <point x="596" y="537" type="line"/>
      <point x="207" y="857" type="line"/>
      <point x="253" y="934" type="line"/>
      <point x="754" y="594" type="line"/>
      <point x="740" y="485" type="line"/>
    </contour>
    <contour>
      <point x="724" y="131" type="line"/>
      <point x="699" y="211" type="line"/>
      <point x="1177" y="537" type="line"/>
      <point x="789" y="857" type="line"/>
      <point x="834" y="934" type="line"/>
      <point x="1336" y="594" type="line"/>
      <point x="1322" y="485" type="line"/>
    </contour>
  </outline>
</glyph>
<glyph name="onequarter" format="1">
  <advance width="2152"/>
  <unicode hex="00BC"/>
  <note>
	onequarter
  </note>
  <outline>
    <contour>
      <point x="418" y="539" type="line"/>
      <point x="499" y="1175" type="line"/>
      <point x="439" y="1148"/>
      <point x="337" y="1123"/>
      <point x="241" y="1106" type="curve"/>
      <point x="236" y="1177" type="line"/>
      <point x="369" y="1216"/>
      <point x="488" y="1259"/>
      <point x="572" y="1319" type="curve"/>
      <point x="574" y="1319" type="line"/>
      <point x="626" y="1307" type="line"/>
      <point x="531" y="539" type="line"/>
      <point x="754" y="522" type="line"/>
      <point x="746" y="455" type="line"/>
      <point x="183" y="455" type="line"/>
      <point x="191" y="523" type="line"/>
    </contour>
    <contour>
      <point x="1669" y="889" type="line"/>
      <point x="1710" y="889" type="line"/>
      <point x="1772" y="833" type="line"/>
      <point x="1390" y="316" type="line"/>
      <point x="1329" y="231" type="line"/>
      <point x="1700" y="251" type="line"/>
      <point x="1727" y="468" type="line"/>
      <point x="1840" y="481" type="line"/>
      <point x="1812" y="257" type="line"/>
      <point x="1974" y="267" type="line"/>
      <point x="1963" y="165" type="line"/>
      <point x="1800" y="165" type="line"/>
      <point x="1779" y="-13" type="line"/>
      <point x="1668" y="-13" type="line"/>
      <point x="1689" y="165" type="line"/>
      <point x="1234" y="165" type="line"/>
      <point x="1210" y="224" type="line"/>
    </contour>
    <contour>
      <point x="1396" y="1316" type="line"/>
      <point x="811" y="0" type="line"/>
      <point x="705" y="0" type="line"/>
      <point x="1290" y="1316" type="line"/>
    </contour>
  </outline>
</glyph>
<glyph name="onehalf" format="1">
  <advance width="2152"/>
  <unicode hex="00BD"/>
  <note>
	onehalf
  </note>
  <outline>
    <contour>
      <point x="418" y="539" type="line"/>
      <point x="499" y="1175" type="line"/>
      <point x="439" y="1148"/>
      <point x="337" y="1123"/>
      <point x="241" y="1106" type="curve"/>
      <point x="236" y="1177" type="line"/>
      <point x="369" y="1216"/>
      <point x="488" y="1259"/>
      <point x="572" y="1319" type="curve"/>
      <point x="574" y="1319" type="line"/>
      <point x="626" y="1307" type="line"/>
      <point x="531" y="539" type="line"/>
      <point x="754" y="522" type="line"/>
      <point x="746" y="455" type="line"/>
      <point x="183" y="455" type="line"/>
      <point x="191" y="523" type="line"/>
    </contour>
    <contour>
      <point x="1396" y="1316" type="line"/>
      <point x="811" y="0" type="line"/>
      <point x="705" y="0" type="line"/>
      <point x="1290" y="1316" type="line"/>
    </contour>
    <contour>
      <point x="1233" y="68" type="line"/>
      <point x="1500" y="224"/>
      <point x="1797" y="440"/>
      <point x="1797" y="639" type="curve" smooth="yes"/>
      <point x="1797" y="716"/>
      <point x="1737" y="774"/>
      <point x="1633" y="774" type="curve" smooth="yes"/>
      <point x="1532" y="774"/>
      <point x="1424" y="723"/>
      <point x="1369" y="666" type="curve"/>
      <point x="1329" y="715" type="line"/>
      <point x="1364" y="759"/>
      <point x="1435" y="811"/>
      <point x="1524" y="843" type="curve" smooth="yes"/>
      <point x="1568" y="859"/>
      <point x="1613" y="867"/>
      <point x="1659" y="867" type="curve" smooth="yes"/>
      <point x="1768" y="867"/>
      <point x="1846" y="827"/>
      <point x="1886" y="767" type="curve"/>
      <point x="1905" y="736"/>
      <point x="1915" y="703"/>
      <point x="1915" y="667" type="curve" smooth="yes"/>
      <point x="1915" y="540"/>
      <point x="1789" y="384"/>
      <point x="1621" y="251" type="curve" smooth="yes"/>
      <point x="1536" y="184"/>
      <point x="1451" y="128"/>
      <point x="1365" y="81" type="curve"/>
      <point x="1815" y="101" type="line"/>
      <point x="1881" y="236" type="line"/>
      <point x="1947" y="223" type="line"/>
      <point x="1891" y="0" type="line"/>
      <point x="1252" y="0" type="line"/>
    </contour>
  </outline>
</glyph>
<glyph name="threequarters" format="1">
  <advance width="2152"/>
  <unicode hex="00BE"/>
  <note>
	threequarters
  </note>
  <outline>
    <contour>
      <point x="150" y="567" type="line"/>
      <point x="214" y="538"/>
      <point x="293" y="519"/>
      <point x="360" y="519" type="curve" smooth="yes"/>
      <point x="545" y="519"/>
      <point x="668" y="584"/>
      <point x="679" y="712" type="curve" smooth="yes"/>
      <point x="680" y="725" type="line"/>
      <point x="680" y="776"/>
      <point x="652" y="820"/>
      <point x="600" y="848" type="curve"/>
      <point x="573" y="861"/>
      <point x="542" y="868"/>
      <point x="506" y="868" type="curve" smooth="yes"/>
      <point x="497" y="868"/>
      <point x="491" y="868"/>
      <point x="486" y="867" type="curve"/>
      <point x="475" y="864"/>
      <point x="458" y="859"/>
      <point x="434" y="850" type="curve" smooth="yes"/>
      <point x="423" y="846"/>
      <point x="365" y="826"/>
      <point x="350" y="823" type="curve"/>
      <point x="340" y="897" type="line"/>
      <point x="440" y="918"/>
      <point x="542" y="962"/>
      <point x="601" y="1019" type="curve" smooth="yes"/>
      <point x="630" y="1047"/>
      <point x="647" y="1079"/>
      <point x="651" y="1115" type="curve" smooth="yes"/>
      <point x="652" y="1125"/>
      <point x="653" y="1132"/>
      <point x="653" y="1136" type="curve" smooth="yes"/>
      <point x="653" y="1200"/>
      <point x="613" y="1238"/>
      <point x="497" y="1238" type="curve" smooth="yes"/>
      <point x="408" y="1238"/>
      <point x="317" y="1198"/>
      <point x="253" y="1145" type="curve"/>
      <point x="220" y="1205" type="line"/>
      <point x="300" y="1273"/>
      <point x="415" y="1324"/>
      <point x="538" y="1324" type="curve" smooth="yes"/>
      <point x="635" y="1324"/>
      <point x="708" y="1295"/>
      <point x="745" y="1247" type="curve" smooth="yes"/>
      <point x="764" y="1222"/>
      <point x="773" y="1194"/>
      <point x="773" y="1163" type="curve" smooth="yes"/>
      <point x="773" y="1156"/>
      <point x="773" y="1150"/>
      <point x="772" y="1146" type="curve"/>
      <point x="763" y="1041"/>
      <point x="691" y="962"/>
      <point x="554" y="909" type="curve"/>
      <point x="560" y="910"/>
      <point x="569" y="910"/>
      <point x="580" y="910" type="curve" smooth="yes"/>
      <point x="687" y="910"/>
      <point x="751" y="870"/>
      <point x="780" y="815" type="curve" smooth="yes"/>
      <point x="794" y="788"/>
      <point x="801" y="759"/>
      <point x="801" y="730" type="curve" smooth="yes"/>
      <point x="801" y="722"/>
      <point x="801" y="716"/>
      <point x="800" y="713" type="curve"/>
      <point x="789" y="610"/>
      <point x="710" y="524"/>
      <point x="586" y="477" type="curve" smooth="yes"/>
      <point x="523" y="454"/>
      <point x="454" y="442"/>
      <point x="377" y="442" type="curve" smooth="yes"/>
      <point x="304" y="442"/>
      <point x="210" y="459"/>
      <point x="142" y="494" type="curve"/>
    </contour>
    <contour>
      <point x="1669" y="889" type="line"/>
      <point x="1710" y="889" type="line"/>
      <point x="1772" y="833" type="line"/>
      <point x="1390" y="316" type="line"/>
      <point x="1329" y="231" type="line"/>
      <point x="1700" y="251" type="line"/>
      <point x="1727" y="468" type="line"/>
      <point x="1840" y="481" type="line"/>
      <point x="1812" y="257" type="line"/>
      <point x="1974" y="267" type="line"/>
      <point x="1963" y="165" type="line"/>
      <point x="1800" y="165" type="line"/>
      <point x="1779" y="-13" type="line"/>
      <point x="1668" y="-13" type="line"/>
      <point x="1689" y="165" type="line"/>
      <point x="1234" y="165" type="line"/>
      <point x="1210" y="224" type="line"/>
    </contour>
    <contour>
      <point x="1396" y="1316" type="line"/>
      <point x="811" y="0" type="line"/>
      <point x="705" y="0" type="line"/>
      <point x="1290" y="1316" type="line"/>
    </contour>
  </outline>
</glyph>
<glyph name="questiondown" format="1">
  <advance width="884"/>
  <unicode hex="00BF"/>
  <note>
	questiondown
  </note>
  <outline>
    <contour>
      <point x="626" y="1039"/>
      <point x="600" y="1068"/>
      <point x="600" y="1112" type="curve" smooth="yes"/>
      <point x="600" y="1120"/>
      <point x="600" y="1126"/>
      <point x="601" y="1130" type="curve"/>
      <point x="610" y="1194"/>
      <point x="659" y="1235"/>
      <point x="712" y="1235" type="curve" smooth="yes"/>
      <point x="756" y="1235"/>
      <point x="784" y="1208"/>
      <point x="784" y="1160" type="curve" smooth="yes"/>
      <point x="784" y="1153"/>
      <point x="784" y="1147"/>
      <point x="783" y="1144" type="curve"/>
      <point x="775" y="1084"/>
      <point x="729" y="1039"/>
      <point x="678" y="1039" type="curve" smooth="yes"/>
    </contour>
    <contour>
      <point x="611" y="331"/>
      <point x="243" y="307"/>
      <point x="186" y="37" type="curve" smooth="yes"/>
      <point x="156" y="-107"/>
      <point x="227" y="-200"/>
      <point x="410" y="-200" type="curve" smooth="yes"/>
      <point x="490" y="-200"/>
      <point x="590" y="-176"/>
      <point x="674" y="-127" type="curve"/>
      <point x="684" y="-203" type="line"/>
      <point x="615" y="-254"/>
      <point x="508" y="-307"/>
      <point x="354" y="-307" type="curve" smooth="yes"/>
      <point x="93" y="-307"/>
      <point x="-6" y="-184"/>
      <point x="40" y="34" type="curve" smooth="yes"/>
      <point x="108" y="355"/>
      <point x="554" y="417"/>
      <point x="615" y="707" type="curve" smooth="yes"/>
      <point x="622" y="741"/>
      <point x="619" y="754"/>
      <point x="623" y="793" type="curve"/>
      <point x="691" y="793" type="line"/>
      <point x="692" y="749"/>
      <point x="690" y="710"/>
      <point x="682" y="671" type="curve" smooth="yes"/>
    </contour>
  </outline>
</glyph>
<glyph name="Agrave" format="1">
  <advance width="1154"/>
  <unicode hex="00C0"/>
  <note>
	Agrave
  </note>
  <outline>
    <contour>
      <point x="764" y="1309" type="line"/>
      <point x="989" y="83" type="line"/>
      <point x="1134" y="59" type="line"/>
      <point x="1130" y="0" type="line"/>
      <point x="697" y="0" type="line"/>
      <point x="701" y="59" type="line"/>
      <point x="860" y="80" type="line"/>
      <point x="807" y="396" type="line"/>
      <point x="298" y="396" type="line"/>
      <point x="149" y="81" type="line"/>
      <point x="306" y="59" type="line"/>
      <point x="302" y="0" type="line"/>
      <point x="-103" y="0" type="line"/>
      <point x="-96" y="59" type="line"/>
      <point x="23" y="80" type="line"/>
      <point x="632" y="1309" type="line"/>
    </contour>
    <contour>
      <point x="793" y="479" type="line"/>
      <point x="690" y="1095" type="line"/>
      <point x="679" y="1196" type="line"/>
      <point x="338" y="479" type="line"/>
    </contour>
    <contour>
      <point x="540" y="1720" type="line"/>
      <point x="774" y="1420" type="line"/>
      <point x="730" y="1388" type="line"/>
      <point x="669" y="1423"/>
      <point x="587" y="1485"/>
      <point x="522" y="1550" type="curve" smooth="yes"/>
      <point x="489" y="1582"/>
      <point x="467" y="1612"/>
      <point x="454" y="1639" type="curve"/>
    </contour>
  </outline>
</glyph>
<glyph name="Aacute" format="1">
  <advance width="1154"/>
  <unicode hex="00C1"/>
  <note>
	Aacute
  </note>
  <outline>
    <contour>
      <point x="764" y="1309" type="line"/>
      <point x="989" y="83" type="line"/>
      <point x="1134" y="59" type="line"/>
      <point x="1130" y="0" type="line"/>
      <point x="697" y="0" type="line"/>
      <point x="701" y="59" type="line"/>
      <point x="860" y="80" type="line"/>
      <point x="807" y="396" type="line"/>
      <point x="298" y="396" type="line"/>
      <point x="149" y="81" type="line"/>
      <point x="306" y="59" type="line"/>
      <point x="302" y="0" type="line"/>
      <point x="-103" y="0" type="line"/>
      <point x="-96" y="59" type="line"/>
      <point x="23" y="80" type="line"/>
      <point x="632" y="1309" type="line"/>
    </contour>
    <contour>
      <point x="793" y="479" type="line"/>
      <point x="690" y="1095" type="line"/>
      <point x="679" y="1196" type="line"/>
      <point x="338" y="479" type="line"/>
    </contour>
    <contour>
      <point x="887" y="1720" type="line"/>
      <point x="968" y="1639" type="line"/>
      <point x="927" y="1556"/>
      <point x="786" y="1445"/>
      <point x="686" y="1388" type="curve"/>
      <point x="643" y="1420" type="line"/>
    </contour>
  </outline>
</glyph>
<glyph name="Acircumflex" format="1">
  <advance width="1154"/>
  <unicode hex="00C2"/>
  <note>
	Acircumflex
  </note>
  <outline>
    <contour>
      <point x="764" y="1309" type="line"/>
      <point x="989" y="83" type="line"/>
      <point x="1134" y="59" type="line"/>
      <point x="1130" y="0" type="line"/>
      <point x="697" y="0" type="line"/>
      <point x="701" y="59" type="line"/>
      <point x="860" y="80" type="line"/>
      <point x="807" y="396" type="line"/>
      <point x="298" y="396" type="line"/>
      <point x="149" y="81" type="line"/>
      <point x="306" y="59" type="line"/>
      <point x="302" y="0" type="line"/>
      <point x="-103" y="0" type="line"/>
      <point x="-96" y="59" type="line"/>
      <point x="23" y="80" type="line"/>
      <point x="632" y="1309" type="line"/>
    </contour>
    <contour>
      <point x="793" y="479" type="line"/>
      <point x="690" y="1095" type="line"/>
      <point x="679" y="1196" type="line"/>
      <point x="338" y="479" type="line"/>
    </contour>
    <contour>
      <point x="708" y="1720" type="line"/>
      <point x="825" y="1720" type="line"/>
      <point x="1015" y="1439" type="line"/>
      <point x="969" y="1398" type="line"/>
      <point x="761" y="1619" type="line"/>
      <point x="471" y="1400" type="line"/>
      <point x="430" y="1440" type="line"/>
    </contour>
  </outline>
</glyph>
<glyph name="Atilde" format="1">
  <advance width="1154"/>
  <unicode hex="00C3"/>
  <note>
	Atilde
  </note>
  <outline>
    <contour>
      <point x="764" y="1309" type="line"/>
      <point x="989" y="83" type="line"/>
      <point x="1134" y="59" type="line"/>
      <point x="1130" y="0" type="line"/>
      <point x="697" y="0" type="line"/>
      <point x="701" y="59" type="line"/>
      <point x="860" y="80" type="line"/>
      <point x="807" y="396" type="line"/>
      <point x="298" y="396" type="line"/>
      <point x="149" y="81" type="line"/>
      <point x="306" y="59" type="line"/>
      <point x="302" y="0" type="line"/>
      <point x="-103" y="0" type="line"/>
      <point x="-96" y="59" type="line"/>
      <point x="23" y="80" type="line"/>
      <point x="632" y="1309" type="line"/>
    </contour>
    <contour>
      <point x="793" y="479" type="line"/>
      <point x="690" y="1095" type="line"/>
      <point x="679" y="1196" type="line"/>
      <point x="338" y="479" type="line"/>
    </contour>
    <contour>
      <point x="422" y="1548" type="line"/>
      <point x="457" y="1629"/>
      <point x="522" y="1690"/>
      <point x="611" y="1690" type="curve" smooth="yes"/>
      <point x="666" y="1690"/>
      <point x="697" y="1667"/>
      <point x="749" y="1623" type="curve" smooth="yes"/>
      <point x="794" y="1583"/>
      <point x="822" y="1563"/>
      <point x="862" y="1563" type="curve" smooth="yes"/>
      <point x="923" y="1563"/>
      <point x="957" y="1598"/>
      <point x="994" y="1650" type="curve"/>
      <point x="1033" y="1594" type="line"/>
      <point x="1002" y="1521"/>
      <point x="939" y="1452"/>
      <point x="850" y="1452" type="curve" smooth="yes"/>
      <point x="793" y="1452"/>
      <point x="760" y="1475"/>
      <point x="709" y="1520" type="curve"/>
      <point x="668" y="1559"/>
      <point x="640" y="1578"/>
      <point x="597" y="1578" type="curve" smooth="yes"/>
      <point x="540" y="1578"/>
      <point x="499" y="1547"/>
      <point x="460" y="1491" type="curve"/>
    </contour>
  </outline>
</glyph>
<glyph name="Adieresis" format="1">
  <advance width="1154"/>
  <unicode hex="00C4"/>
  <note>
	Adieresis
  </note>
  <outline>
    <contour>
      <point x="764" y="1309" type="line"/>
      <point x="989" y="83" type="line"/>
      <point x="1134" y="59" type="line"/>
      <point x="1130" y="0" type="line"/>
      <point x="697" y="0" type="line"/>
      <point x="701" y="59" type="line"/>
      <point x="860" y="80" type="line"/>
      <point x="807" y="396" type="line"/>
      <point x="298" y="396" type="line"/>
      <point x="149" y="81" type="line"/>
      <point x="306" y="59" type="line"/>
      <point x="302" y="0" type="line"/>
      <point x="-103" y="0" type="line"/>
      <point x="-96" y="59" type="line"/>
      <point x="23" y="80" type="line"/>
      <point x="632" y="1309" type="line"/>
    </contour>
    <contour>
      <point x="793" y="479" type="line"/>
      <point x="690" y="1095" type="line"/>
      <point x="679" y="1196" type="line"/>
      <point x="338" y="479" type="line"/>
    </contour>
    <contour>
      <point x="474" y="1617"/>
      <point x="495" y="1653"/>
      <point x="524" y="1673" type="curve" smooth="yes"/>
      <point x="539" y="1683"/>
      <point x="554" y="1688"/>
      <point x="569" y="1688" type="curve" smooth="yes"/>
      <point x="616" y="1688"/>
      <point x="647" y="1655"/>
      <point x="647" y="1607" type="curve" smooth="yes"/>
      <point x="647" y="1568"/>
      <point x="628" y="1532"/>
      <point x="597" y="1513" type="curve" smooth="yes"/>
      <point x="581" y="1503"/>
      <point x="564" y="1498"/>
      <point x="547" y="1498" type="curve" smooth="yes"/>
      <point x="507" y="1498"/>
      <point x="474" y="1533"/>
      <point x="474" y="1580" type="curve" smooth="yes"/>
    </contour>
    <contour>
      <point x="834" y="1620"/>
      <point x="856" y="1654"/>
      <point x="886" y="1674" type="curve"/>
      <point x="901" y="1683"/>
      <point x="915" y="1688"/>
      <point x="930" y="1688" type="curve" smooth="yes"/>
      <point x="978" y="1688"/>
      <point x="1009" y="1655"/>
      <point x="1009" y="1608" type="curve" smooth="yes"/>
      <point x="1009" y="1569"/>
      <point x="989" y="1533"/>
      <point x="958" y="1513" type="curve" smooth="yes"/>
      <point x="943" y="1503"/>
      <point x="926" y="1498"/>
      <point x="908" y="1498" type="curve" smooth="yes"/>
      <point x="865" y="1498"/>
      <point x="834" y="1533"/>
      <point x="834" y="1581" type="curve" smooth="yes"/>
    </contour>
  </outline>
</glyph>
<glyph name="Aring" format="1">
  <advance width="1154"/>
  <unicode hex="00C5"/>
  <note>
	Aring
  </note>
  <outline>
    <contour>
      <point x="628" y="1301" type="line"/>
      <point x="527" y="1324"/>
      <point x="470" y="1394"/>
      <point x="470" y="1489" type="curve" smooth="yes"/>
      <point x="470" y="1580"/>
      <point x="536" y="1653"/>
      <point x="626" y="1690" type="curve" smooth="yes"/>
      <point x="671" y="1708"/>
      <point x="716" y="1717"/>
      <point x="761" y="1717" type="curve" smooth="yes"/>
      <point x="852" y="1717"/>
      <point x="923" y="1684"/>
      <point x="960" y="1629" type="curve" smooth="yes"/>
      <point x="978" y="1601"/>
      <point x="987" y="1569"/>
      <point x="987" y="1534" type="curve" smooth="yes"/>
      <point x="987" y="1449"/>
      <point x="942" y="1382"/>
      <point x="875" y="1342" type="curve" smooth="yes"/>
      <point x="842" y="1321"/>
      <point x="805" y="1307"/>
      <point x="765" y="1299" type="curve"/>
      <point x="989" y="83" type="line"/>
      <point x="1134" y="59" type="line"/>
      <point x="1130" y="0" type="line"/>
      <point x="697" y="0" type="line"/>
      <point x="701" y="59" type="line"/>
      <point x="860" y="80" type="line"/>
      <point x="807" y="396" type="line"/>
      <point x="298" y="396" type="line"/>
      <point x="149" y="81" type="line"/>
      <point x="306" y="59" type="line"/>
      <point x="302" y="0" type="line"/>
      <point x="-103" y="0" type="line"/>
      <point x="-96" y="59" type="line"/>
      <point x="23" y="80" type="line"/>
    </contour>
    <contour>
      <point x="900" y="1576"/>
      <point x="875" y="1619"/>
      <point x="829" y="1643" type="curve" smooth="yes"/>
      <point x="806" y="1655"/>
      <point x="780" y="1661"/>
      <point x="751" y="1661" type="curve" smooth="yes"/>
      <point x="687" y="1661"/>
      <point x="624" y="1634"/>
      <point x="586" y="1584" type="curve" smooth="yes"/>
      <point x="567" y="1559"/>
      <point x="557" y="1529"/>
      <point x="557" y="1496" type="curve" smooth="yes"/>
      <point x="557" y="1441"/>
      <point x="582" y="1395"/>
      <point x="629" y="1369" type="curve" smooth="yes"/>
      <point x="652" y="1356"/>
      <point x="680" y="1349"/>
      <point x="711" y="1349" type="curve" smooth="yes"/>
      <point x="776" y="1349"/>
      <point x="838" y="1376"/>
      <point x="874" y="1429" type="curve" smooth="yes"/>
      <point x="891" y="1456"/>
      <point x="900" y="1488"/>
      <point x="900" y="1527" type="curve" smooth="yes"/>
    </contour>
    <contour>
      <point x="793" y="479" type="line"/>
      <point x="690" y="1095" type="line"/>
      <point x="679" y="1196" type="line"/>
      <point x="338" y="479" type="line"/>
    </contour>
  </outline>
</glyph>
<glyph name="AE" format="1">
  <advance width="1563"/>
  <unicode hex="00C6"/>
  <note>
	AE
  </note>
  <outline>
    <contour>
      <point x="718" y="80" type="line"/>
      <point x="760" y="430" type="line"/>
      <point x="326" y="430" type="line"/>
      <point x="149" y="81" type="line"/>
      <point x="343" y="59" type="line"/>
      <point x="339" y="0" type="line"/>
      <point x="-139" y="0" type="line"/>
      <point x="-128" y="59" type="line"/>
      <point x="15" y="80" type="line"/>
      <point x="627" y="1224" type="line"/>
      <point x="359" y="1240" type="line"/>
      <point x="369" y="1309" type="line"/>
      <point x="1511" y="1309" type="line"/>
      <point x="1505" y="1056" type="line"/>
      <point x="1434" y="1056" type="line"/>
      <point x="1405" y="1224" type="line"/>
      <point x="992" y="1233" type="line"/>
      <point x="925" y="717" type="line"/>
      <point x="1308" y="734" type="line"/>
      <point x="1299" y="620" type="line"/>
      <point x="918" y="631" type="line"/>
      <point x="851" y="81" type="line"/>
      <point x="1361" y="97" type="line"/>
      <point x="1442" y="279" type="line"/>
      <point x="1511" y="257" type="line"/>
      <point x="1449" y="0" type="line"/>
      <point x="599" y="0" type="line"/>
      <point x="606" y="59" type="line"/>
    </contour>
    <contour>
      <point x="369" y="513" type="line"/>
      <point x="770" y="513" type="line"/>
      <point x="855" y="1218" type="line"/>
      <point x="729" y="1222" type="line"/>
    </contour>
  </outline>
</glyph>
<glyph name="Ccedilla" format="1">
  <advance width="1059"/>
  <unicode hex="00C7"/>
  <note>
	Ccedilla
  </note>
  <outline>
    <contour>
      <point x="488" y="1240"/>
      <point x="340" y="1090"/>
      <point x="268" y="883" type="curve" smooth="yes"/>
      <point x="232" y="780"/>
      <point x="214" y="675"/>
      <point x="214" y="570" type="curve" smooth="yes"/>
      <point x="214" y="398"/>
      <point x="257" y="237"/>
      <point x="358" y="141" type="curve" smooth="yes"/>
      <point x="408" y="92"/>
      <point x="472" y="68"/>
      <point x="550" y="68" type="curve" smooth="yes"/>
      <point x="649" y="68"/>
      <point x="767" y="101"/>
      <point x="811" y="153" type="curve"/>
      <point x="865" y="346" type="line"/>
      <point x="945" y="345" type="line"/>
      <point x="910" y="60" type="line"/>
      <point x="883" y="52" type="line"/>
      <point x="788" y="20"/>
      <point x="701" y="-3"/>
      <point x="590" y="-11" type="curve"/>
      <point x="600" y="-39"/>
      <point x="605" y="-74"/>
      <point x="605" y="-115" type="curve" smooth="yes"/>
      <point x="605" y="-242"/>
      <point x="561" y="-326"/>
      <point x="493" y="-366" type="curve" smooth="yes"/>
      <point x="458" y="-387"/>
      <point x="419" y="-397"/>
      <point x="375" y="-397" type="curve" smooth="yes"/>
      <point x="330" y="-397"/>
      <point x="283" y="-388"/>
      <point x="263" y="-373" type="curve"/>
      <point x="273" y="-270" type="line"/>
      <point x="289" y="-278"/>
      <point x="326" y="-285"/>
      <point x="361" y="-285" type="curve" smooth="yes"/>
      <point x="465" y="-285"/>
      <point x="524" y="-201"/>
      <point x="524" y="-72" type="curve" smooth="yes"/>
      <point x="524" y="-52"/>
      <point x="522" y="-33"/>
      <point x="518" y="-14" type="curve"/>
      <point x="315" y="-11"/>
      <point x="184" y="111"/>
      <point x="123" y="284" type="curve" smooth="yes"/>
      <point x="92" y="370"/>
      <point x="77" y="462"/>
      <point x="77" y="559" type="curve" smooth="yes"/>
      <point x="77" y="858"/>
      <point x="203" y="1099"/>
      <point x="396" y="1227" type="curve" smooth="yes"/>
      <point x="493" y="1291"/>
      <point x="597" y="1323"/>
      <point x="710" y="1323" type="curve" smooth="yes"/>
      <point x="845" y="1323"/>
      <point x="926" y="1305"/>
      <point x="1013" y="1281" type="curve" smooth="yes"/>
      <point x="1050" y="1270" type="line"/>
      <point x="998" y="958" type="line"/>
      <point x="920" y="958" type="line"/>
      <point x="913" y="1195" type="line"/>
      <point x="868" y="1223"/>
      <point x="809" y="1240"/>
      <point x="696" y="1240" type="curve" smooth="yes"/>
    </contour>
  </outline>
</glyph>
<glyph name="Eacute" format="1">
  <advance width="1050"/>
  <unicode hex="00C9"/>
  <note>
	Eacute
  </note>
  <outline>
    <contour>
      <point x="822" y="1720" type="line"/>
      <point x="903" y="1639" type="line"/>
      <point x="862" y="1556"/>
      <point x="721" y="1445"/>
      <point x="621" y="1388" type="curve"/>
      <point x="578" y="1420" type="line"/>
    </contour>
    <contour>
      <point x="158" y="80" type="line"/>
      <point x="301" y="1223" type="line"/>
      <point x="184" y="1239" type="line"/>
      <point x="192" y="1309" type="line"/>
      <point x="981" y="1309" type="line"/>
      <point x="975" y="1042" type="line"/>
      <point x="904" y="1042" type="line"/>
      <point x="875" y="1225" type="line"/>
      <point x="434" y="1234" type="line"/>
      <point x="369" y="722" type="line"/>
      <point x="783" y="728" type="line"/>
      <point x="775" y="620" type="line"/>
      <point x="360" y="631" type="line"/>
      <point x="287" y="81" type="line"/>
      <point x="821" y="97" type="line"/>
      <point x="917" y="293" type="line"/>
      <point x="986" y="272" type="line"/>
      <point x="910" y="0" type="line"/>
      <point x="22" y="0" type="line"/>
      <point x="28" y="59" type="line"/>
    </contour>
  </outline>
</glyph>
<glyph name="Ecircumflex" format="1">
  <advance width="1050"/>
  <unicode hex="00CA"/>
  <note>
	Ecircumflex
  </note>
  <outline>
    <contour>
      <point x="158" y="80" type="line"/>
      <point x="301" y="1223" type="line"/>
      <point x="184" y="1239" type="line"/>
      <point x="192" y="1309" type="line"/>
      <point x="981" y="1309" type="line"/>
      <point x="975" y="1042" type="line"/>
      <point x="904" y="1042" type="line"/>
      <point x="875" y="1225" type="line"/>
      <point x="434" y="1234" type="line"/>
      <point x="369" y="722" type="line"/>
      <point x="783" y="728" type="line"/>
      <point x="775" y="620" type="line"/>
      <point x="360" y="631" type="line"/>
      <point x="287" y="81" type="line"/>
      <point x="821" y="97" type="line"/>
      <point x="917" y="293" type="line"/>
      <point x="986" y="272" type="line"/>
      <point x="910" y="0" type="line"/>
      <point x="22" y="0" type="line"/>
      <point x="28" y="59" type="line"/>
    </contour>
    <contour>
      <point x="643" y="1720" type="line"/>
      <point x="760" y="1720" type="line"/>
      <point x="950" y="1439" type="line"/>
      <point x="904" y="1398" type="line"/>
      <point x="696" y="1619" type="line"/>
      <point x="406" y="1400" type="line"/>
      <point x="365" y="1440" type="line"/>
    </contour>
  </outline>
</glyph>
<glyph name="Edieresis" format="1">
  <advance width="1050"/>
  <unicode hex="00CB"/>
  <note>
	Edieresis
  </note>
  <outline>
    <contour>
      <point x="410" y="1617"/>
      <point x="431" y="1653"/>
      <point x="460" y="1673" type="curve" smooth="yes"/>
      <point x="475" y="1683"/>
      <point x="490" y="1688"/>
      <point x="505" y="1688" type="curve" smooth="yes"/>
      <point x="552" y="1688"/>
      <point x="583" y="1655"/>
      <point x="583" y="1607" type="curve" smooth="yes"/>
      <point x="583" y="1568"/>
      <point x="564" y="1532"/>
      <point x="533" y="1513" type="curve" smooth="yes"/>
      <point x="517" y="1503"/>
      <point x="500" y="1498"/>
      <point x="483" y="1498" type="curve" smooth="yes"/>
      <point x="443" y="1498"/>
      <point x="410" y="1533"/>
      <point x="410" y="1580" type="curve" smooth="yes"/>
    </contour>
    <contour>
      <point x="770" y="1620"/>
      <point x="792" y="1654"/>
      <point x="822" y="1674" type="curve"/>
      <point x="837" y="1683"/>
      <point x="851" y="1688"/>
      <point x="866" y="1688" type="curve" smooth="yes"/>
      <point x="914" y="1688"/>
      <point x="945" y="1655"/>
      <point x="945" y="1608" type="curve" smooth="yes"/>
      <point x="945" y="1569"/>
      <point x="925" y="1533"/>
      <point x="894" y="1513" type="curve" smooth="yes"/>
      <point x="879" y="1503"/>
      <point x="862" y="1498"/>
      <point x="844" y="1498" type="curve" smooth="yes"/>
      <point x="801" y="1498"/>
      <point x="770" y="1533"/>
      <point x="770" y="1581" type="curve" smooth="yes"/>
    </contour>
    <contour>
      <point x="158" y="80" type="line"/>
      <point x="301" y="1223" type="line"/>
      <point x="184" y="1239" type="line"/>
      <point x="192" y="1309" type="line"/>
      <point x="981" y="1309" type="line"/>
      <point x="975" y="1042" type="line"/>
      <point x="904" y="1042" type="line"/>
      <point x="875" y="1225" type="line"/>
      <point x="434" y="1234" type="line"/>
      <point x="369" y="722" type="line"/>
      <point x="783" y="728" type="line"/>
      <point x="775" y="620" type="line"/>
      <point x="360" y="631" type="line"/>
      <point x="287" y="81" type="line"/>
      <point x="821" y="97" type="line"/>
      <point x="917" y="293" type="line"/>
      <point x="986" y="272" type="line"/>
      <point x="910" y="0" type="line"/>
      <point x="22" y="0" type="line"/>
      <point x="28" y="59" type="line"/>
    </contour>
  </outline>
</glyph>
<glyph name="Igrave" format="1">
  <advance width="593"/>
  <unicode hex="00CC"/>
  <note>
	Igrave
  </note>
  <outline>
    <contour>
      <point x="175" y="81" type="line"/>
      <point x="318" y="1223" type="line"/>
      <point x="201" y="1239" type="line"/>
      <point x="210" y="1309" type="line"/>
      <point x="584" y="1309" type="line"/>
      <point x="577" y="1239" type="line"/>
      <point x="448" y="1223" type="line"/>
      <point x="304" y="81" type="line"/>
      <point x="438" y="60" type="line"/>
      <point x="433" y="0" type="line"/>
      <point x="40" y="0" type="line"/>
      <point x="46" y="59" type="line"/>
    </contour>
    <contour>
      <point x="255" y="1720" type="line"/>
      <point x="489" y="1420" type="line"/>
      <point x="445" y="1388" type="line"/>
      <point x="384" y="1423"/>
      <point x="302" y="1485"/>
      <point x="237" y="1550" type="curve" smooth="yes"/>
      <point x="204" y="1582"/>
      <point x="182" y="1612"/>
      <point x="169" y="1639" type="curve"/>
    </contour>
  </outline>
</glyph>
<glyph name="Iacute" format="1">
  <advance width="593"/>
  <unicode hex="00CD"/>
  <note>
	Iacute
  </note>
  <outline>
    <contour>
      <point x="175" y="81" type="line"/>
      <point x="318" y="1223" type="line"/>
      <point x="201" y="1239" type="line"/>
      <point x="210" y="1309" type="line"/>
      <point x="584" y="1309" type="line"/>
      <point x="577" y="1239" type="line"/>
      <point x="448" y="1223" type="line"/>
      <point x="304" y="81" type="line"/>
      <point x="438" y="60" type="line"/>
      <point x="433" y="0" type="line"/>
      <point x="40" y="0" type="line"/>
      <point x="46" y="59" type="line"/>
    </contour>
    <contour>
      <point x="601" y="1720" type="line"/>
      <point x="682" y="1639" type="line"/>
      <point x="641" y="1556"/>
      <point x="500" y="1445"/>
      <point x="400" y="1388" type="curve"/>
      <point x="357" y="1420" type="line"/>
    </contour>
  </outline>
</glyph>
<glyph name="Icircumflex" format="1">
  <advance width="593"/>
  <unicode hex="00CE"/>
  <note>
	Icircumflex
  </note>
  <outline>
    <contour>
      <point x="175" y="81" type="line"/>
      <point x="318" y="1223" type="line"/>
      <point x="201" y="1239" type="line"/>
      <point x="210" y="1309" type="line"/>
      <point x="584" y="1309" type="line"/>
      <point x="577" y="1239" type="line"/>
      <point x="448" y="1223" type="line"/>
      <point x="304" y="81" type="line"/>
      <point x="438" y="60" type="line"/>
      <point x="433" y="0" type="line"/>
      <point x="40" y="0" type="line"/>
      <point x="46" y="59" type="line"/>
    </contour>
    <contour>
      <point x="422" y="1720" type="line"/>
      <point x="539" y="1720" type="line"/>
      <point x="729" y="1439" type="line"/>
      <point x="683" y="1398" type="line"/>
      <point x="475" y="1619" type="line"/>
      <point x="185" y="1400" type="line"/>
      <point x="144" y="1440" type="line"/>
    </contour>
  </outline>
</glyph>
<glyph name="Ntilde" format="1">
  <advance width="1298"/>
  <unicode hex="00D1"/>
  <note>
	Ntilde
  </note>
  <outline>
    <contour>
      <point x="458" y="1548" type="line"/>
      <point x="493" y="1629"/>
      <point x="558" y="1690"/>
      <point x="647" y="1690" type="curve" smooth="yes"/>
      <point x="702" y="1690"/>
      <point x="733" y="1667"/>
      <point x="785" y="1623" type="curve" smooth="yes"/>
      <point x="830" y="1583"/>
      <point x="858" y="1563"/>
      <point x="898" y="1563" type="curve" smooth="yes"/>
      <point x="959" y="1563"/>
      <point x="993" y="1598"/>
      <point x="1030" y="1650" type="curve"/>
      <point x="1069" y="1594" type="line"/>
      <point x="1038" y="1521"/>
      <point x="975" y="1452"/>
      <point x="886" y="1452" type="curve" smooth="yes"/>
      <point x="829" y="1452"/>
      <point x="796" y="1475"/>
      <point x="745" y="1520" type="curve"/>
      <point x="704" y="1559"/>
      <point x="676" y="1578"/>
      <point x="633" y="1578" type="curve" smooth="yes"/>
      <point x="576" y="1578"/>
      <point x="535" y="1547"/>
      <point x="496" y="1491" type="curve"/>
    </contour>
    <contour>
      <point x="152" y="79" type="line"/>
      <point x="301" y="1223" type="line"/>
      <point x="175" y="1239" type="line"/>
      <point x="187" y="1309" type="line"/>
      <point x="440" y="1309" type="line"/>
      <point x="885" y="322" type="line"/>
      <point x="953" y="126" type="line"/>
      <point x="1083" y="1224" type="line"/>
      <point x="944" y="1239" type="line"/>
      <point x="953" y="1309" type="line"/>
      <point x="1325" y="1309" type="line"/>
      <point x="1318" y="1239" type="line"/>
      <point x="1186" y="1223" type="line"/>
      <point x="1018" y="0" type="line"/>
      <point x="894" y="0" type="line"/>
      <point x="452" y="979" type="line"/>
      <point x="384" y="1176" type="line"/>
      <point x="262" y="81" type="line"/>
      <point x="409" y="60" type="line"/>
      <point x="403" y="0" type="line"/>
      <point x="26" y="0" type="line"/>
      <point x="31" y="59" type="line"/>
    </contour>
  </outline>
</glyph>
<glyph name="Oacute" format="1">
  <advance width="1188"/>
  <unicode hex="00D3"/>
  <note>
	Oacute
  </note>
  <outline>
    <contour>
      <point x="887" y="1720" type="line"/>
      <point x="968" y="1639" type="line"/>
      <point x="927" y="1556"/>
      <point x="786" y="1445"/>
      <point x="686" y="1388" type="curve"/>
      <point x="643" y="1420" type="line"/>
    </contour>
    <contour>
      <point x="883" y="1326"/>
      <point x="1013" y="1218"/>
      <point x="1076" y="1047" type="curve" smooth="yes"/>
      <point x="1107" y="961"/>
      <point x="1123" y="866"/>
      <point x="1123" y="761" type="curve" smooth="yes"/>
      <point x="1123" y="468"/>
      <point x="1013" y="220"/>
      <point x="833" y="85" type="curve" smooth="yes"/>
      <point x="743" y="17"/>
      <point x="643" y="-17"/>
      <point x="532" y="-17" type="curve" smooth="yes"/>
      <point x="348" y="-17"/>
      <point x="216" y="89"/>
      <point x="150" y="260" type="curve" smooth="yes"/>
      <point x="117" y="345"/>
      <point x="100" y="441"/>
      <point x="100" y="548" type="curve" smooth="yes"/>
      <point x="100" y="843"/>
      <point x="211" y="1092"/>
      <point x="393" y="1226" type="curve" smooth="yes"/>
      <point x="484" y="1293"/>
      <point x="585" y="1326"/>
      <point x="696" y="1326" type="curve" smooth="yes"/>
    </contour>
    <contour>
      <point x="988" y="936"/>
      <point x="942" y="1092"/>
      <point x="848" y="1176" type="curve" smooth="yes"/>
      <point x="801" y="1218"/>
      <point x="743" y="1239"/>
      <point x="674" y="1239" type="curve" smooth="yes"/>
      <point x="509" y="1239"/>
      <point x="368" y="1118"/>
      <point x="290" y="914" type="curve" smooth="yes"/>
      <point x="251" y="812"/>
      <point x="231" y="697"/>
      <point x="231" y="568" type="curve" smooth="yes"/>
      <point x="231" y="365"/>
      <point x="283" y="211"/>
      <point x="379" y="128" type="curve" smooth="yes"/>
      <point x="427" y="86"/>
      <point x="484" y="65"/>
      <point x="550" y="65" type="curve" smooth="yes"/>
      <point x="714" y="65"/>
      <point x="854" y="187"/>
      <point x="931" y="391" type="curve" smooth="yes"/>
      <point x="969" y="493"/>
      <point x="988" y="608"/>
      <point x="988" y="735" type="curve" smooth="yes"/>
    </contour>
  </outline>
</glyph>
<glyph name="Otilde" format="1">
  <advance width="1188"/>
  <unicode hex="00D5"/>
  <note>
	Otilde
  </note>
  <outline>
    <contour>
      <point x="422" y="1548" type="line"/>
      <point x="457" y="1629"/>
      <point x="522" y="1690"/>
      <point x="611" y="1690" type="curve" smooth="yes"/>
      <point x="666" y="1690"/>
      <point x="697" y="1667"/>
      <point x="749" y="1623" type="curve" smooth="yes"/>
      <point x="794" y="1583"/>
      <point x="822" y="1563"/>
      <point x="862" y="1563" type="curve" smooth="yes"/>
      <point x="923" y="1563"/>
      <point x="957" y="1598"/>
      <point x="994" y="1650" type="curve"/>
      <point x="1033" y="1594" type="line"/>
      <point x="1002" y="1521"/>
      <point x="939" y="1452"/>
      <point x="850" y="1452" type="curve" smooth="yes"/>
      <point x="793" y="1452"/>
      <point x="760" y="1475"/>
      <point x="709" y="1520" type="curve"/>
      <point x="668" y="1559"/>
      <point x="640" y="1578"/>
      <point x="597" y="1578" type="curve" smooth="yes"/>
      <point x="540" y="1578"/>
      <point x="499" y="1547"/>
      <point x="460" y="1491" type="curve"/>
    </contour>
    <contour>
      <point x="883" y="1326"/>
      <point x="1013" y="1218"/>
      <point x="1076" y="1047" type="curve" smooth="yes"/>
      <point x="1107" y="961"/>
      <point x="1123" y="866"/>
      <point x="1123" y="761" type="curve" smooth="yes"/>
      <point x="1123" y="468"/>
      <point x="1013" y="220"/>
      <point x="833" y="85" type="curve" smooth="yes"/>
      <point x="743" y="17"/>
      <point x="643" y="-17"/>
      <point x="532" y="-17" type="curve" smooth="yes"/>
      <point x="348" y="-17"/>
      <point x="216" y="89"/>
      <point x="150" y="260" type="curve" smooth="yes"/>
      <point x="117" y="345"/>
      <point x="100" y="441"/>
      <point x="100" y="548" type="curve" smooth="yes"/>
      <point x="100" y="843"/>
      <point x="211" y="1092"/>
      <point x="393" y="1226" type="curve" smooth="yes"/>
      <point x="484" y="1293"/>
      <point x="585" y="1326"/>
      <point x="696" y="1326" type="curve" smooth="yes"/>
    </contour>
    <contour>
      <point x="988" y="936"/>
      <point x="942" y="1092"/>
      <point x="848" y="1176" type="curve" smooth="yes"/>
      <point x="801" y="1218"/>
      <point x="743" y="1239"/>
      <point x="674" y="1239" type="curve" smooth="yes"/>
      <point x="509" y="1239"/>
      <point x="368" y="1118"/>
      <point x="290" y="914" type="curve" smooth="yes"/>
      <point x="251" y="812"/>
      <point x="231" y="697"/>
      <point x="231" y="568" type="curve" smooth="yes"/>
      <point x="231" y="365"/>
      <point x="283" y="211"/>
      <point x="379" y="128" type="curve" smooth="yes"/>
      <point x="427" y="86"/>
      <point x="484" y="65"/>
      <point x="550" y="65" type="curve" smooth="yes"/>
      <point x="714" y="65"/>
      <point x="854" y="187"/>
      <point x="931" y="391" type="curve" smooth="yes"/>
      <point x="969" y="493"/>
      <point x="988" y="608"/>
      <point x="988" y="735" type="curve" smooth="yes"/>
    </contour>
  </outline>
</glyph>
<glyph name="Odieresis" format="1">
  <advance width="1188"/>
  <unicode hex="00D6"/>
  <note>
	Odieresis
  </note>
  <outline>
    <contour>
      <point x="474" y="1617"/>
      <point x="495" y="1653"/>
      <point x="524" y="1673" type="curve" smooth="yes"/>
      <point x="539" y="1683"/>
      <point x="554" y="1688"/>
      <point x="569" y="1688" type="curve" smooth="yes"/>
      <point x="616" y="1688"/>
      <point x="647" y="1655"/>
      <point x="647" y="1607" type="curve" smooth="yes"/>
      <point x="647" y="1568"/>
      <point x="628" y="1532"/>
      <point x="597" y="1513" type="curve" smooth="yes"/>
      <point x="581" y="1503"/>
      <point x="564" y="1498"/>
      <point x="547" y="1498" type="curve" smooth="yes"/>
      <point x="507" y="1498"/>
      <point x="474" y="1533"/>
      <point x="474" y="1580" type="curve" smooth="yes"/>
    </contour>
    <contour>
      <point x="834" y="1620"/>
      <point x="856" y="1654"/>
      <point x="886" y="1674" type="curve"/>
      <point x="901" y="1683"/>
      <point x="915" y="1688"/>
      <point x="930" y="1688" type="curve" smooth="yes"/>
      <point x="978" y="1688"/>
      <point x="1009" y="1655"/>
      <point x="1009" y="1608" type="curve" smooth="yes"/>
      <point x="1009" y="1569"/>
      <point x="989" y="1533"/>
      <point x="958" y="1513" type="curve" smooth="yes"/>
      <point x="943" y="1503"/>
      <point x="926" y="1498"/>
      <point x="908" y="1498" type="curve" smooth="yes"/>
      <point x="865" y="1498"/>
      <point x="834" y="1533"/>
      <point x="834" y="1581" type="curve" smooth="yes"/>
    </contour>
    <contour>
      <point x="883" y="1326"/>
      <point x="1013" y="1218"/>
      <point x="1076" y="1047" type="curve" smooth="yes"/>
      <point x="1107" y="961"/>
      <point x="1123" y="866"/>
      <point x="1123" y="761" type="curve" smooth="yes"/>
      <point x="1123" y="468"/>
      <point x="1013" y="220"/>
      <point x="833" y="85" type="curve" smooth="yes"/>
      <point x="743" y="17"/>
      <point x="643" y="-17"/>
      <point x="532" y="-17" type="curve" smooth="yes"/>
      <point x="348" y="-17"/>
      <point x="216" y="89"/>
      <point x="150" y="260" type="curve" smooth="yes"/>
      <point x="117" y="345"/>
      <point x="100" y="441"/>
      <point x="100" y="548" type="curve" smooth="yes"/>
      <point x="100" y="843"/>
      <point x="211" y="1092"/>
      <point x="393" y="1226" type="curve" smooth="yes"/>
      <point x="484" y="1293"/>
      <point x="585" y="1326"/>
      <point x="696" y="1326" type="curve" smooth="yes"/>
    </contour>
    <contour>
      <point x="988" y="936"/>
      <point x="942" y="1092"/>
      <point x="848" y="1176" type="curve" smooth="yes"/>
      <point x="801" y="1218"/>
      <point x="743" y="1239"/>
      <point x="674" y="1239" type="curve" smooth="yes"/>
      <point x="509" y="1239"/>
      <point x="368" y="1118"/>
      <point x="290" y="914" type="curve" smooth="yes"/>
      <point x="251" y="812"/>
      <point x="231" y="697"/>
      <point x="231" y="568" type="curve" smooth="yes"/>
      <point x="231" y="365"/>
      <point x="283" y="211"/>
      <point x="379" y="128" type="curve" smooth="yes"/>
      <point x="427" y="86"/>
      <point x="484" y="65"/>
      <point x="550" y="65" type="curve" smooth="yes"/>
      <point x="714" y="65"/>
      <point x="854" y="187"/>
      <point x="931" y="391" type="curve" smooth="yes"/>
      <point x="969" y="493"/>
      <point x="988" y="608"/>
      <point x="988" y="735" type="curve" smooth="yes"/>
    </contour>
  </outline>
</glyph>
<glyph name="multiply" format="1">
  <advance width="1178"/>
  <unicode hex="00D7"/>
  <note>
	multiply
  </note>
  <outline>
    <contour>
      <point x="547" y="658" type="line"/>
      <point x="281" y="949" type="line"/>
      <point x="368" y="1033" type="line"/>
      <point x="620" y="727" type="line"/>
      <point x="945" y="1036" type="line"/>
      <point x="1013" y="951" type="line"/>
      <point x="679" y="657" type="line"/>
      <point x="945" y="366" type="line"/>
      <point x="858" y="281" type="line"/>
      <point x="605" y="588" type="line"/>
      <point x="277" y="280" type="line"/>
      <point x="209" y="366" type="line"/>
    </contour>
  </outline>
</glyph>
<glyph name="Oslash" format="1">
  <advance width="1191"/>
  <unicode hex="00D8"/>
  <note>
	Oslash
  </note>
  <outline>
    <contour>
      <point x="775" y="1328"/>
      <point x="844" y="1309"/>
      <point x="905" y="1271" type="curve"/>
      <point x="1016" y="1456" type="line"/>
      <point x="1077" y="1426" type="line"/>
      <point x="961" y="1228" type="line"/>
      <point x="1068" y="1128"/>
      <point x="1123" y="959"/>
      <point x="1123" y="763" type="curve" smooth="yes"/>
      <point x="1123" y="470"/>
      <point x="1013" y="221"/>
      <point x="833" y="86" type="curve" smooth="yes"/>
      <point x="743" y="19"/>
      <point x="643" y="-15"/>
      <point x="532" y="-15" type="curve" smooth="yes"/>
      <point x="441" y="-15"/>
      <point x="362" y="10"/>
      <point x="296" y="59" type="curve"/>
      <point x="172" y="-143" type="line"/>
      <point x="110" y="-112" type="line"/>
      <point x="242" y="108" type="line"/>
      <point x="149" y="209"/>
      <point x="100" y="367"/>
      <point x="100" y="550" type="curve" smooth="yes"/>
      <point x="100" y="845"/>
      <point x="211" y="1094"/>
      <point x="393" y="1228" type="curve" smooth="yes"/>
      <point x="484" y="1295"/>
      <point x="585" y="1328"/>
      <point x="696" y="1328" type="curve" smooth="yes"/>
    </contour>
    <contour>
      <point x="851" y="1173" type="line"/>
      <point x="802" y="1218"/>
      <point x="743" y="1241"/>
      <point x="674" y="1241" type="curve" smooth="yes"/>
      <point x="509" y="1241"/>
      <point x="368" y="1120"/>
      <point x="290" y="916" type="curve" smooth="yes"/>
      <point x="251" y="814"/>
      <point x="231" y="698"/>
      <point x="231" y="569" type="curve" smooth="yes"/>
      <point x="231" y="421"/>
      <point x="260" y="297"/>
      <point x="312" y="209" type="curve"/>
    </contour>
    <contour>
      <point x="988" y="901"/>
      <point x="956" y="1038"/>
      <point x="893" y="1126" type="curve"/>
      <point x="352" y="156" type="line"/>
      <point x="406" y="97"/>
      <point x="472" y="67"/>
      <point x="550" y="67" type="curve" smooth="yes"/>
      <point x="714" y="67"/>
      <point x="854" y="189"/>
      <point x="931" y="393" type="curve" smooth="yes"/>
      <point x="969" y="495"/>
      <point x="988" y="610"/>
      <point x="988" y="737" type="curve" smooth="yes"/>
    </contour>
  </outline>
</glyph>
